<svg width="1095" height="206" viewBox="0 0 1095 206" fill="none" xmlns="http://www.w3.org/2000/svg">
<g clip-path="url(#clip0_2003_178)">
<path d="M1094.74 0.130811C1095.32 -0.154606 1094.99 0.0118874 1093.38 0.773L1092.24 1.33194L1094.73 0.130811H1094.74Z" fill="#F3BB28"/>
<path d="M1083.85 5.1494C1081.94 6.00565 1079.76 7.05219 1081.02 6.5646C1082.89 5.66078 1083.36 5.4705 1085.37 4.51911C1087.01 3.81745 1088.2 3.22283 1087.94 3.37744C1088.51 3.10391 1090.41 2.1882 1091.3 1.76007C1089.2 2.73525 1086.55 4.00773 1083.74 5.23265C1083.14 5.48239 1083.71 5.20886 1083.85 5.13751V5.1494Z" fill="#F3BB28"/>
<path d="M928.647 14.4136C928.409 14.6157 928.112 14.7703 927.898 15.0082C928.089 14.8179 928.386 14.6514 928.647 14.4136Z" fill="#F3BB28"/>
<path d="M897.628 80.8801C898.401 80.6423 898.71 80.4639 898.722 80.3688C898.009 80.6304 897.426 80.8564 897.628 80.8801Z" fill="#F3BB28"/>
<path d="M879.599 84.2814C879.991 84.21 880.312 84.1625 880.668 84.103C880.252 84.103 879.836 84.1625 879.599 84.2814Z" fill="#F3BB28"/>
<path d="M928.647 14.4136C929.349 13.9855 930.133 13.7238 930.906 13.6525C931.036 13.3789 929.634 13.7 928.647 14.4136Z" fill="#F3BB28"/>
<path d="M1061.7 14.4136C1062.26 14.1876 1062.72 13.9854 1063.15 13.819C1062.68 13.9973 1062.24 14.1757 1061.78 14.3541C1061.76 14.3779 1061.75 14.3898 1061.7 14.4136Z" fill="#F3BB28"/>
<path d="M961.152 31.5981H962.02C962.27 31.5148 962.507 31.4316 962.733 31.3483L961.141 31.5981H961.152Z" fill="#F3BB28"/>
<path d="M997.378 28.6726C996.558 28.7558 996.32 29.1483 996.035 29.3504C996.475 29.1483 997.069 28.9937 997.782 28.8747C997.782 28.8034 997.663 28.7439 997.378 28.6726Z" fill="#F3BB28"/>
<path d="M1053.76 16.4591L1054.72 16.1142C1054.47 16.2093 1054.05 16.352 1053.76 16.4591Z" fill="#F3BB28"/>
<path d="M936.028 28.8272C936.004 28.732 935.921 28.6131 935.826 28.518C935.802 28.5774 935.873 28.6963 936.028 28.8272Z" fill="#F3BB28"/>
<path d="M28.7017 174.854C28.7017 174.854 28.6779 174.854 28.6779 174.83C28.5353 174.985 28.4997 175.044 28.7017 174.854Z" fill="#F3BB28"/>
<path d="M0.106611 205.869L0.463157 205.405C0.463157 205.405 0.522582 205.334 0.534467 205.298L0.0947266 205.857L0.106611 205.869Z" fill="#F3BB28"/>
<path d="M846.547 90.1205C846.618 90.1205 846.63 90.1205 846.701 90.1205C847.557 89.8708 847.058 89.9778 846.547 90.1205Z" fill="#F3BB28"/>
<path d="M539.216 105.307C542.674 106.33 533.475 106.235 538.705 107.424C538.229 107.02 543.554 106.056 539.216 105.307Z" fill="#F3BB28"/>
<path d="M1060.8 14.699C1060.33 14.8655 1059.86 15.032 1059.38 15.1985C1060.02 14.9725 1060.46 14.8179 1060.8 14.699Z" fill="#F3BB28"/>
<path d="M538.705 107.424L539.24 107.543C539.014 107.495 538.895 107.46 538.705 107.424Z" fill="#F3BB28"/>
<path d="M770.115 101.454C770.294 101.609 770.614 101.692 770.947 101.775C770.912 101.68 770.721 101.597 770.115 101.454Z" fill="#F3BB28"/>
<path d="M827.424 95.2224L825.998 95.3294C826.569 95.3294 827.032 95.2818 827.424 95.2224Z" fill="#F3BB28"/>
<path d="M740.403 105.307C739.619 105.295 739.346 105.176 738.3 105.378C738.407 105.414 738.502 105.45 738.633 105.474C739.001 105.319 739.512 105.224 740.403 105.307Z" fill="#F3BB28"/>
<path d="M709.276 107.198C709.443 107.269 709.669 107.317 709.859 107.365C710.168 107.341 710.524 107.305 710.845 107.269L709.276 107.186V107.198Z" fill="#F3BB28"/>
<path d="M108.152 124.573C107.474 124.727 107.035 124.763 106.678 124.763C107.237 124.87 103.089 126.761 108.152 124.573Z" fill="#F3BB28"/>
<path d="M1061.65 14.3422C1061.48 14.4374 1061.25 14.5444 1060.79 14.7109C1061.13 14.592 1061.46 14.473 1061.77 14.3541C1061.85 14.3065 1061.86 14.2828 1061.65 14.3422Z" fill="#F3BB28"/>
<path d="M739.69 112.859L734.71 113.109C736.1 113.085 737.919 113.002 739.69 112.859Z" fill="#F3BB28"/>
<path d="M328.7 103.749L327.559 103.809C327.998 103.844 328.402 103.832 328.7 103.749Z" fill="#F3BB28"/>
<path d="M719.949 114.215C719.046 113.929 718.083 113.786 717.108 113.715C716.906 113.798 716.669 113.882 716.55 114L719.949 114.215Z" fill="#F3BB28"/>
<path d="M77.8336 139.747C81.9814 137.536 79.545 138.297 80.2938 137.583C85.1784 134.812 82.7658 136.679 84.5723 136.001C86.0936 135.133 87.3771 134.253 88.6013 133.492C89.8373 132.755 90.9782 132.077 92.1667 131.518C92.3807 131.518 92.8561 131.316 92.3688 131.673C93.9495 130.697 96.4096 129.461 98.9768 128.259C101.568 127.13 104.23 125.964 106.096 124.834C106.417 124.751 106.583 124.739 106.666 124.739C105.906 124.739 105.692 124.513 105.739 124.264C107.676 123.407 109.198 122.349 110.101 122.444C108.889 122.896 108.841 123.086 108.342 123.443C108.996 123.086 109.673 122.789 110.339 122.468C112.407 122.266 107.593 123.728 107.772 124.168C111.682 122.361 116.245 120.196 119.383 119.138C120.227 119.435 112.228 122.075 116.531 120.981L111.67 122.587C115.651 122.028 108.746 123.621 112.442 123.229C118.789 121.053 119.336 120.232 125.765 118.377C127.096 117.592 125.135 118.068 126.455 117.271C128.677 116.391 130.246 115.856 131.482 115.594C132.73 115.356 133.609 115.297 134.406 115.261C136.01 115.19 137.305 115.202 140.55 113.858C142.166 112.942 142.654 111.967 147.622 111.265L146.148 112.383C149.321 111.681 150.153 111.218 151.044 110.778C151.936 110.361 152.863 109.886 156.274 109.505C155.145 110.005 151.33 110.825 152.316 110.706C156.737 110.338 155.275 109.636 158.603 108.946L159.423 109.493C166.198 108.114 173.649 106.437 181.268 105.39C180.875 105.664 179.604 106.056 181.41 106.068C190.966 104.546 201.995 104.177 211.336 104.225L214.866 103.345C215.698 103.309 216.423 103.595 215.532 103.785C219.18 103.904 215.698 103.309 217.433 102.952C219.501 102.822 220.19 103.274 218.883 103.535C225.277 102.667 237.174 101.644 243.984 102.393L242.665 102.643C247.954 102.893 248.607 101.002 253.528 101.704L252.589 101.846C264.069 102.096 276.774 101.43 285.533 102.762C287.209 101.561 296.895 103.499 297.656 101.799C304.205 102.774 302.327 102.988 311.538 103.832C313.998 103.987 315.234 102.834 318.288 102.726L318.348 103.654L322.507 102.786L324.682 103.963L327.546 103.809C326.406 103.714 325.134 103.321 325.312 103.048C329.793 102.738 336.187 104.058 336.282 104.546L346.871 104.094C346.622 104.475 344.851 104.546 343.448 104.748C349.117 103.963 344.435 105.783 349.64 105.093C348.951 104.843 350.033 104.534 350.163 104.344C352.719 105.034 358.578 105.271 362.928 105.2L362.072 105.842C369.904 106.318 378.604 106.259 387.399 106.651C384.261 106.187 385.034 105.022 387.624 105.01L388.611 106.128C390.31 105.545 385.937 105.593 389.383 104.95C392.664 105.224 391.535 106.27 389.633 106.52L393.638 106.342C393.864 106.675 392.913 106.794 392.652 107.186C394.316 106.603 399.497 108.601 401.91 107.567L402.124 107.9C410.919 108.34 414.924 108.185 422.091 108.494C422.281 107.555 425.062 107.912 427.237 107.246C432.49 107.816 438.29 108.875 444.648 109.125C449.129 108.875 445.991 108.375 448.023 107.912C448.309 108.803 454.655 109.053 451.327 109.505C458.945 109.755 461.061 109.838 470.735 109.612C469.713 109.196 468.537 108.982 469.167 108.708C470.925 108.649 473.124 109.279 472.851 109.695L472.387 109.767C483.262 108.982 497.227 113.632 505.938 112.169L505.451 112.24L514.436 111.67C518.536 112.014 511.94 112.24 514.959 112.93C524.669 111.848 530.183 113.834 538.17 113.132C544.219 116.094 560.003 113.763 568.251 115.749L567.787 115.095C569.95 114.548 570.378 115.546 571.947 115.725C571.733 115.225 569.629 115.095 570.972 114.785C589.18 114.536 608.493 116.641 627.176 117.283C634.01 117.509 631.062 114.024 639.667 115.523L637.218 116.7C644.112 115.963 651.148 115.998 658.16 115.891C665.172 115.82 672.148 115.796 678.875 114.976C678.079 115.261 678.067 115.618 676.747 115.642C679.624 116.391 687.289 115.368 687.313 114.69C689.417 114.702 687.824 115.297 689.132 115.606C692.008 116.022 696.263 114.238 697.819 115.011C698.081 115.13 697.023 115.321 696.5 115.404C698.342 114.916 705.188 115.118 703.358 114.238C705.901 114.357 708.314 114.143 710.607 113.941C712.889 113.727 715.052 113.513 717.085 113.667C719.652 112.454 725.773 113.656 726.521 112.11C726.391 112.894 728.625 113.061 731.287 112.93C733.949 112.752 737.039 112.252 738.608 111.765C737.574 112.312 741.425 112.026 740.213 112.764C743.861 112.454 747.177 111.907 746.488 111.182C748.199 111.503 749.899 111.515 751.539 111.36C753.179 111.182 754.76 110.861 756.245 110.575C759.228 109.981 761.831 109.493 763.84 110.457C766.526 110.005 769.164 109.553 771.755 109.113C774.346 108.649 776.889 108.197 779.409 107.757C784.436 106.865 789.333 106.163 794.146 105.295C793.992 106.841 783.45 106.77 784.044 108.245C788.62 107.412 792.197 106.52 795.751 105.64C799.316 104.796 802.882 104.082 807.457 103.618C809.846 103.488 806.209 104.415 805.449 104.772C810.001 103.88 814.422 103.178 818.724 102.489C823.015 101.787 827.186 101.121 831.191 100.051C831.191 100.182 830.336 100.479 829.527 100.717C831.132 100.419 833.283 100.229 832.998 99.6582L831.465 100.122C828.767 99.6939 837.478 97.0657 837.68 96.5543C835.292 98.8139 845.75 95.5197 841.864 98.5285C842.898 98.2193 844.158 97.6841 843.837 97.3154C845.417 97.1489 845.952 97.2917 844.467 98.0409C850.124 96.6138 847.985 96.4354 853.131 95.3532C853.166 95.6505 852.156 95.9835 851.681 96.4354C854.177 95.3056 856.684 94.1996 861.094 93.5218C860.868 93.7477 861.415 93.8667 860.119 94.1402C863.851 93.2958 866.965 92.2731 870.174 91.2622C873.371 90.2038 876.663 89.1929 880.799 88.4794C878.671 90.2395 883.663 88.2059 884.34 89.1216L888.655 87.7659L886.777 87.6945C890.628 86.8145 893.825 85.1495 897.188 84.5787L894.454 85.7679C896.831 85.0663 899.208 84.3171 901.562 83.5322C900.183 83.8414 898.792 84.0792 897.414 84.3527C901.122 82.7235 896.653 83.2586 901.776 82.0218C901.276 82.224 902.227 81.9386 903.558 81.5937C904.889 81.2369 906.613 80.785 907.694 80.7374H907.682C909.429 79.7742 911.212 78.799 914.005 77.9071C914.837 77.9071 913.851 79.1439 914.385 79.1558C915.146 78.4303 917.261 77.4195 919.413 76.3492C920.482 75.7783 921.564 75.2194 922.479 74.6485C923.382 74.0539 924.131 73.495 924.571 73.0074C923.953 73.5782 924.155 74.042 924.452 74.0064L925.557 72.6387C927.233 71.8419 927.518 71.7706 927.482 72.2701C929.907 70.8311 929.325 70.7597 928.944 70.7597C928.552 70.7241 928.291 70.6765 931.143 68.9759C930.751 69.3208 931.012 69.2494 930.18 69.9629C933.021 68.191 935.398 65.9433 937.62 63.6838C938.143 63.0891 938.666 62.4945 939.177 61.8999L939.962 61.0199L940.675 60.0923C941.162 59.4857 941.637 58.8792 942.125 58.2727C942.6 57.6543 943.016 56.9883 943.479 56.358C944.371 55.811 943.67 57.0002 942.968 58.1657C942.22 59.2717 941.4 60.2825 942.362 59.6998C945.131 56.0132 947.009 51.4465 947.865 46.8917C948.756 42.3131 948.78 37.7108 948.293 33.3938L948.352 35.0112C948.02 34.7377 947.853 34.2025 947.782 33.489C947.687 32.7754 947.58 31.8835 947.52 30.8845C947.354 28.8866 946.891 26.4487 945.761 24.534C946.237 25.4973 946.891 25.6162 946.665 25.3903C945.678 22.5361 944.038 19.7889 941.661 17.2321C941.067 16.5899 940.473 15.9239 939.724 15.3531C939.367 15.0558 938.999 14.7585 938.63 14.4493L938.072 13.9973L937.454 13.6049C937.038 13.3433 936.61 13.0816 936.182 12.8081C935.754 12.5346 935.326 12.2611 934.756 12.0351C933.674 11.5832 932.438 11.3572 931.191 11.5118C931.595 11.4167 932.023 11.2859 932.462 11.2383C931.464 11.0956 930.24 11.167 929.051 11.6308C927.863 12.0827 926.734 12.9151 925.902 14.0092C925.058 15.1033 924.547 16.4829 924.476 17.8148C924.38 19.1349 924.725 20.4549 925.058 21.335C925.7 22.3696 926.781 24.2962 926.46 22.9404C927.53 25.7351 929.539 28.0898 931.999 29.6596C934.435 31.1937 937.109 32.0976 939.748 32.6089C945.048 33.6555 950.159 33.4533 955.186 33.9171C953.986 33.9409 952.31 34.1549 953.273 34.1431C956.137 34.0479 958.977 33.8339 961.818 33.703C961.129 33.3463 960.689 33.5128 958.894 33.2749C959.964 33.0133 962.365 32.7992 964.48 32.716C960.653 33.0727 964.539 33.3344 966.203 33.4176C965.918 33.3225 966.477 33.1679 966.334 33.0608C970.815 33.4414 967.047 32.2997 973.144 32.3949L972.835 32.597C975.105 32.3354 977.173 31.9073 979.621 31.7646C980.667 32.0619 977.221 32.1451 977.09 32.4781C978.813 32.3235 980.489 31.9905 982.129 31.7289C983.769 31.4197 985.362 31.17 986.942 31.1819C985.492 31.4435 983.401 31.6932 981.951 31.943C985.374 32.0262 985.754 31.8478 988.273 31.6338L988.024 31.6576C989.973 31.5029 991.91 31.3483 993.848 31.1105L992.362 31.2056C994.442 30.4445 996.617 30.1115 998.97 29.7785C1001.33 29.4575 1003.87 29.0055 1006.7 28.2801C1001.2 29.7072 1005.83 28.732 1005.46 29.1483C1006.94 28.9937 1009.19 28.7201 1008.57 28.9223C1011.24 28.1493 1013.12 28.2325 1016.86 27.0909C1017.05 27.1741 1019.74 26.4962 1019.19 26.8649C1022.66 25.9849 1018.33 26.8887 1018.59 26.6865C1021.24 25.8897 1024.43 25.3189 1027.89 24.5578C1031.32 23.7253 1035.09 22.9047 1038.84 21.5847C1045.38 19.5868 1046.5 18.9327 1052.52 16.9704C1054.59 16.4234 1050.92 17.7078 1050.92 17.7078C1054.25 16.804 1056.67 15.8407 1059.74 14.7585C1059.13 15.0201 1059.78 14.8298 1060.74 14.5563C1063.2 13.6763 1062.32 13.7833 1065.56 12.6535C1065.03 12.9032 1064.35 13.2481 1063.18 13.7476C1066.04 12.5822 1068.88 11.5118 1071.81 10.2631C1072.61 9.98961 1070.08 11.1075 1069.03 11.5237C1072.35 10.1918 1077.59 7.95601 1078.59 7.48032L1076.45 8.32468C1077.66 7.83709 1077.09 8.1344 1076.21 8.51495C1073.4 9.73987 1072.11 10.168 1071.93 10.1918L1074.02 9.32364C1071.81 10.061 1065.56 12.6535 1061.27 14.2352C1061.85 13.9617 1062.41 13.6644 1062.98 13.3908C1061.54 13.9973 1060.08 14.5325 1058.62 15.1033C1057.66 15.365 1056.97 15.4601 1059.1 14.7109C1055.96 15.6385 1056.39 15.7217 1053.68 16.4829C1053.38 16.5661 1053.51 16.5066 1053.77 16.3996C1052.77 16.7802 1051.75 17.0775 1050.75 17.4224C1051.33 17.1845 1050.18 17.3986 1052.07 16.8634C1046.55 18.3737 1043.3 19.7652 1041.14 20.0744L1041.59 19.9317C1033.95 22.1317 1040.91 20.3717 1035.23 22.2388L1031.18 22.5718L1030.49 23.0237C1029.69 23.214 1028.11 23.5826 1028.37 23.3923C1025.45 24.3081 1028.91 23.3923 1027.23 23.987C1023.32 24.5816 1016.63 26.4844 1015.64 26.0919C1014.3 26.6033 1019.39 25.5686 1015.29 26.5319C1014.65 26.3654 1013.45 26.6152 1011.97 26.9601C1010.5 27.3049 1008.73 27.7568 1006.92 27.8877C1007.97 27.4001 1011.35 27.0195 1007.75 27.3168C1005.68 28.1612 1000.81 28.3634 997.817 28.8034C997.734 29.2553 991.304 29.9332 986.241 30.5516C986.396 30.4326 984.007 30.6705 980.976 30.837C977.946 30.9797 974.297 31.2294 971.92 31.2413L972.051 31.1462C971.171 31.7289 966.275 31.9192 962.721 32.1451C962.852 31.7765 963.482 31.6694 965.407 31.4078C964.29 31.4673 963.185 31.4911 962.067 31.5148C961.283 31.717 960.249 31.8478 958.074 31.9549L958.906 31.4911C954.473 31.5862 949.921 32.2997 944.371 31.277C944.181 31.4792 945.25 31.943 945.654 32.276C946.047 32.5852 945.726 32.9181 942.671 32.6208C942.481 32.3354 942.339 31.8954 943.919 32.0381C943.408 32.0024 942.065 31.9668 941.067 31.6338C941.887 31.6694 942.695 31.6694 943.503 31.6576C942.243 31.3602 941.911 31.3721 941.625 31.4197C941.34 31.4554 941.103 31.5743 940.104 31.2889C940.223 30.9678 938.702 30.6467 939.07 30.4445C939.569 30.5753 940.746 31.0629 941.542 31.0748C939.284 30.5872 936.776 29.4099 936.099 28.7677C936.194 29.0293 935.897 29.2434 934.399 28.518C932.522 27.4833 932.391 27.0909 932.343 26.9125C932.331 26.7103 932.462 26.6509 931.642 25.7946C931.191 25.5568 930.561 24.9146 930.05 24.3318C929.527 23.7491 929.111 23.2258 928.849 23.3567C928.196 22.322 928.35 21.9771 928.279 21.5014C928.005 21.0733 927.578 20.2409 927.34 19.3727C927.09 18.564 927.09 17.6245 927.34 16.8634C927.578 16.1023 927.97 15.4958 928.172 15.1866C928.362 14.8536 928.326 14.7347 927.839 15.0558C927.72 15.1747 927.578 15.2817 927.494 15.4363C927.53 15.3412 927.601 15.2579 927.673 15.1628C928.576 13.7595 930.335 12.8438 932.082 12.9389C932.961 12.9984 933.805 13.2719 934.566 13.7357L936.86 15.4363C939.771 17.9218 941.887 21.1209 943.539 24.3437L943.337 24.427C943.884 25.3665 944.264 26.4487 944.739 27.4952C945.084 28.6012 945.464 29.7072 945.738 30.8132C945.952 31.9311 946.272 32.9895 946.403 33.9885C946.546 34.9874 946.748 35.9031 946.89 36.688C946.89 38.0081 946.486 39.7563 946.213 39.1973C946.106 42.4796 946.51 43.0029 944.894 47.522C945.143 45.869 944.977 46.1306 944.918 46.2495C944.882 46.309 944.87 46.3328 944.953 46.0711C945.048 45.8214 945.191 45.2624 945.393 44.1565C945.274 44.6797 945.167 45.1435 945.048 45.5716C944.894 45.9879 944.763 46.3684 944.632 46.7252C944.359 47.4388 944.193 48.069 943.919 48.6756C943.658 49.2821 943.42 49.9124 943.182 50.6735C942.968 51.4465 942.564 52.2552 942.22 53.3493C942.279 52.5049 941.828 53.1709 941.079 54.1342C940.698 54.6218 940.294 55.2045 939.926 55.7753C939.557 56.3462 939.106 56.8694 938.833 57.2975L939.95 56.2629L940.936 55.1569C940.639 55.6326 940.378 56.1083 940.057 56.5483C939.712 56.9764 939.391 57.3808 939.058 57.797C938.726 58.2014 938.393 58.5938 938.072 58.9863C937.739 59.3668 937.359 59.7236 937.002 60.0804L937.145 58.7365C933.936 61.6383 931.202 64.3616 928.374 66.7877C926.983 68.0245 925.498 69.0472 924.012 69.9748C922.467 70.8073 920.91 71.5565 919.187 71.8657C918.272 72.6506 919.401 72.2225 920.565 71.7825C921.706 71.3068 922.883 70.8073 922.134 71.6279C918.438 73.495 913.993 74.0064 912.805 74.4583C910.119 75.2669 909.001 75.9924 907.837 76.7654C906.696 77.5503 905.484 78.3233 902.596 79.0725C903.416 79.1558 904.378 79.7623 900.183 81.3559C896.118 82.4024 894.882 81.4391 897.331 80.4758C898.281 80.1785 898.769 80.1547 898.769 80.2617C900.028 79.786 901.669 79.132 899.993 79.2747L899.565 79.7385C897.497 80.0001 891.982 81.4986 893.135 80.6304C890.176 81.7245 891.971 81.4986 894.264 81.0704C888.987 81.9861 886.147 83.0684 880.692 83.996C881.595 83.9841 882.474 84.1743 881.619 84.3765C873.632 85.7917 878.291 85.8036 872.967 87.195C869.805 87.3853 873.787 85.7441 868.486 87.3972C865.099 87.7183 867.595 86.648 868.843 86.1009C864.053 87.7659 859.537 87.5399 856.708 87.9799L859.24 87.1831C857.718 87.6588 856.447 87.9086 855.151 88.1702L856.768 88.5626C855.223 88.7529 853.927 89.0145 853.903 88.7172C852.418 89.4902 855.341 89.6211 852.346 90.8698C850.255 90.9649 846.214 92.4396 845.322 91.6428C851.812 90.8103 844.443 90.8579 849.839 89.7043C848.817 90.0373 847.533 90.2276 845.976 90.3941C845.727 90.3346 846.154 90.1681 846.57 90.0373C840.271 90.287 843.944 91.5833 837.573 92.7012C838.287 92.0233 835.921 91.952 834.899 92.2493C837.466 91.8093 836.29 92.9153 833.996 93.7477C829.836 94.0688 829.611 94.8537 827.448 95.1391L829.932 94.9489C829.195 95.6267 827.127 95.8646 824.286 96.483C823.977 96.1024 826.841 95.7932 825.784 95.7575C822.753 97.2084 818.439 95.8765 814.125 97.2084C812.021 97.1489 813.768 96.2094 811.926 96.2332C807.065 97.696 806.435 96.1976 801.289 97.5057C802.893 98.0647 803.143 97.8387 799.554 99.0636L808.087 97.3987L802.715 99.2182C805.318 98.8852 808.135 98.0171 809.703 97.9457C807.16 98.8971 807.398 98.6831 808.741 99.135C805.021 98.4928 801.776 100.729 797.557 100.526L797.438 98.6355C794.301 98.6117 791.591 99.2539 788.655 99.8723C785.708 100.491 782.535 101.18 778.494 101.395L781.12 101.442C780.134 102.322 776.164 102.108 773.597 102.703C773.776 102.037 772.124 101.977 770.971 101.704C771.161 102.191 765.076 102.203 764.47 103.571L760.785 103.048C754.249 103.25 753.536 105.664 747.237 105.89C749.067 105.034 746.179 104.772 750.339 103.951C748.247 104.094 746.357 104.118 746.357 104.57C745.109 104.249 740.629 105.89 738.656 105.402C737.8 105.759 737.562 106.473 735.197 106.591C734.936 106.473 735.185 106.259 735.185 106.259C735.197 106.592 731.537 106.984 733.64 107.567C730.348 106.806 725.832 107.032 721.435 107.376C717.037 107.698 712.735 108.078 709.883 107.293C705.319 107.709 699.816 108.149 695.656 108.375C695.918 108.161 695.656 108.03 696.441 108.078C690.688 107.662 692.994 110.219 686.434 109.684C683.058 108.661 689.88 108.994 687.789 108.625C686.814 106.389 679.921 109.148 675.5 107.935L676.557 107.769C674.87 107.424 672.826 107.697 670.52 108.042C668.214 108.363 665.635 108.768 662.89 108.72C662.89 108.72 663.151 108.518 662.914 108.375C659.182 109.565 652.075 110.124 646.798 110.421C648.438 109.517 649.198 109.945 648.188 109.029C645.823 109.16 648.889 110.492 644.171 110.754C642.626 110.266 639.227 109.838 638.763 108.863L643.22 108.803C640.938 107.543 637.456 108.851 635.103 108.637L635.4 108.09C628.578 108.292 628.471 109.636 621.138 109.481L621.899 109.909C617.87 111.253 618.547 109.101 614.53 110.1L613.342 108.685C610.691 109.029 604.048 109.886 599.294 110.076C602.004 109.077 607.566 108.661 611.012 108.09C608.386 108.042 602.099 108.03 600.72 108.696C601.778 108.578 603.121 108.256 604.155 108.494C600.922 109.541 596.667 110.005 591.438 109.886C592.424 107.198 577.818 108.839 574.086 106.627C564.816 107.365 555.76 105.628 544.992 105.39C548.736 107.65 541.842 105.331 542.425 107.531C539.905 107.567 538.954 107.495 538.74 107.353L531.194 105.759C529.423 105.057 533.594 105.378 533.392 104.879C527.913 104.498 531.122 103.88 527.521 103.155C528.234 103.963 525.56 104.177 522.446 103.749L526.808 104.938C519.083 105.759 520.248 102.845 512.463 103.654L514.935 103.083C510.954 103.321 500.293 102.429 496.323 103.975C495.634 103.702 494.731 103.071 496.49 102.988C487.018 102.322 475.275 103.821 467.954 102.429L468.703 101.942C466.92 102.013 465.577 102.762 463.379 102.144C463.509 101.942 464.115 101.668 463.295 101.597C462.345 101.728 458.541 102.275 456.212 101.858L458.244 101.371C449.022 100.265 443.959 102.096 436.186 102.072C436.281 100.574 429.019 99.7534 425.383 99.349L425.525 99.1469C414.746 98.4928 407.139 99.5512 397.12 99.7058C390.988 97.8625 376.132 98.2074 366.196 97.0062C367.717 97.3036 365.911 98.1003 364.128 98.1836C361.799 97.8268 357.627 98.9447 358.043 97.6722L358.875 97.7198C357.152 96.4116 352.326 96.6019 348.571 96.4473L347.893 98.0766C338.136 95.4364 322.115 98.2787 316.803 96.1381C314.426 96.4949 311.478 96.4473 309.125 96.8041L309.268 95.9597C302.695 95.6624 299.403 95.5673 291.274 95.71L292.938 95.1391C288.35 95.0678 287.126 97.4344 282.895 97.4938L281.623 96.2927C273.625 96.3403 265.519 95.3175 257.616 96.5305C257.747 96.364 257.972 96.0311 259.268 95.9597C255.5 95.9835 244.685 95.4483 246.076 96.9587C245.969 95.9597 237.816 97.0538 233.502 97.6246L234.155 96.8873C230.53 97.9338 230.423 98.1598 225.337 98.6117C224.124 98.5641 224.255 98.0884 225.871 98.2074C221.831 98.0052 222.77 98.9923 217.873 98.8496L219.668 98.3263C215.532 98.469 215.864 98.7068 213.618 99.3371C211.039 99.7296 205.774 99.6701 205.12 99.1112C204.586 99.5274 202.363 100.193 199.915 100.205C199.57 100.003 200.45 99.8009 200.889 99.6939C193.937 99.8485 190.692 101.371 185.891 101.299C185.772 101.109 185.451 101.038 185.047 101.026C190.526 100.372 194.947 100.003 194.543 100.086C194.495 99.468 190.039 99.8604 193.497 98.6593C189.967 99.4917 183.989 101.109 179.663 101.454C179.449 101.43 179.235 101.406 179.069 101.335L179.509 101.204C178.51 101.287 177.619 101.466 176.799 101.68C175.408 101.775 174.529 101.87 173.21 102.061C172.924 101.87 171.641 102.013 170.167 102.239C168.693 102.512 167.018 102.822 165.912 103.012C166.198 103.571 163.31 103.975 166.079 103.987C165.722 104.011 166.483 103.844 167.933 103.571C168.254 103.499 168.646 103.416 168.86 103.345C168.824 103.369 168.777 103.392 168.717 103.428C170.155 103.143 172.033 102.857 174.172 102.512C172.485 103.095 170.714 103.595 168.242 103.702C167.184 104.272 166.007 104.867 165.354 105.176C163.785 105.034 161.551 105.153 159.59 105.248C157.629 105.367 155.953 105.509 155.501 105.343C148.929 107.15 139.968 109.351 136.176 111.61C134.37 112.276 133.978 111.967 133.241 112.026C134.275 111.61 135.558 111.253 136.093 110.944C134.287 111.634 131.529 112.407 129.2 113.287C126.871 114.167 124.91 114.988 124.577 115.439C119.894 116.736 126.966 113.989 120.69 116.26L121.475 115.784C120.679 115.998 119.906 116.212 119.145 116.438C118.397 116.688 117.672 116.95 116.97 117.223C115.556 117.758 114.201 118.306 112.894 118.876C110.279 120.006 107.807 121.148 105.383 122.48C102.934 123.764 100.439 125.037 97.7051 126.309C95.0191 127.689 92.0954 129.068 88.7201 130.448C89.6471 130.055 90.1107 129.853 90.3365 129.841C82.8252 133.361 75.4804 137.761 68.3138 142.328C66.4836 143.41 64.784 144.695 63.0132 145.86C61.2542 147.049 59.5071 148.227 57.7601 149.404C54.3491 151.854 50.9619 154.28 47.646 156.67C43.9855 159.536 43.724 160.024 41.6204 161.927L40.6934 162.379L38.9107 164.02L37.1874 165.732C34.6915 168.087 32.3502 169.93 29.9376 172.047C27.5844 174.212 25.1005 176.59 22.0936 179.73L22.9612 179.016C20.7506 181.228 16.2343 186.259 16.5077 185.807C16.3057 186.056 15.8659 186.604 15.0102 187.472L14.9032 187.507C13.2275 189.434 11.6349 191.444 9.98291 193.394C8.04567 195.654 8.17641 195.451 8.08133 195.523C8.01002 195.606 7.61782 195.868 5.02692 199.352C3.161 201.826 0.938527 204.787 0.23732 205.715C1.02172 204.692 2.19832 203.17 2.32906 203.003L0.522557 205.334C0.213551 205.774 -1.2364 207.51 3.3155 201.885L6.44122 197.937C6.79777 197.521 7.11866 197.093 7.49897 196.7C6.59572 197.782 5.72813 198.9 4.83676 199.994C6.36991 198.139 7.28504 196.914 8.41411 195.642C8.69934 195.356 9.18662 194.833 9.85217 194.096L13.0373 190.314C13.4771 189.898 11.6468 192.038 13.8693 189.577C15.3549 187.805 12.3005 191.158 14.8082 188.257C16.5315 186.568 16.0917 187.127 18.0052 185.046C18.3142 184.796 17.922 185.248 17.1495 186.056C18.8609 184.213 21.7727 181.264 22.5927 180.253C24.5062 178.612 28.7372 174.39 28.7253 174.747C28.9868 174.45 29.7593 173.665 30.6745 172.737C31.5896 171.821 32.7187 170.846 33.5744 170.073C30.615 173.082 40.1348 164.448 39.5643 165.506C40.6459 164.377 42.8683 162.64 45.2928 160.69C46.517 159.727 47.7887 158.716 49.0366 157.729C50.3201 156.789 51.5562 155.874 52.6377 155.017C52.4119 155.231 51.9602 155.636 51.5443 155.897C54.0995 154.125 54.9077 153.709 56.5835 152.627C56.6429 152.365 57.6056 151.462 58.8772 150.51C60.1489 149.559 61.6583 148.465 62.6685 147.632C66.0913 145.896 61.0165 149.309 62.2288 148.988C61.8841 148.809 67.577 145.111 66.329 145.551C68.9081 144.171 68.5396 144.338 70.0134 143.886C70.1441 143.137 72.2952 142.435 74.1849 140.889C77.9762 139.034 75.3734 140.77 79.3311 138.38C80.3532 137.952 79.9847 138.261 79.3549 138.689C78.725 139.093 77.8574 139.652 77.8574 139.652L77.8336 139.747ZM181.256 105.2V105.212C180.317 105.343 179.52 105.462 179.009 105.533C179.473 105.462 180.127 105.367 181.256 105.2ZM190.455 104.201C189.325 104.284 187.935 104.403 186.461 104.582C186.117 104.403 186.437 104.142 187.364 104.047C186.877 104.237 189.064 104.142 190.455 104.201ZM170.393 102.441C171.843 102.12 172.354 102.168 172.568 102.263C171.879 102.382 171.07 102.524 170.024 102.738C169.989 102.762 169.906 102.81 169.858 102.845C169.977 102.715 170.12 102.572 170.393 102.453V102.441Z" fill="#F3BB28"/>
<path d="M167.897 103.666C167.683 103.714 167.576 103.761 167.303 103.809C167.612 103.809 167.897 103.809 168.194 103.797C168.36 103.702 168.527 103.607 168.681 103.523C168.42 103.571 168.147 103.618 167.897 103.666Z" fill="#F3BB28"/>
<path d="M927.78 15.1271L927.899 15.0082C927.792 15.1033 927.685 15.1866 927.602 15.2223C927.697 15.1509 927.709 15.1628 927.78 15.1271Z" fill="#F3BB28"/>
<path d="M318.36 103.892L318.348 103.678L317.54 103.844L318.36 103.892Z" fill="#F3BB28"/>
<path d="M966.156 33.4652C966.251 33.5009 966.453 33.5246 966.834 33.5365C966.798 33.5128 966.513 33.489 966.156 33.4652Z" fill="#F3BB28"/>
<path d="M988.238 31.6694L991.364 31.4435C990.009 31.5267 989.023 31.5981 988.238 31.6694Z" fill="#F3BB28"/>
<path d="M1005.12 29.3861C1005.32 29.291 1005.38 29.2434 1005.42 29.1839C1005.41 29.1839 1005.4 29.1839 1005.39 29.1839L1005.12 29.3742V29.3861Z" fill="#F3BB28"/>
<path d="M829.54 100.752C829.314 100.788 829.088 100.836 828.898 100.895C827.401 101.311 828.423 101.073 829.54 100.752Z" fill="#F3BB28"/>
<path d="M907.695 80.785C906.922 81.1893 906.162 81.5818 905.342 81.9505C906.732 81.5461 907.802 81.2012 907.695 80.785Z" fill="#F3BB28"/>
<path d="M740.236 112.823C740.236 112.823 740.236 112.823 740.236 112.811C740.046 112.823 739.88 112.835 739.678 112.859L740.224 112.835L740.236 112.823Z" fill="#F3BB28"/>
<path d="M901.74 83.0802C903.166 82.7948 904.307 82.4262 905.341 81.9505C904.2 82.2953 902.846 82.6164 901.74 83.0802Z" fill="#F3BB28"/>
<path d="M1075.81 8.83605L1076.57 8.52685C1076.57 8.52685 1076.59 8.50306 1076.65 8.47928L1075.81 8.83605Z" fill="#F3BB28"/>
<path d="M1076.65 8.47927L1077.48 8.1225C1077.1 8.2771 1076.76 8.41981 1076.65 8.47927Z" fill="#F3BB28"/>
<path d="M1079.24 7.3495C1078.66 7.62303 1078.08 7.87277 1077.49 8.12251C1078.11 7.87277 1078.86 7.55167 1079.24 7.3495Z" fill="#F3BB28"/>
<path d="M1054.73 16.7802L1054.51 16.9229C1054.64 16.8634 1054.72 16.8158 1054.73 16.7802Z" fill="#F3BB28"/>
<path d="M1048.23 18.9208C1049.79 18.4332 1052.19 17.8386 1054.33 17.0418L1054.52 16.9229C1053.55 17.4105 1049.68 18.3262 1048.25 18.9208H1048.23Z" fill="#F3BB28"/>
<path d="M1020.38 25.0929L1025.98 23.9632C1024.99 24.0702 1023.67 24.2129 1026.2 23.6421C1019.08 24.8313 1027.71 23.5588 1020.38 25.0929Z" fill="#F3BB28"/>
<path d="M1002.9 28.066C1005.92 27.5309 1002.83 27.8877 1002.99 27.7806C1001.09 28.1969 1000.62 28.3039 1002.9 28.066Z" fill="#F3BB28"/>
<path d="M945.833 40.4817L945.274 40.1487C945.155 42.3845 945.5 40.1844 945.833 40.4817Z" fill="#F3BB28"/>
<path d="M938.452 63.5292L940.366 62.0307C940.484 61.6264 940.58 61.2101 940.663 60.782C939.985 61.7453 939.189 62.6015 938.452 63.5292Z" fill="#F3BB28"/>
<path d="M924.346 68.7618L925.142 68.1672L923.585 69.2613L921.969 70.284C922.765 69.7964 923.573 69.3207 924.334 68.7737L924.346 68.7618Z" fill="#F3BB28"/>
<path d="M714.768 106.056L715.54 107.091C717.133 106.806 717.394 105.581 714.768 106.056Z" fill="#F3BB28"/>
<path d="M621.971 108.934C620.96 108.363 618.358 107.983 616.741 108.518C618.833 108.613 620.913 109.065 621.971 108.934Z" fill="#F3BB28"/>
<path d="M343.235 96.8041L345.113 96.5186L341.571 96.7089L343.235 96.8041Z" fill="#F3BB28"/>
</g>
<defs>
<clipPath id="clip0_2003_178">
<rect width="1095" height="206" fill="white"/>
</clipPath>
</defs>
</svg>
