<svg width="235" height="145" viewBox="0 0 235 145" fill="none" xmlns="http://www.w3.org/2000/svg">
<g clip-path="url(#clip0_2003_230)">
<path d="M33.1903 118.65C33.2003 118.72 33.1904 118.68 33.1504 118.49L33.1104 118.36L33.1903 118.65Z" fill="#F3BB28"/>
<path d="M32.9607 117.37C32.9007 117.15 32.7807 116.9 32.7607 117.06C32.8707 117.27 32.8707 117.33 32.9707 117.55C33.0107 117.74 33.0307 117.88 33.0107 117.85C33.0307 117.94 33.0607 118.04 33.1107 118.24C33.0707 117.99 33.0307 117.67 32.9307 117.35C32.9307 117.28 32.9507 117.35 32.9707 117.35L32.9607 117.37Z" fill="#F3BB28"/>
<path d="M31.9509 98.5199L31.8809 98.6399C31.8809 98.6399 31.9409 98.5599 31.9509 98.5199Z" fill="#F3BB28"/>
<path d="M33.21 86.9599C33.21 87.0499 33.29 87.0899 33.36 87.1099C33.32 87.0199 33.28 86.9499 33.21 86.9599Z" fill="#F3BB28"/>
<path d="M34.3405 85.1199C34.3405 85.1199 34.2905 85.1899 34.2705 85.2299C34.3505 85.1999 34.4005 85.1599 34.3405 85.1199Z" fill="#F3BB28"/>
<path d="M31.9502 98.5199L32.1302 98.2099C31.9402 98.1899 31.9902 98.3699 31.9502 98.5199Z" fill="#F3BB28"/>
<path d="M32.1602 114.85C32.1802 114.91 32.2102 114.96 32.2402 115.01L32.1902 114.86H32.1702L32.1602 114.85Z" fill="#F3BB28"/>
<path d="M32.3301 103.64V103.73C32.3801 103.75 32.4401 103.78 32.5101 103.8L32.3301 103.64Z" fill="#F3BB28"/>
<path d="M32.46 107.58C32.47 107.49 32.17 107.49 32.04 107.46C32.17 107.5 32.23 107.56 32.26 107.64C32.32 107.64 32.38 107.62 32.47 107.58H32.46Z" fill="#F3BB28"/>
<path d="M32.5303 113.89L32.5603 114C32.5603 114 32.5403 113.93 32.5303 113.89Z" fill="#F3BB28"/>
<path d="M32.4404 100.82C32.5104 100.82 32.5604 100.8 32.6004 100.78C32.5404 100.78 32.4904 100.8 32.4404 100.82Z" fill="#F3BB28"/>
<path d="M92.6699 21.33V21.35C92.6899 21.34 92.6999 21.33 92.6699 21.33Z" fill="#F3BB28"/>
<path d="M35.8901 81.7599C35.8901 81.7599 35.8901 81.7599 35.8701 81.7699C35.9301 81.8699 35.9301 81.8199 35.8901 81.7599Z" fill="#F3BB28"/>
<path d="M47.4903 51.9899C46.6603 51.8699 47.0403 50.9599 46.0303 50.9399C46.3303 51.0899 46.8203 52.0799 47.4903 51.9899Z" fill="#F3BB28"/>
<path d="M32.1504 114.75L32.1104 114.59C32.1204 114.66 32.1404 114.71 32.1504 114.75Z" fill="#F3BB28"/>
<path d="M37.5004 73.7899C37.3604 73.7699 37.2504 73.7699 37.1504 73.7899C37.2304 73.8099 37.3204 73.8099 37.5004 73.7899Z" fill="#F3BB28"/>
<path d="M34.9307 79.4599L35.0607 79.3299C34.9807 79.3799 34.9507 79.4199 34.9307 79.4599Z" fill="#F3BB28"/>
<path d="M37.3906 70.4699C37.4706 70.4099 37.5906 70.4199 37.5206 70.2799C37.4806 70.2799 37.4506 70.2799 37.4206 70.2799C37.5106 70.3499 37.5406 70.4199 37.4006 70.4699H37.3906Z" fill="#F3BB28"/>
<path d="M38.4905 67.3499C38.4305 67.3499 38.3705 67.3499 38.3105 67.3499C38.3105 67.3899 38.3105 67.4299 38.3105 67.4599L38.4805 67.3399L38.4905 67.3499Z" fill="#F3BB28"/>
<path d="M82.1006 21.83C82.2006 21.92 82.2706 22.0299 82.3406 22.1399C82.2306 21.8899 82.7206 21.72 82.1006 21.83Z" fill="#F3BB28"/>
<path d="M32.2206 114.84C32.2206 114.84 32.1606 114.8 32.1406 114.75L32.1806 114.86C32.1806 114.86 32.2206 114.86 32.2206 114.84Z" fill="#F3BB28"/>
<path d="M31.4307 68.4499L31.6907 67.9399C31.5807 68.0699 31.4807 68.2599 31.4307 68.4499Z" fill="#F3BB28"/>
<path d="M58.7699 31.2899L58.8299 31.1499C58.7799 31.1599 58.7499 31.2099 58.7699 31.2899Z" fill="#F3BB28"/>
<path d="M32.0908 66.2999C32.3908 66.2999 32.5808 66.2499 32.7208 66.1799C32.6708 66.1399 32.6308 66.0899 32.5408 66.0499L32.0908 66.2999Z" fill="#F3BB28"/>
<path d="M85.8404 20.9699C85.3004 20.9699 85.6504 21.3699 85.5804 21.5999C84.9704 21.7599 85.2404 21.3199 84.9804 21.1199C84.6004 21.2299 84.3704 21.6799 84.0804 21.6999C84.0404 21.6299 83.9804 21.6099 84.0304 21.5099C83.6904 21.9199 82.8004 21.6899 82.4304 22.2399C82.3804 22.1999 82.3604 22.1699 82.3404 22.1299C82.4704 22.3599 82.5404 22.5999 82.5604 22.7799C82.3304 22.8299 82.2104 23.1699 82.0504 22.8699C82.1904 22.8499 82.1704 22.7199 82.2204 22.6099L82.0104 22.7899C81.6804 22.3699 82.3004 22.5699 82.2204 22.2299C81.7804 22.4499 81.3304 22.9499 80.9304 22.8799C80.7304 22.4199 81.7404 22.5699 81.1504 22.2399L81.7604 22.3199C81.1504 21.6699 82.1204 22.3199 81.5304 21.6099C80.7404 21.5899 80.7304 21.9299 79.9604 21.9599C79.8704 22.2699 80.1204 22.3499 80.0304 22.6599C79.1404 23.4199 78.8404 21.5899 78.2604 22.4399C78.1604 22.8299 78.3004 23.5199 77.6404 23.2999V22.6499C76.8904 22.7499 77.5104 23.6199 76.6304 23.3999C76.6804 23.1199 77.1204 23.0599 76.9904 23.0099C76.3404 22.6399 76.7604 23.4399 76.3904 23.5399L76.1204 23.0099C75.4004 23.3199 74.7304 23.9999 73.9504 24.3899C73.9304 24.1999 74.0004 23.9699 73.7304 23.8499C73.2604 24.1699 72.7004 24.3199 72.1004 24.4099C71.5204 24.5199 70.8904 24.5499 70.3104 24.5499L70.1804 25.2499C70.0904 25.2799 69.9004 25.0699 69.9504 24.9199C69.4604 24.8699 70.0904 25.2799 70.0104 25.5699C69.8104 25.6999 69.5704 25.3699 69.6304 25.1499C69.4004 25.5199 69.0404 25.9699 68.6204 26.2999C68.2004 26.6199 67.7404 26.8699 67.2304 26.7299L67.2704 26.4899C66.6004 26.5199 67.3004 27.9699 66.5204 27.6799L66.5604 27.5299C65.9104 27.6999 65.3404 28.0699 64.7704 28.3599C64.2004 28.6599 63.6404 28.8899 62.9204 28.6899C63.3004 29.6499 61.5504 28.9599 62.2704 30.2099C61.2404 29.9899 61.2804 29.6599 60.0904 29.7999C59.8104 29.8999 60.2704 30.7899 60.0804 31.1199L59.6204 30.4899L59.7104 31.4199L58.9504 30.7999L58.8004 31.1499C58.9404 31.1099 59.2404 31.2799 59.3504 31.4799C59.1504 32.0599 58.0104 31.7299 57.7404 31.4099L57.1604 32.6299C56.9804 32.3599 57.0804 32.1499 57.0904 31.8999C57.0604 32.9199 56.4604 31.2899 56.4504 32.2299C56.6304 32.3299 56.7204 32.6399 56.8104 32.7699C56.2804 32.5599 55.7404 32.9699 55.4804 33.4399L55.1904 32.9399C54.3804 33.3799 53.8604 34.3199 53.0604 34.9399C53.5304 34.9199 54.1304 35.7299 53.9704 35.9799L53.2904 35.3899C53.5204 35.9299 53.7404 35.4399 53.9104 36.1999C53.5704 36.3699 53.0404 35.6099 53.0104 35.2499L52.8804 35.7899C52.6804 35.6099 52.6604 35.4299 52.4504 35.1599C52.6904 35.6999 51.2404 35.0199 51.7004 35.9199L51.5004 35.7399C50.7304 36.4099 50.6104 36.9499 50.0304 37.5299C50.5804 38.1099 50.2104 38.1899 50.5004 38.8199C49.9104 39.0699 48.9804 39.1099 48.5304 39.6799C48.4704 40.3199 48.9304 40.2499 49.1204 40.7499C48.5504 40.2799 48.1004 40.8399 47.9704 40.2099C47.4704 40.9299 47.2704 41.0899 47.0304 42.3299C47.3404 42.4399 47.5204 42.4199 47.6704 42.6399C47.6404 42.8699 47.1404 42.7799 46.8904 42.5199L46.8704 42.4299C46.9704 44.0799 43.3104 43.2099 43.9304 44.9799L43.9004 44.8899L43.9504 46.2099C43.5704 46.5099 43.6604 45.6399 43.0704 45.6399C43.4404 47.2799 41.8804 46.9399 42.0404 48.1699C39.7404 47.4799 40.8204 50.3499 39.0804 50.3799L39.5604 50.6099C39.8704 51.0899 39.1404 50.6999 38.9404 50.7999C39.3104 50.9899 39.4904 50.8199 39.6604 51.0999C39.3504 52.1399 38.7104 52.9799 37.8904 53.7699C37.0904 54.5599 36.1104 55.2899 35.4604 56.1699C35.0004 56.8299 37.7404 57.7799 36.1804 58.1099L35.4104 57.4299C35.6104 58.3999 35.2504 59.1199 34.9004 59.8399C34.5704 60.5699 34.2304 61.2899 34.4004 62.1899C34.2304 62.0199 33.9604 61.9099 34.0204 61.7699C33.2504 61.8099 33.5504 62.8799 34.0804 63.0899C33.9304 63.2899 33.5804 62.9499 33.2504 62.9799C32.7404 63.1399 33.7904 64.0599 33.0904 63.9799C32.9704 63.9699 32.9104 63.8099 32.8804 63.7399C33.1304 64.0599 32.4904 64.6499 33.3104 64.7399C32.7704 65.1499 33.3004 65.8999 32.7104 66.1799C33.4604 66.7499 32.0004 66.9799 33.1604 67.4599C31.9404 67.0099 31.8504 68.0899 32.3504 68.6199C32.0104 68.3899 31.8804 68.7999 31.4104 68.5099C31.3204 68.9199 31.4504 69.3599 32.0904 69.4799C30.4304 69.7799 32.8604 71.2899 30.8904 71.1699C31.2004 72.5399 31.4604 73.7599 31.4804 74.8799C30.3004 74.5599 31.6204 73.6699 30.3604 73.3999C30.6404 74.5599 31.5204 75.3699 31.0204 76.2999C30.8004 76.5199 30.5404 76.0399 30.3604 75.9099C30.6304 77.0299 29.9304 77.8799 30.4004 78.9099C30.2904 78.8899 30.1904 78.7699 30.1204 78.6599C30.1204 78.8499 29.8904 79.0499 30.4104 79.1199L30.3004 78.9199C31.1104 78.7799 31.7504 79.9199 32.1404 80.0199C30.7104 79.4499 31.6104 80.8399 29.8304 80.0199C29.9104 80.1599 30.1304 80.3499 30.4804 80.3799C30.3504 80.5399 30.1404 80.5599 29.7804 80.3099C29.9604 80.9999 30.5504 80.8599 30.4604 81.4399C30.2104 81.3999 30.1304 81.2699 29.8504 81.1599C30.3004 81.5399 30.7304 81.8999 30.4704 82.3599C30.3304 82.3099 30.1304 82.3399 30.1504 82.1899C30.1304 83.0499 31.2204 83.7999 30.6604 84.6499C29.6704 84.2499 30.2904 84.9199 29.4004 84.8599L29.6304 85.3899L30.0704 85.2399C30.0304 85.6799 30.6304 86.1299 30.3104 86.4699L29.9804 86.1099L30.0804 86.9399L30.4404 86.5099C30.8504 86.9999 31.5304 86.5799 31.2404 87.1299C31.1704 87.0099 31.1904 87.5599 30.6704 87.7299C30.9204 87.9699 31.1804 88.2099 30.9404 88.5099C30.6704 88.5699 30.0304 88.3599 29.8504 88.3999C30.5204 88.6699 29.9704 89.4299 30.6904 89.7599C30.5204 89.6599 30.1004 89.6199 30.0104 89.6399L30.5504 89.8599C30.3704 90.0499 30.2804 90.0699 29.9504 90.0099C29.8304 90.6099 30.9704 89.8899 30.5104 90.5799C30.4704 90.5199 30.3904 90.5399 30.3104 90.4199C30.0604 91.1299 30.5904 91.8299 30.3104 92.4799C29.5404 92.6399 30.1404 91.8899 29.4804 92.0799C29.6004 93.0499 30.3504 94.0999 30.1904 95.0199L30.2704 94.8499C31.2804 94.9999 29.7804 95.5299 30.2604 95.9999C30.1904 95.8799 29.7104 95.8399 29.8204 95.8699C29.6804 96.4999 30.0804 97.1699 30.4004 98.1199L30.1604 97.9999C29.9704 98.3699 30.1004 98.9799 30.0204 99.3799C30.2504 99.4999 30.2304 99.7299 30.5404 99.5799C29.9404 100.21 30.1604 100.8 30.3704 101.37C30.5804 101.94 30.8204 102.48 30.4204 103.05C30.4104 102.92 30.2204 102.75 30.2304 102.85L30.5004 103.77C30.8104 103.68 30.6804 103.64 30.9104 103.43C31.1104 103.54 31.2704 103.79 31.2804 104.02C31.0504 103.62 30.7804 104.05 30.6304 104.24C30.7204 104.2 30.8304 104.26 30.9204 104.24C30.4304 104.76 31.5304 104.28 31.2204 104.97L31.0604 104.95C31.1604 105.19 31.3704 105.41 31.3504 105.68C31.0304 105.82 31.1804 105.43 30.9104 105.43C30.9704 105.8 31.5704 106.12 31.3004 106.49C31.1904 106.34 31.1704 106.11 31.0704 105.96C30.7304 106.36 30.8504 106.39 30.8204 106.67V106.64L30.7604 107.29L30.8304 107.12C31.6504 107.52 31.1104 108.06 31.6404 108.64C31.1404 108.07 31.3804 108.56 31.0804 108.55C31.0204 108.72 30.9704 108.97 30.8804 108.91C31.1604 109.18 30.7904 109.43 31.1904 109.81C31.1104 109.84 31.2304 110.13 31.0104 110.09C31.1504 110.47 31.1404 109.98 31.2504 110C31.6004 110.56 31.2104 111.43 31.7104 112.24C31.9804 112.96 32.1904 113.06 32.3704 113.73C32.3204 113.97 32.1504 113.57 32.1504 113.57C32.1404 113.95 32.2004 114.23 32.3204 114.57C32.2704 114.51 32.2504 114.58 32.2304 114.7C32.3104 114.98 32.4204 114.86 32.4404 115.24C32.3904 115.18 32.3004 115.11 32.2204 114.99C32.3404 115.31 32.4804 115.62 32.5804 115.96C32.5504 116.06 32.4504 115.77 32.3904 115.66C32.5104 116.04 32.6804 116.63 32.7704 116.74L32.7404 116.49C32.7704 116.63 32.7004 116.57 32.6604 116.47C32.5204 116.15 32.5804 116 32.6004 115.97L32.6704 116.21C32.7904 115.93 32.4604 115.24 32.3504 114.75L32.5604 114.93L32.3204 114.45C32.3504 114.34 32.4504 114.24 32.5104 114.48C32.5704 114.11 32.4004 114.18 32.4804 113.86C32.4904 113.82 32.5104 113.84 32.5204 113.86L32.4204 113.52C32.4704 113.58 32.5704 113.44 32.5604 113.66C32.6404 113.02 32.2704 112.69 32.4404 112.43L32.4604 112.48C32.2804 111.63 32.2604 112.42 31.9204 111.81C32.0704 111.64 32.2404 111.47 32.4104 111.31L32.1704 111.25C32.1704 111.16 32.1704 110.98 32.2604 111C32.0604 110.69 32.1604 111.07 31.9904 110.9C32.1504 110.45 31.7404 109.73 32.1704 109.59C31.9504 109.46 32.0504 110.02 31.8604 109.58C32.3304 109.4 31.7304 109.06 31.9204 108.65C32.1904 108.74 32.0804 109.13 32.2804 108.71C31.8204 108.52 32.3304 107.94 32.2304 107.62C31.8404 107.64 32.0204 106.92 31.8504 106.38C31.9804 106.4 32.0404 105.32 32.2004 104.79H32.2804C31.8104 104.73 31.8804 104.19 31.7704 103.81C32.0704 103.81 32.1904 103.87 32.3204 104.07V103.71C32.1604 103.63 32.0704 103.53 32.0004 103.29L32.3804 103.36C32.3604 102.88 31.9004 102.41 32.1704 101.78C31.7804 101.76 31.1204 102.32 30.8504 101.67C31.0604 101.64 31.4104 101.6 31.5004 101.77C31.4704 101.71 31.3304 101.57 31.4104 101.46L31.7604 101.71C31.9104 101.42 31.4704 101.57 31.5004 101.34C31.8004 101.34 31.7104 101.16 31.9504 101.19C31.9804 101.25 31.8204 101.39 31.9504 101.47C32.0104 101.21 32.1904 100.9 32.4304 100.79C32.2504 100.82 32.0204 100.8 31.9804 100.62C31.9604 100.14 32.3604 100.44 32.5304 100.16C32.3104 100.05 32.5504 99.7399 32.0704 99.7399C32.0704 99.5999 32.3004 99.5699 32.4304 99.5099C32.2204 99.2699 32.3904 98.3499 31.8604 98.6299L31.8204 98.6899C31.8204 98.6899 31.8104 98.6599 31.8004 98.6499C31.2804 97.8299 32.1304 96.9499 31.9404 96.1399H32.1204C31.9304 95.6599 32.0504 95.0699 31.6504 94.7099C31.6504 94.5699 32.0104 94.3799 32.2404 94.4499C32.1204 94.0799 31.8904 94.0299 32.2404 93.4999C32.5604 93.8799 32.5504 93.3799 32.4704 93.8899C32.6604 93.4199 33.0104 93.3299 32.5104 92.7899C33.0004 92.9899 33.1904 92.4599 33.0604 92.2299L32.6604 92.5399C32.6104 92.2799 32.6704 92.0599 32.7404 91.8399L33.4204 91.9999C34.3904 91.0899 32.1304 90.1499 33.6704 89.5199C33.1904 89.2199 33.2604 90.0199 32.6904 89.7399C32.8204 89.2999 33.9504 88.9199 33.9704 88.7899C34.4804 88.2299 32.9704 88.1199 33.3404 87.5099C33.0604 87.5599 32.3404 87.5699 32.1304 87.0599C32.2804 86.6199 33.3404 86.6299 33.5204 86.9399C33.5204 87.0499 33.4404 87.0899 33.3404 87.0799C33.4204 87.2299 33.5104 87.4299 33.8304 87.2899L33.5704 87.1999C33.8804 87.0099 33.9304 86.3999 34.3604 86.5899C34.1504 86.2299 33.9304 86.3999 33.7504 86.6299C34.2304 86.1099 33.8704 85.7399 34.2504 85.1899C34.0804 85.2599 33.7304 85.3099 33.7504 85.2099C34.2504 84.3999 33.2804 84.7599 33.2604 84.1599C33.7504 83.8899 34.2804 84.4199 34.0104 83.7899C34.3704 83.4799 34.7804 83.8299 34.9904 83.9999C34.5404 83.3899 35.5404 83.0699 35.7104 82.7999L35.8904 83.1099C35.7804 82.9299 35.8204 82.7899 35.8404 82.6599L35.2304 82.7199C35.3604 82.5699 35.3904 82.4399 35.6304 82.4799C35.2804 82.2499 34.6404 82.4499 34.1704 82.0299C34.5104 81.8599 33.9604 81.3099 34.7704 81.3699C34.3704 82.0099 35.5704 81.4299 35.5804 82.0199C35.5104 81.8899 35.5404 81.7599 35.6704 81.6199C35.7604 81.6199 35.8304 81.6699 35.8604 81.7199C36.7104 81.1999 35.0404 81.2699 35.2104 80.6099C35.6404 80.7699 36.0904 80.6099 36.0204 80.4799C35.9504 80.7499 35.2404 80.4799 34.9604 80.1599C35.4104 79.7899 34.8004 79.6399 34.9004 79.4199L34.6804 79.6499C34.2504 79.4799 34.3504 79.2699 34.2804 78.9399C34.6404 78.9799 34.4604 79.2599 34.6404 79.1899C33.9104 78.6899 35.6304 78.5999 35.2004 78.0199C35.5604 77.8699 36.0704 78.1799 36.3204 78.0399C35.8404 77.3899 37.0904 77.6199 36.7504 76.9799C36.0804 76.9899 36.2304 77.0599 35.7304 76.5399L35.9204 77.5299L35.1704 76.7599C35.0904 77.0299 35.4004 77.4199 35.2704 77.5599C34.8304 77.1699 34.9804 77.2399 34.4304 77.2499C35.4604 77.0799 34.0804 76.3899 34.8204 76.0999L36.3604 76.4699C37.2304 75.9999 35.8704 75.1499 36.4804 74.4099L36.1404 74.6099C35.5504 74.3399 36.1904 74.0699 36.0104 73.7399C36.5304 73.8999 36.7704 73.7899 37.1204 73.7599C36.7204 73.6699 37.3504 73.1799 36.3104 72.8099L37.1204 72.6399C37.6204 72.0699 35.8504 71.4499 36.2204 70.8499C36.7404 71.2199 37.2104 71.0399 37.4904 71.5899C37.5604 71.3799 37.7204 71.2199 37.3504 71.0999C37.7204 71.0799 36.8204 70.2899 37.3804 70.2499C37.1704 70.0899 36.6204 69.8799 36.7404 69.6499C36.8604 69.6499 37.0004 69.7399 37.0004 69.7399C36.7404 69.6599 36.7604 69.2499 36.1004 69.2699C38.0004 69.1599 36.6304 67.3899 38.2804 67.3299C38.2704 66.8099 38.2904 66.1899 38.4104 65.7599C38.5604 65.8499 38.6804 65.8599 38.5904 65.9199C39.3104 65.5499 37.1904 64.9799 38.0104 64.5399C39.0204 64.5499 38.3404 65.0699 38.7504 64.9899C40.5604 65.5999 38.8304 64.1199 40.0504 64.1099L40.1104 64.2599C40.8504 64.1899 39.7804 63.1899 40.1304 62.6999C40.1304 62.6999 40.2704 62.7899 40.3904 62.8199C39.6304 62.0599 39.6604 61.2399 39.6604 60.6099C40.2704 61.0899 39.9104 61.0099 40.6604 61.2299C40.6704 60.9599 39.5104 60.7799 39.5304 60.2299C39.9804 60.2499 40.4604 60.0799 41.2304 60.3899L41.0604 60.8299C42.1304 61.0699 41.2904 60.2699 41.5704 60.1199L41.9704 60.3499C42.1504 59.6399 41.1004 59.1099 41.5104 58.4399L41.1604 58.3499C40.3104 57.4299 41.9004 58.3199 41.3404 57.5499L42.4504 57.9799C42.3304 57.6099 41.9204 56.5799 41.9704 56.0299C42.6004 56.7099 42.7104 57.4299 43.0004 57.9899C43.1404 57.7499 43.3804 57.1299 42.9304 56.7199C42.9804 56.8699 43.1604 57.1299 42.9504 57.1399C42.3004 56.3999 42.1204 55.7799 42.4004 55.2899C44.3504 56.5099 43.5904 54.2899 45.3604 54.8799C45.1504 53.6199 46.6804 53.4599 47.1504 52.4499C45.4604 51.7999 47.2804 52.1399 45.7304 51.1799C45.7804 50.8899 45.8704 50.8299 45.9804 50.8799L47.3404 50.8499C47.8804 50.9999 47.5204 51.2799 47.8704 51.4999C48.3104 51.1199 48.6404 51.7499 49.2504 51.7299C48.6704 51.4099 48.6004 51.0299 48.9904 50.9099L48.0504 50.7899C47.7304 49.5699 49.6804 51.1299 49.3704 49.9099L49.6804 50.4599C49.6404 49.9199 50.5404 49.2499 49.6804 48.0499C49.8904 48.1199 50.3404 48.3499 50.3304 48.5799C51.1004 47.9599 50.5204 45.8899 51.6704 45.8599L51.9504 46.1999C51.9704 45.9799 51.5304 45.4099 52.0104 45.5299C52.1404 45.6599 52.2904 45.8699 52.3604 45.8299C52.3104 45.6599 52.1204 44.9599 52.4704 44.9499L52.6904 45.4299C53.7404 45.0999 52.8004 43.5399 53.1504 42.7199C54.0604 43.5899 54.8504 43.3099 55.2504 43.1799L55.3704 43.3099C56.2504 42.6399 55.9804 41.2399 56.4004 40.1499C57.7304 40.6499 58.3704 39.0699 59.6104 38.9299C59.3604 38.8699 59.0404 38.1999 59.1004 37.9899C59.4304 38.0099 59.1004 36.9099 59.7404 37.7699L59.6604 37.8099C60.4604 38.5099 60.6504 37.9499 60.9604 37.7199L60.1504 36.5799C62.1704 37.5399 61.8604 34.3299 63.3204 35.4099C63.3204 34.9899 63.5604 34.7799 63.5704 34.3799L63.9604 34.9699C64.6204 34.7299 64.9404 34.5999 65.5304 33.9799L65.6604 34.4899C66.0604 34.2499 65.0904 32.4699 65.4404 32.1899L66.0804 32.9699C66.7504 32.4599 67.8904 32.7599 68.1604 31.5599C68.2204 31.6899 68.3304 31.9499 68.2404 32.0499C68.5904 31.8699 69.8204 31.7999 69.0904 30.7399C69.5004 31.4699 69.8604 30.3499 70.0904 29.7999L70.3004 30.3699C70.2804 29.4999 70.2104 29.3099 70.6004 28.8799C70.7504 28.8899 70.9104 29.2499 70.6904 29.1999C71.2004 29.2799 70.7404 28.5499 71.3404 28.5999V29.0199C71.7404 28.8599 71.6204 28.6999 71.6604 28.1999C71.8104 27.8699 72.4704 27.9599 72.7304 28.3899C72.6604 28.0799 72.7104 27.5999 73.0004 27.6099C73.1104 27.7699 73.0704 27.9199 73.0504 27.9899C73.8404 27.9799 73.8004 26.9499 74.4604 27.2299C74.5404 27.3899 74.6004 27.4599 74.6604 27.4899C74.1204 27.7099 73.6804 27.8699 73.7104 27.8199C73.9104 28.2799 74.3604 28.1699 74.3004 28.9599C74.4804 28.4499 74.7704 27.4499 75.2704 27.4699C75.3104 27.4999 75.3404 27.5399 75.3904 27.5999L75.3704 27.6699C75.4804 27.6699 75.5504 27.5899 75.6004 27.4799C75.7604 27.4899 75.8604 27.5099 75.9904 27.4499C76.1804 27.7899 76.5504 27.4199 76.7604 27.3399C76.5704 26.8799 76.8804 26.8299 76.4804 26.5599C76.5304 26.5799 76.4604 26.6299 76.3204 26.7199C76.2904 26.7499 76.2604 26.7699 76.2504 26.8099V26.7599C76.1104 26.8399 75.9304 26.9299 75.7304 27.0299C75.8104 26.7099 75.9104 26.4299 76.2504 26.5899C76.2504 26.2399 76.2604 25.8799 76.2804 25.6999C76.8204 26.2299 77.5004 26.3199 77.7204 26.6899C78.3004 26.1899 79.2304 25.9199 79.4204 24.9699C79.5904 24.7999 79.7104 25.1199 79.8204 25.2199C79.7304 25.3399 79.6004 25.3799 79.5704 25.5099C79.8904 25.1699 80.6804 25.0099 80.6304 24.4499C81.1904 24.5199 80.4904 25.0299 81.1404 24.7099L81.0904 24.8999C81.8604 25.1099 82.3104 24.6199 82.8204 24.1799C83.3204 23.7399 83.8804 23.3699 84.7204 23.6099C84.6104 23.5899 84.5504 23.5699 84.5104 23.5099C86.2904 23.4599 88.0704 22.4699 89.8704 22.6799C90.3704 22.6899 90.4104 22.5099 90.7104 22.3599L90.8304 22.5499C91.0004 22.4499 91.1704 22.3499 91.3404 22.2599C91.7104 22.1499 92.0304 22.2299 92.3804 22.2599C92.7304 22.3099 93.1004 22.2799 93.5604 22.1699L93.4404 22.0899C93.7804 22.0899 94.5104 22.0199 94.4604 22.0899C94.4904 22.0799 94.5704 22.0199 94.7004 22.0499V22.0999C94.9904 22.0599 95.2704 22.0299 95.5404 22.0099C96.1904 22.0099 95.4404 22.1399 96.3804 22.0599C96.7304 22.0099 97.3804 21.9599 97.2504 21.9699C97.1104 21.9699 96.8904 21.9699 96.8804 21.9699H97.2004C97.2604 21.9499 97.5004 22.0199 96.7204 21.8799C96.5404 21.8599 96.3504 21.8399 96.1704 21.8299L95.9904 21.7799L96.4504 21.8499C96.1904 21.7899 96.0204 21.7799 95.8404 21.7799C95.8004 21.7499 95.7204 21.7299 95.6104 21.6999C95.4304 21.6999 95.2504 21.6999 95.0704 21.7299C95.0104 21.6699 95.3104 21.6799 94.9504 21.5999C94.7004 21.6199 95.1904 21.7299 94.7704 21.7299C94.5104 21.6499 94.5804 21.5899 94.2704 21.6199C94.2304 21.5799 94.2904 21.5599 94.4104 21.5599C94.1304 21.5699 93.6804 21.4799 93.5404 21.5599C93.2604 21.3999 92.6104 21.5299 92.6304 21.3199C92.5404 21.3599 92.1504 21.4799 91.8904 21.4899C92.3404 21.2099 90.9304 21.4499 91.0304 21.0999C90.7004 21.3799 89.7804 21.1699 89.1804 21.3599C89.2104 21.3299 89.2704 21.2699 89.3304 21.2899C88.9804 21.2499 88.8604 21.1199 88.6304 21.0599C88.6304 21.3899 88.0904 21.4999 87.8304 21.7399C87.3604 21.4199 88.0304 21.2999 87.8604 20.9899C87.9204 21.2699 87.1604 21.3099 87.3304 21.5499C86.9804 21.3499 87.0404 21.4599 86.8204 21.1499C86.8304 21.6399 86.5304 21.2499 86.3004 21.5699C85.7904 21.3499 86.1004 21.0999 85.6104 21.2899C85.3304 21.1399 85.7704 20.9399 85.7704 20.9399L85.8404 20.9699ZM74.0304 24.5699C74.1304 24.5199 74.2104 24.4899 74.2604 24.4599C74.2104 24.4799 74.1504 24.5199 74.0304 24.5799V24.5699ZM73.0504 24.9099C73.1804 24.8899 73.3304 24.8399 73.4804 24.7799C73.5804 24.9399 73.6204 25.1299 73.5204 25.1499C73.5204 25.0199 73.2604 24.9999 73.0504 24.8999V24.9099ZM76.3604 27.4999C76.2504 27.6299 76.1604 27.5599 76.1104 27.4699C76.1704 27.4299 76.2404 27.3799 76.3304 27.2999C76.3304 27.2799 76.3304 27.2599 76.3304 27.2299C76.3504 27.3299 76.3704 27.4199 76.3604 27.4899V27.4999Z" fill="#F3BB28"/>
<path d="M76.3805 26.7599C76.3805 26.7599 76.4005 26.7199 76.4305 26.6999C76.3905 26.6699 76.3405 26.6499 76.3105 26.6299C76.3105 26.6899 76.3105 26.7499 76.3105 26.7999L76.3805 26.7599Z" fill="#F3BB28"/>
<path d="M31.8705 98.6599V98.6399C31.8705 98.6399 31.8405 98.6699 31.8105 98.6899C31.8305 98.6799 31.8505 98.6799 31.8705 98.6699V98.6599Z" fill="#F3BB28"/>
<path d="M59.54 30.3399L59.64 30.4899L59.63 30.3099L59.54 30.3399Z" fill="#F3BB28"/>
<path d="M30.6505 104.28C30.6505 104.28 30.5905 104.32 30.5605 104.36C30.5805 104.36 30.6105 104.32 30.6505 104.28Z" fill="#F3BB28"/>
<path d="M30.8403 106.69L30.7803 107.04C30.8203 106.89 30.8403 106.78 30.8403 106.69Z" fill="#F3BB28"/>
<path d="M30.97 108.55C31.02 108.57 31.06 108.57 31.09 108.57L30.96 108.55H30.97Z" fill="#F3BB28"/>
<path d="M30.1201 78.6599C30.1201 78.6599 30.1201 78.6099 30.1001 78.5799C29.9901 78.3799 30.0201 78.5099 30.1201 78.6599Z" fill="#F3BB28"/>
<path d="M30.6706 87.7599C30.5606 87.6599 30.4606 87.5499 30.3906 87.4499C30.3306 87.5999 30.3106 87.7199 30.6706 87.7599Z" fill="#F3BB28"/>
<path d="M31.4004 68.5099C31.4004 68.5099 31.4004 68.5099 31.4104 68.5099C31.4104 68.4899 31.4204 68.4699 31.4304 68.4499L31.4004 68.5099Z" fill="#F3BB28"/>
<path d="M30.4406 87.0399C30.3006 87.1799 30.3206 87.3199 30.4006 87.4499C30.4506 87.3299 30.5306 87.1799 30.4406 87.0399Z" fill="#F3BB28"/>
<path d="M32.5801 116.46L32.6001 116.55C32.6001 116.55 32.6001 116.55 32.6101 116.55L32.5801 116.45V116.46Z" fill="#F3BB28"/>
<path d="M32.6104 116.55L32.6404 116.64C32.6404 116.64 32.6204 116.56 32.6104 116.55Z" fill="#F3BB28"/>
<path d="M32.7106 116.85L32.6406 116.65C32.6606 116.72 32.6806 116.81 32.7106 116.85Z" fill="#F3BB28"/>
<path d="M32.0307 114.06L31.9707 114.04C31.9707 114.04 32.0007 114.06 32.0307 114.06Z" fill="#F3BB28"/>
<path d="M31.8604 113.33C31.8804 113.51 31.8404 113.79 31.9304 114.02L31.9804 114.04C31.8704 113.94 31.9904 113.48 31.8704 113.33H31.8604Z" fill="#F3BB28"/>
<path d="M32.3 110.14C32.29 110.35 32.29 110.56 32.29 110.77C32.36 110.65 32.47 110.49 32.52 110.77C32.73 109.96 32.33 110.96 32.31 110.14H32.3Z" fill="#F3BB28"/>
<path d="M32.3408 108.2C32.4108 108.53 32.5008 108.18 32.5608 108.2C32.4508 108 32.4208 107.95 32.3408 108.2Z" fill="#F3BB28"/>
<path d="M32.4502 94.3499L32.9402 94.3999C32.8902 94.1399 32.7502 94.3999 32.4502 94.3499Z" fill="#F3BB28"/>
<path d="M29.9201 91.5599L29.5801 91.7899L30.0701 91.9399L29.9201 91.5599Z" fill="#F3BB28"/>
<path d="M33.8808 90.2499L33.9508 90.3599L33.8008 89.9299L33.8808 90.2499Z" fill="#F3BB28"/>
<path d="M38.9708 68.1399L38.0908 67.9099C38.1908 68.1199 39.1408 68.4899 38.9708 68.1399Z" fill="#F3BB28"/>
<path d="M42.0003 58.7999C42.4703 58.9199 42.8503 58.8 42.5303 58.45C42.3603 58.61 41.9503 58.6499 42.0003 58.7999Z" fill="#F3BB28"/>
<path d="M61.2305 37.1699L61.2505 37.5099L61.3905 37.0999L61.2305 37.1699Z" fill="#F3BB28"/>
<path d="M18.4607 144.4C18.3707 144.56 18.4307 144.47 18.6307 144.01L18.7607 143.68L18.4607 144.4Z" fill="#F3BB28"/>
<path d="M19.7606 141.28C19.9506 140.72 20.0306 140.03 19.8906 140.39C19.8106 140.98 19.7406 141.1 19.5806 141.71C19.4106 142.18 19.2806 142.53 19.2906 142.45C19.2506 142.63 18.9906 143.17 18.8906 143.42C19.1906 142.84 19.4806 142.06 19.7406 141.23C19.8106 141.06 19.7706 141.23 19.7606 141.28Z" fill="#F3BB28"/>
<path d="M7.62988 94.9199L7.69988 95.2299C7.69988 95.1399 7.66988 95.0299 7.62988 94.9199Z" fill="#F3BB28"/>
<path d="M3.53039 65.7699C3.52039 65.9999 3.58039 66.0999 3.65039 66.1199C3.63039 65.9099 3.60039 65.7299 3.53039 65.7699Z" fill="#F3BB28"/>
<path d="M5.23988 60.9499C5.19988 61.0499 5.15988 61.1399 5.12988 61.2299C5.21988 61.1299 5.28988 61.0299 5.23988 60.9499Z" fill="#F3BB28"/>
<path d="M7.62995 94.9199L7.46995 94.1099C7.27995 94.1299 7.50995 94.5499 7.62995 94.9199Z" fill="#F3BB28"/>
<path d="M20.6602 134.62C20.6602 134.79 20.6702 134.93 20.6802 135.06C20.6802 134.92 20.6802 134.79 20.6802 134.65C20.6802 134.65 20.6702 134.64 20.6602 134.62Z" fill="#F3BB28"/>
<path d="M13.9307 106.73L14.0407 106.95C14.1207 106.99 14.2007 107.02 14.2907 107.05L13.9307 106.73Z" fill="#F3BB28"/>
<path d="M18.2705 116.17C18.2005 115.94 17.8905 115.98 17.7305 115.95C17.8905 116.02 18.0105 116.16 18.1105 116.35C18.1605 116.33 18.2205 116.28 18.2705 116.17Z" fill="#F3BB28"/>
<path d="M21.2305 132.33L21.2505 132.62C21.2505 132.54 21.2405 132.42 21.2305 132.33Z" fill="#F3BB28"/>
<path d="M10.6904 100.11C10.6904 100.11 10.7704 100.01 10.7904 99.9499C10.7404 99.9799 10.7104 100.03 10.6904 100.11Z" fill="#F3BB28"/>
<path d="M222.21 1.69994V1.71994C222.27 1.69994 222.28 1.68994 222.21 1.69994Z" fill="#F3BB28"/>
<path d="M234.07 0.109924L233.91 0.149924H233.87L234.07 0.109924Z" fill="#F3BB28"/>
<path d="M8.7302 52.5199C8.7302 52.5199 8.7102 52.5399 8.7002 52.5499C8.7002 52.7999 8.7302 52.6699 8.7302 52.5199Z" fill="#F3BB28"/>
<path d="M73.9607 7.84993C72.9307 7.17993 75.4407 6.75993 73.9107 6.04993C74.0707 6.36993 72.7207 7.45993 73.9607 7.84993Z" fill="#F3BB28"/>
<path d="M73.91 6.04992L73.75 5.97992C73.82 6.00992 73.85 6.02992 73.91 6.04992Z" fill="#F3BB28"/>
<path d="M18.9 34.4599C18.77 34.4099 18.64 34.4099 18.5 34.4099C18.57 34.4499 18.67 34.4799 18.9 34.4599Z" fill="#F3BB28"/>
<path d="M9.53027 47.0499L9.80027 46.7399C9.67027 46.8499 9.59027 46.9499 9.53027 47.0499Z" fill="#F3BB28"/>
<path d="M23.6602 27.8199C23.8602 27.7199 23.9702 27.7399 24.1202 27.4699C24.0702 27.4599 24.0302 27.4499 23.9902 27.4599C23.9902 27.6099 23.9202 27.7399 23.6602 27.8199Z" fill="#F3BB28"/>
<path d="M30.2606 22.3899C30.1906 22.3699 30.1106 22.3699 30.0406 22.3499C29.9806 22.4099 29.9106 22.4899 29.8506 22.5499L30.2606 22.3799V22.3899Z" fill="#F3BB28"/>
<path d="M195.65 5.27993C195.86 5.35993 195.99 5.46993 196.1 5.56993C195.93 5.31993 197.2 5.08993 195.65 5.27993Z" fill="#F3BB28"/>
<path d="M20.7304 134.62C20.7004 134.57 20.6904 134.49 20.6904 134.36C20.6904 134.46 20.6904 134.56 20.6904 134.65C20.7104 134.68 20.7204 134.68 20.7404 134.62H20.7304Z" fill="#F3BB28"/>
<path d="M19.6201 22.9699L20.8001 22.0699C20.4401 22.2899 20.0101 22.6199 19.6201 22.9699Z" fill="#F3BB28"/>
<path d="M133.05 6.42993L133.37 6.37993C133.25 6.34993 133.14 6.35993 133.05 6.42993Z" fill="#F3BB28"/>
<path d="M24.0605 19.1099C24.4405 19.1699 24.7705 19.1299 25.0605 19.0299C25.0605 18.9399 25.0905 18.8599 25.0605 18.7599L24.0605 19.1099Z" fill="#F3BB28"/>
<path d="M205.13 3.66993C203.8 3.81993 204.57 4.12993 204.33 4.39993C202.77 4.72993 203.55 4.19993 202.98 4.05993C202.01 4.27993 201.32 4.76993 200.58 4.83993C200.51 4.76993 200.37 4.76993 200.52 4.64993C199.53 5.12993 197.43 5.04993 196.28 5.66993C196.18 5.63993 196.13 5.59993 196.1 5.56993C196.33 5.78993 196.4 6.02993 196.39 6.20993C195.8 6.28993 195.33 6.66993 195.06 6.36993C195.43 6.32993 195.44 6.19993 195.59 6.06993L194.99 6.28993C194.36 5.88993 195.82 6.01993 195.76 5.67993C194.57 5.96993 193.21 6.55993 192.26 6.53993C192 6.07993 194.41 6.10993 193.11 5.83993H194.57C193.36 5.23993 195.45 5.79993 194.33 5.12993C192.42 5.18993 192.25 5.60993 190.34 5.65993C189.95 5.97993 190.54 6.05993 190.15 6.37993C187.53 7.18993 187.87 5.28993 185.98 6.17993C185.51 6.57993 185.4 7.31993 183.95 7.06993L184.36 6.39993C182.52 6.48993 183.42 7.39993 181.45 7.13993C181.76 6.84993 182.87 6.79993 182.58 6.74993C181.28 6.33993 181.74 7.18993 180.78 7.27993L180.52 6.70993C178.58 6.97993 176.47 7.53993 174.32 7.81993C174.42 7.61993 174.78 7.39993 174.25 7.23993C171.55 7.75993 168.42 7.46993 165.77 7.14993L164.8 7.76993C164.57 7.76993 164.35 7.50993 164.6 7.37993C163.57 7.16993 164.57 7.76993 164.09 8.01993C163.51 8.07993 163.3 7.68993 163.66 7.49993C162.77 7.77993 161.49 8.08993 160.2 8.26993C158.9 8.40993 157.59 8.39993 156.63 8.05993L157 7.86993C155.52 7.59993 155.34 9.20993 153.96 8.60993L154.22 8.48993C151.01 8.11993 147.43 8.70993 145.02 7.46993C144.51 8.45993 141.88 6.82993 141.59 8.24993C139.8 7.37993 140.34 7.15993 137.82 6.43993C137.14 6.30993 136.73 7.26993 135.86 7.34993L135.91 6.56993L134.69 7.25993L134.17 6.25993L133.36 6.36993C133.67 6.44993 133.99 6.79993 133.92 7.01993C132.64 7.24993 130.96 6.10993 130.97 5.68993L127.96 5.96993C128.07 5.65993 128.57 5.60993 128.98 5.45993C127.31 6.05993 128.8 4.56993 127.28 5.11993C127.45 5.32993 127.11 5.58993 127.06 5.73993C126.41 5.15993 124.78 4.89993 123.55 4.92993L123.86 4.39993C121.71 3.91993 119.23 3.94993 116.77 3.54993C117.61 3.95993 117.26 4.92993 116.53 4.90993L116.37 3.97993C115.82 4.44993 117.07 4.42993 116.02 4.94993C115.12 4.70993 115.55 3.83993 116.12 3.63993L114.96 3.76993C114.93 3.48993 115.22 3.38993 115.33 3.06993C114.79 3.54993 113.53 1.85993 112.73 2.71993L112.71 2.43993C110.24 2.03993 109.07 2.17993 107.04 1.92993C106.89 2.70993 106.12 2.41993 105.44 2.97993C103.99 2.52993 102.41 1.66993 100.59 1.51993C99.2703 1.76993 100.14 2.15993 99.5203 2.56993C99.5103 1.81993 97.6903 1.68993 98.6903 1.25993C96.5003 1.15993 95.8903 1.09993 93.0703 1.47993C93.3503 1.80993 93.6703 1.96993 93.4803 2.20993C92.9703 2.28993 92.3703 1.80993 92.4603 1.44993L92.6003 1.37993C91.0103 1.83993 89.2603 1.15993 87.5403 0.619928C85.8303 0.0399281 84.1503 -0.390072 82.8903 0.399928L83.0303 0.319928C82.1603 0.589928 81.3003 0.849928 80.4403 1.16993C79.2403 1.07993 81.1403 0.569928 80.2403 0.129928C78.8503 0.819928 77.7503 0.799928 76.7003 0.759928C75.6503 0.739928 74.6503 0.669928 73.5303 1.17993C72.5303 0.099928 70.9303 0.349928 69.2803 0.689928C67.6203 0.999928 65.9503 1.58993 64.6103 1.04993L64.8403 1.54993C64.3103 2.16993 64.0403 1.36993 63.5503 1.32993C63.6903 1.72993 64.3103 1.68993 63.9803 2.03993C58.9003 3.61993 53.1003 3.67993 47.6903 5.14993C45.7303 5.71993 47.5703 8.06993 44.7903 7.85993L45.0903 6.66993C44.2603 7.33993 43.3703 7.85993 42.4503 8.31993C41.5403 8.79993 40.6103 9.24993 39.6703 9.67993C37.7803 10.4899 35.9703 11.5199 34.4703 12.8799C34.5703 12.5699 34.4303 12.3199 34.7703 12.1299C33.6703 11.8999 32.0803 13.7199 32.3703 14.1999C31.8103 14.4699 31.9803 13.8299 31.5003 13.7899C31.0303 13.8399 30.7003 14.3099 30.3903 14.7199C30.0903 15.1499 29.8303 15.5199 29.4503 15.3599C29.3203 15.3099 29.5203 15.0299 29.6203 14.8999C29.3503 15.4999 27.4603 16.3099 28.3503 16.6599C26.8803 17.1799 26.2603 18.6299 25.0403 18.9899C24.9803 20.1699 22.7503 20.2399 23.3903 21.3899C22.6403 20.3199 20.7403 22.3499 20.4603 23.4199C20.4203 22.9099 19.5903 23.6899 19.4903 23.0399C18.7303 23.8299 18.2003 24.7199 18.7903 25.0499C17.5603 25.2299 17.0403 26.1399 16.6403 26.9799C16.2403 27.8299 15.8803 28.5399 14.7903 28.3299C13.9603 29.7499 13.2703 31.1799 12.5603 32.5099C11.8103 33.8199 11.1903 35.1499 10.5303 36.4199C9.58027 35.6599 12.1403 33.6999 11.0703 33.0799C10.4803 34.3499 10.2403 35.4999 9.89027 36.5399C9.52027 37.5799 9.16027 38.5899 8.38027 39.6799C7.90027 40.1999 8.13027 39.0799 8.07027 38.7599C7.63027 40.0899 6.89027 41.1699 6.36027 42.3399C5.80027 43.4899 5.26027 44.6099 5.05027 45.8299C4.95027 45.7799 4.95027 45.4899 4.98027 45.2299C4.79027 45.6699 4.40027 46.1799 4.89027 46.3399L4.93027 45.8499C5.91027 45.4799 5.69027 48.2299 6.03027 48.4499C4.95027 47.1299 4.79027 50.4699 3.52027 48.5899C3.49027 48.9199 3.58027 49.3699 3.93027 49.4299C3.66027 49.8199 3.42027 49.8899 3.22027 49.3099C2.90027 51.0099 3.64027 50.6399 3.14027 52.0799C2.91027 51.9899 2.91027 51.6699 2.69027 51.4199C2.91027 52.3299 3.11027 53.1999 2.52027 54.3699C2.40027 54.2499 2.17027 54.3399 2.29027 53.9699C2.03027 55.0499 2.11027 56.0599 2.10027 57.0599C2.10027 57.5599 2.08027 58.0599 2.00027 58.5699C1.94027 59.0899 1.84027 59.6299 1.61027 60.1999C0.730273 59.2899 1.13027 60.9399 0.240273 60.9099L0.270273 62.2599L0.780273 61.8099C0.530273 62.9299 1.09027 64.0399 0.690273 64.9699L0.430273 64.0799L0.360273 66.2299L0.820273 65.0599C1.13027 66.2499 1.92027 65.0599 1.50027 66.5199C1.44027 66.2099 1.35027 67.6299 0.860273 68.1899C1.11027 68.7699 1.36027 69.3499 1.12027 70.1699C0.850273 70.3799 0.210273 69.9599 0.0302734 70.0999C0.370273 70.3899 0.380273 71.0599 0.430273 71.7399C0.510273 72.4199 0.590273 73.1299 0.970273 73.4699C0.790273 73.2399 0.370273 73.2399 0.280273 73.3199L0.850273 73.7699C0.690274 74.2999 0.610273 74.3799 0.270273 74.3099C0.230273 75.8999 1.27027 73.7599 0.900273 75.6599C0.850273 75.5199 0.770273 75.5899 0.680273 75.2899C0.580273 76.2399 0.840273 77.1399 1.00027 78.0199C1.20027 78.8899 1.32027 79.7499 1.36027 80.6199C1.04027 80.9299 0.910273 80.5699 0.810273 80.2099C0.730273 79.8499 0.670273 79.4899 0.390273 79.8299C0.980273 82.3199 2.25027 84.7799 2.83027 87.1199L2.78027 86.6699C3.86027 86.6899 2.76027 88.5599 3.66027 89.5499C3.49027 89.2899 3.01027 89.3599 3.14027 89.3999C3.55027 91.0199 4.59027 92.4899 5.87027 94.6299L5.53027 94.4499C5.74027 95.4199 6.51027 96.7999 6.89027 97.7799C7.23027 97.9599 7.47027 98.4999 7.60027 98.0399C7.75027 99.7499 8.66027 101.02 9.52027 102.23C10.3903 103.44 11.2403 104.61 11.5203 106.06C11.3603 105.77 10.9803 105.44 11.1103 105.67L12.4303 107.69C12.6203 107.38 12.4503 107.32 12.4303 106.76C12.7403 106.94 13.1903 107.47 13.4603 108C12.7703 107.14 13.0203 108.24 13.0903 108.73C13.1403 108.62 13.3003 108.71 13.3703 108.63C13.4803 109.99 14.0103 108.54 14.4703 110.23H14.2903C14.6603 110.75 15.0903 111.2 15.3603 111.84C15.2003 112.24 14.9203 111.3 14.6503 111.38C15.1203 112.23 16.0403 112.84 16.1403 113.76C15.8803 113.42 15.6203 112.89 15.3703 112.56C15.4503 113.58 15.6003 113.63 15.8403 114.3L15.8203 114.23L16.3703 115.77L16.2803 115.36C17.4803 116.16 17.4003 117.55 18.4103 118.92C17.4403 117.58 18.0803 118.76 17.7603 118.75C17.8403 119.16 17.9603 119.78 17.8203 119.64C18.3003 120.29 18.1103 120.88 18.7403 121.82C18.6703 121.89 18.9803 122.6 18.7303 122.5C19.1003 123.43 18.8003 122.24 18.9303 122.29C19.6303 123.7 19.6503 125.82 20.3303 127.94C20.7503 129.81 20.9703 130.15 21.1403 131.93C21.0703 132.53 20.9403 131.44 20.9203 131.44C20.9003 132.41 20.9203 133.14 20.9603 134.05C20.9303 133.86 20.8903 134.05 20.8303 134.33C20.8103 135.06 20.9703 134.83 20.8403 135.79C20.8203 135.62 20.7603 135.4 20.7303 135.05C20.7403 135.91 20.7003 136.77 20.6003 137.66C20.5203 137.89 20.6103 137.12 20.5903 136.8C20.5703 137.3 20.4603 137.94 20.3803 138.5C20.3103 139.06 20.2203 139.53 20.2003 139.69C20.2603 139.48 20.3303 139.28 20.3803 139.07C20.3003 139.43 20.2903 139.24 20.3303 138.97C20.4203 138.11 20.5703 137.75 20.6103 137.71L20.5103 138.34C20.8203 137.73 20.9203 135.8 20.9303 134.52L21.0803 135.07L21.0003 133.74C21.0403 133.46 21.1703 133.27 21.1803 133.91C21.3003 132.99 21.1203 133.09 21.2403 132.3C21.2603 132.21 21.2703 132.25 21.2803 132.33C21.2703 132.03 21.2403 131.73 21.1903 131.43C21.2503 131.61 21.3403 131.27 21.3403 131.83C21.3703 131.01 21.3103 130.35 21.2303 129.83C21.1403 129.31 21.0603 128.91 21.1303 128.59L21.1603 128.72C20.7903 126.49 20.9503 128.52 20.4503 126.9C20.5703 126.5 20.6803 126.09 20.7903 125.68L20.5203 125.51C20.4803 125.28 20.4103 124.82 20.5203 124.89C20.1903 124.08 20.4503 125.06 20.2003 124.6C20.1903 124.03 19.9703 123.29 19.8003 122.65C19.6203 122.01 19.4703 121.48 19.6503 121.29C19.3403 120.97 19.7903 122.36 19.3203 121.26C19.7003 120.78 18.8203 119.97 18.7203 118.93C19.0703 119.14 19.2303 120.12 19.1403 119.06C18.5203 118.63 18.5803 117.13 18.1803 116.35C17.8103 116.46 17.3303 114.66 16.6103 113.4C16.7803 113.42 15.6903 110.82 15.2403 109.53H15.3303C14.8003 109.51 14.2603 108.22 13.7103 107.37C13.9903 107.27 14.1803 107.37 14.5403 107.81L14.1103 106.96C13.8703 106.83 13.6603 106.61 13.3303 106.09L13.7703 106.13C13.1903 105.01 12.2103 104.08 11.7103 102.51C11.3203 102.61 11.3803 104.15 10.3403 102.75C10.4903 102.6 10.7803 102.37 11.0603 102.73C10.9703 102.61 10.6603 102.35 10.6003 102.04L11.2303 102.48C11.0303 101.75 10.7903 102.27 10.5503 101.74C10.8203 101.61 10.5503 101.25 10.7903 101.22C10.8803 101.34 10.9103 101.74 11.1203 101.88C10.8603 101.26 10.6603 100.46 10.7503 100.12C10.6203 100.25 10.3803 100.31 10.1303 99.8899C9.55027 98.7799 10.2703 99.3299 10.1003 98.5999C9.77027 98.4299 9.63027 97.5999 9.20027 97.7999C9.04027 97.4699 9.22027 97.3099 9.27027 97.1199C8.79027 96.6299 7.96027 94.3999 7.78027 95.2899L7.82027 95.4599C7.82027 95.4599 7.78027 95.3999 7.76027 95.3699C6.41027 93.6399 6.28027 91.2099 5.40027 89.3099L5.57027 89.2499C4.94027 88.1499 4.67027 86.6299 4.03027 85.8799C3.93027 85.5199 4.13027 84.9499 4.40027 85.0399C4.21027 84.5999 4.05027 84.3699 3.93027 84.0699C3.84027 83.7699 3.80027 83.3899 3.83027 82.6799C4.33027 83.5499 4.07027 82.2899 4.25027 83.5899C4.20027 82.3399 4.47027 82.0199 3.70027 80.8199C4.30027 81.1699 4.14027 79.8199 3.97027 79.2599C3.87027 79.5599 3.77027 79.8599 3.71027 80.1599C3.53027 79.5299 3.55027 78.9399 3.53027 78.3599L4.24027 78.5899C4.57027 77.3099 4.06027 76.2599 3.75027 75.2199C3.45027 74.1899 3.20027 73.1999 3.93027 72.2599C3.41027 71.5999 3.59027 73.6099 2.99027 73.0299C3.04027 72.4499 3.28027 71.8599 3.59027 71.3799C3.90027 70.8999 4.19027 70.5199 4.20027 70.3499C4.73027 68.8299 3.18027 68.8399 3.61027 67.2099C3.31027 67.3899 2.57027 67.5399 2.47027 66.2599C2.72027 65.0999 3.80027 64.9799 3.92027 65.7199C3.91027 65.9999 3.80027 66.1199 3.71027 66.0999C3.76027 66.4799 3.81027 66.9699 4.16027 66.5499L3.91027 66.3699C4.27027 65.8299 4.45027 64.2799 4.85027 64.7099C4.71027 63.8199 4.45027 64.2799 4.22027 64.8999C4.78027 63.4999 4.61027 62.6399 5.18027 61.2099C4.98027 61.4099 4.61027 61.5699 4.66027 61.3299C5.47027 59.2299 4.30027 60.2499 4.55027 58.7499C5.21027 58.0199 5.48027 59.2899 5.54027 57.7399C6.08027 56.9299 6.34027 57.7499 6.46027 58.1599C6.31027 56.6999 7.48027 55.7999 7.88027 55.1299L7.86027 55.8699C7.87027 55.4299 8.00027 55.0999 8.12027 54.7699L7.42027 54.9699C7.66027 54.6099 7.79027 54.2699 8.02027 54.3599C7.80027 53.8299 6.97027 54.3599 6.76027 53.3699C7.24027 52.9299 7.03027 51.6099 7.85027 51.7099C7.00027 53.2899 8.66027 51.8099 8.28027 53.2499C8.28027 52.9499 8.41027 52.6199 8.65027 52.2599C8.75027 52.2299 8.78027 52.3699 8.79027 52.4999C10.0603 51.1899 8.24027 51.4699 8.94027 49.8499C9.27027 50.2299 9.90027 49.8099 9.92027 49.5099C9.63027 50.1499 9.09027 49.5299 9.03027 48.7799C9.80027 47.8799 9.28027 47.5399 9.59027 47.0199L9.13027 47.5599C8.82027 47.1599 9.13027 46.6699 9.36027 45.8899C9.71027 45.9899 9.25027 46.6499 9.53027 46.4599C9.21027 45.3099 11.1803 45.0499 11.2703 43.7199C11.8403 43.3799 12.0703 44.0899 12.5103 43.7699C12.6803 42.2999 13.8203 42.8399 14.1203 41.3599C13.3703 41.3799 13.4603 41.5299 13.4503 40.3299L12.6203 42.5999L12.6003 40.8199C12.2203 41.4399 12.1703 42.3299 11.8603 42.6499C11.7803 41.7699 11.8803 41.8999 11.2503 41.9399C12.5903 41.5799 11.7403 39.9299 12.9403 39.3099L14.2603 40.1899C15.0403 39.6899 15.2903 38.9599 15.5503 38.1499C15.6803 37.7499 15.8003 37.3099 16.0203 36.8999C16.2403 36.4899 16.5303 36.0899 16.9503 35.7199L16.2903 36.1099C15.9603 35.4899 17.0603 34.9799 17.3003 34.2499C17.6903 34.6399 18.1203 34.4099 18.5703 34.3899C18.2103 34.1399 19.6403 33.1999 18.9503 32.3399L20.1503 32.0799C20.8503 31.5199 20.8903 30.8699 20.9403 30.2299C21.0003 29.5999 21.0503 28.9499 21.7403 28.3999C21.8003 29.1899 22.6303 28.9299 22.1203 30.0299C22.5303 29.6399 22.9703 29.3499 22.7003 29.0699C23.1803 29.0899 23.3003 27.4099 24.0603 27.4299C24.0803 27.0899 23.7403 26.6099 24.2603 26.2099C24.3903 26.2499 24.4403 26.4199 24.4403 26.4199C24.2503 26.2099 24.9603 25.4699 24.1103 25.3799C25.3903 25.4599 26.2603 24.5799 27.2003 23.7899C28.1303 22.9999 29.0203 22.1799 30.0903 22.3299C31.0003 21.4399 32.1703 20.4499 33.0903 19.7599C33.1203 19.9499 33.2403 19.9999 33.0303 20.0699C34.6303 19.6399 32.9603 18.1599 34.8303 17.6999C36.1103 18.0199 34.2703 18.6299 34.9503 18.6299C35.5603 19.3699 35.9803 19.0399 36.4603 18.5599C36.9303 18.0699 37.4803 17.4399 38.2903 17.6599L38.0903 17.8899C39.2103 18.0399 39.7103 16.1899 41.1303 15.6199C41.1303 15.6199 41.1303 15.7999 41.2503 15.8799C41.7503 14.5799 43.3903 13.3999 44.6403 12.5699C44.5203 13.4399 44.1803 13.1899 44.7503 13.7899C45.3103 13.4399 44.0703 12.7399 45.2103 12.0299C45.7703 12.2499 46.7903 12.2199 47.2103 12.9399L46.0903 13.4499C47.0803 14.1899 47.5403 12.8199 48.2103 12.7399L48.3003 13.1999C49.9903 12.3899 49.6203 11.3099 51.5703 10.6999L51.2603 10.4399C51.9403 8.95993 52.3503 10.7399 53.1503 9.59993L53.8303 10.6299C54.4403 10.1699 55.9403 8.73993 57.1903 8.22993C56.6803 9.23993 55.3403 10.1299 54.5903 10.8999C55.2803 10.6999 56.9003 10.0899 57.1203 9.45993C56.8703 9.63993 56.5903 10.0099 56.2603 9.91993C56.8603 8.77993 57.9003 8.05993 59.3203 7.70993C59.5903 9.95993 63.1603 7.43993 64.5303 8.98993C66.8803 7.69993 69.5403 8.48993 72.4403 8.02993C71.2003 6.38993 73.2903 7.86993 72.9203 6.07993C73.6003 5.89993 73.8703 5.90993 73.9503 6.01993L76.1403 6.92993C76.6703 7.41993 75.5203 7.38993 75.6103 7.78993C77.1203 7.79993 76.2903 8.50993 77.3103 8.90993C77.0703 8.26993 77.7703 7.93993 78.6403 8.15993L77.3903 7.36993C79.4503 6.30993 79.2703 8.81993 81.3403 7.76993L80.6903 8.36993C81.7603 7.95993 84.6503 8.33993 85.7503 6.86993C85.9403 7.07993 86.1803 7.57993 85.7003 7.69993C88.2703 7.96993 91.5903 6.35993 93.5803 7.41993L93.3503 7.83993C93.8503 7.74993 94.2703 7.08993 94.8503 7.56993C94.8003 7.74993 94.6203 7.98993 94.8403 8.02993C95.1103 7.89993 96.2103 7.38993 96.8403 7.69993L96.2403 8.13993C98.7403 8.91993 100.3 7.33993 102.5 7.30993C102.34 8.55993 104.31 9.18993 105.29 9.52993L105.23 9.69993C108.2 10.2099 110.47 9.33993 113.33 9.24993C114.87 10.7999 119.13 10.6199 121.84 11.6899C121.44 11.4199 122.04 10.7899 122.55 10.7299C123.18 11.0499 124.49 10.1499 124.24 11.2099L124.01 11.1599C124.37 12.2699 125.76 12.1599 126.83 12.2999L127.18 10.9399C129.72 13.2699 134.56 10.9899 135.92 12.8299C136.63 12.5399 137.47 12.5899 138.17 12.2999L138.08 12.9999C139.95 13.2699 140.89 13.4599 143.23 13.3299L142.73 13.8099C144.05 13.8799 144.48 11.8699 145.68 11.8699L146.01 12.8899C148.29 12.9699 150.6 13.7299 152.87 12.8499C152.83 12.9899 152.77 13.2699 152.39 13.3099C153.47 13.3599 156.56 13.8299 156.15 12.5499C156.19 13.3899 158.51 12.5499 159.72 12.1399L159.55 12.7499C160.57 11.9499 160.59 11.7199 162.02 11.4399C162.36 11.4999 162.34 11.8899 161.88 11.7699C163.03 12.0099 162.74 11.1599 164.14 11.3999L163.64 11.7999C164.82 11.7699 164.71 11.5799 165.34 11.1199C166.06 10.8599 167.57 11.1199 167.77 11.6099C167.91 11.2899 168.52 10.8299 169.22 10.9199C169.33 11.0999 169.08 11.2399 168.96 11.3099C170.94 11.5099 171.82 10.4499 173.2 10.8499C173.24 11.0199 173.34 11.0999 173.45 11.1399C171.9 11.2999 170.64 11.3499 170.76 11.3099C170.8 11.8099 172.06 11.7799 171.11 12.5599C172.1 12.0899 173.75 11.1099 174.99 11.1999C175.05 11.2399 175.11 11.2799 175.17 11.3499L175.05 11.4199C175.34 11.4399 175.58 11.3599 175.82 11.2599C176.22 11.2899 176.47 11.3199 176.84 11.2899C177.02 11.6599 178.3 11.3299 178.92 11.2699C178.82 10.7799 179.64 10.7499 178.84 10.4399C178.94 10.4599 178.73 10.5099 178.32 10.5799C178.23 10.6099 178.12 10.6199 178.06 10.6599C178.07 10.6499 178.08 10.6299 178.1 10.6099C177.69 10.6599 177.16 10.7299 176.55 10.8099C177.02 10.4999 177.51 10.2299 178.23 10.4299C178.52 10.0699 178.84 9.70993 179.02 9.52993C179.94 10.1199 181.62 10.2699 181.89 10.6499C183.76 10.1399 186.35 9.84993 187.43 8.83993C187.95 8.65993 188.08 8.98993 188.3 9.07993C188 9.20993 187.63 9.24993 187.48 9.38993C188.53 9.01993 190.66 8.82993 190.84 8.24993C192.23 8.28993 190.15 8.86993 191.99 8.48993L191.76 8.68993C193.65 8.80993 195.08 8.20993 196.58 7.67993C198.07 7.13993 199.62 6.64993 201.71 6.74993C201.42 6.74993 201.28 6.74993 201.21 6.67993C203.55 6.48993 205.9 5.92993 208.25 5.43993C210.6 4.94993 212.94 4.47993 215.24 4.21993C216.54 4.03993 216.64 3.82993 217.41 3.54993L217.72 3.68993L219.02 3.19993C220.9 2.70993 222.38 2.90993 224.73 2.15993L224.4 2.13993C225.27 1.96993 227.13 1.53993 227 1.63993C227.09 1.60993 227.27 1.51993 227.61 1.47993L227.64 1.51993L229.75 1.00993C231.4 0.679928 229.52 1.18993 231.9 0.639928C232.78 0.409928 234.42 0.0399281 234.09 0.119928C233.73 0.199928 233.17 0.309928 233.14 0.309928L233.96 0.149928C234.11 0.109928 234.75 0.0499281 232.72 0.309928L231.31 0.539928L230.85 0.579928L232.04 0.409928C231.36 0.479928 230.94 0.559928 230.46 0.649928C230.34 0.649928 230.14 0.659928 229.86 0.689928C229.4 0.779928 228.95 0.879928 228.49 0.989928C228.31 0.969928 229.09 0.819928 228.16 0.919928C227.52 1.06993 228.8 0.929928 227.74 1.12993C227.06 1.17993 227.24 1.08993 226.46 1.25993C226.34 1.23993 226.5 1.18993 226.82 1.12993C226.12 1.27993 224.96 1.40993 224.61 1.56993C223.89 1.56993 222.24 1.95993 222.27 1.73993C222.06 1.81993 221.06 2.08993 220.42 2.19993C221.55 1.73993 218 2.53993 218.24 2.13993C217.42 2.55993 215.1 2.70993 213.59 3.11993C213.67 3.07993 213.83 2.98993 213.97 2.98993C213.09 3.07993 212.82 2.98993 212.24 2.98993C212.19 3.32993 210.84 3.59993 210.15 3.92993C209.02 3.73993 210.73 3.41993 210.33 3.13993C210.43 3.41993 208.52 3.67993 208.93 3.87993C208.07 3.76993 208.21 3.86993 207.73 3.60993C207.67 4.10993 206.98 3.78993 206.36 4.17993C205.14 4.08993 205.98 3.73993 204.7 4.06993C204.05 3.98993 205.18 3.65993 205.18 3.65993L205.13 3.66993ZM174.34 8.00993V7.99993C174.61 7.96993 174.83 7.93993 174.98 7.91993C174.85 7.93993 174.66 7.95993 174.34 8.00993ZM171.74 8.19993C172.06 8.19993 172.45 8.19993 172.87 8.14993C172.98 8.32993 172.89 8.51993 172.63 8.53993C172.76 8.40993 172.14 8.33993 171.74 8.19993ZM177.59 11.3099C177.18 11.4299 177.03 11.3499 176.97 11.2499C177.17 11.2199 177.39 11.1699 177.69 11.1099C177.7 11.0899 177.72 11.0699 177.73 11.0399C177.7 11.1399 177.66 11.2399 177.59 11.3099Z" fill="#F3BB28"/>
<path d="M178.27 10.5599C178.33 10.5399 178.36 10.5199 178.44 10.4999C178.35 10.4699 178.27 10.4399 178.18 10.4099C178.14 10.4699 178.09 10.5299 178.05 10.5799C178.13 10.5699 178.2 10.5599 178.27 10.5499V10.5599Z" fill="#F3BB28"/>
<path d="M7.71066 95.2899V95.2399C7.71066 95.2399 7.70066 95.3399 7.68066 95.3699C7.68066 95.3299 7.70066 95.3199 7.71066 95.2899Z" fill="#F3BB28"/>
<path d="M135.941 6.39993L135.931 6.57993L136.171 6.44993L135.941 6.39993Z" fill="#F3BB28"/>
<path d="M13.0499 108.77C13.0499 108.77 13.0299 108.87 13.0499 108.98C13.0699 108.96 13.0499 108.87 13.0499 108.77Z" fill="#F3BB28"/>
<path d="M15.7998 114.33L16.0698 115.17C15.9698 114.8 15.8798 114.54 15.7998 114.33Z" fill="#F3BB28"/>
<path d="M17.5703 118.73C17.6403 118.77 17.6803 118.77 17.7203 118.77L17.5703 118.73Z" fill="#F3BB28"/>
<path d="M4.9707 45.2799C5.0007 45.2199 5.0207 45.1499 5.0207 45.0899C5.0907 44.6199 5.0107 44.9199 4.9707 45.2799Z" fill="#F3BB28"/>
<path d="M0.840408 68.2399C0.740408 67.9899 0.630408 67.7399 0.570408 67.4699C0.500408 67.8799 0.480408 68.1999 0.840408 68.2399Z" fill="#F3BB28"/>
<path d="M19.5 23.0699C19.5 23.0699 19.5 23.0699 19.5 23.0799L19.62 22.9599L19.5 23.0699Z" fill="#F3BB28"/>
<path d="M0.690612 66.3999C0.520612 66.7999 0.490612 67.1399 0.570612 67.4699C0.620612 67.1299 0.750612 66.7499 0.690612 66.3999Z" fill="#F3BB28"/>
<path d="M20.2207 138.83L20.1807 139.06C20.1807 139.06 20.1807 139.07 20.1807 139.09L20.2107 138.83H20.2207Z" fill="#F3BB28"/>
<path d="M20.1906 139.08C20.1906 139.17 20.1606 139.25 20.1406 139.33C20.1706 139.22 20.1906 139.12 20.1906 139.08Z" fill="#F3BB28"/>
<path d="M20.0303 139.86L20.1403 139.34C20.1003 139.52 20.0403 139.74 20.0303 139.86Z" fill="#F3BB28"/>
<path d="M20.7004 132.57L20.6504 132.5C20.6504 132.5 20.6804 132.56 20.7004 132.57Z" fill="#F3BB28"/>
<path d="M20.5605 130.67C20.5705 131.12 20.5605 131.81 20.6105 132.44L20.6505 132.5C20.5805 132.21 20.7005 131.1 20.5605 130.67Z" fill="#F3BB28"/>
<path d="M20.04 122.6L20.35 124.2C20.37 123.9 20.4 123.51 20.59 124.23C20.39 122.15 20.5 124.69 20.04 122.6Z" fill="#F3BB28"/>
<path d="M18.69 117.72C19.03 118.53 18.84 117.65 18.91 117.68C18.63 117.19 18.56 117.07 18.69 117.72Z" fill="#F3BB28"/>
<path d="M4.41992 84.6599L4.91992 84.6199C4.68992 84.0099 4.72992 84.6599 4.41992 84.6599Z" fill="#F3BB28"/>
<path d="M0.590586 78.3099L0.350586 79.0099L0.860586 79.2699L0.590586 78.3099Z" fill="#F3BB28"/>
<path d="M4.16004 73.9799L4.24004 74.2599L4.04004 73.1999L4.16004 73.9799Z" fill="#F3BB28"/>
<path d="M29.4898 23.8799L28.7798 23.2799C28.5298 23.6799 29.0898 24.5399 29.4898 23.8799Z" fill="#F3BB28"/>
<path d="M51.4902 11.2999C51.9102 11.6599 52.6702 11.6899 52.9502 11.1299C52.3802 11.2199 51.7302 11.0899 51.4902 11.2999Z" fill="#F3BB28"/>
<path d="M128.331 12.1299L127.761 12.3399L128.791 12.2299L128.331 12.1299Z" fill="#F3BB28"/>
</g>
<defs>
<clipPath id="clip0_2003_230">
<rect width="234.12" height="144.48" fill="white"/>
</clipPath>
</defs>
</svg>
