<svg width="40" height="14" viewBox="0 0 40 14" fill="none" xmlns="http://www.w3.org/2000/svg">
<g clip-path="url(#clip0_2003_49)">
<path d="M26.4703 4.73C26.3003 4.69 26.1403 4.64 25.9703 4.63C25.3703 4.6 24.7803 4.6 24.1603 4.79C23.8303 4.89 23.5003 5.01 23.1903 5.18C22.7203 5.43 22.3003 5.76 21.9403 6.16C21.8803 6.23 21.8103 6.3 21.7403 6.38C21.7403 6.35 21.7403 6.34 21.7403 6.32C21.7903 5.99 21.8703 5.29 21.8103 4.3C21.8103 4.25 21.8103 4.21 21.8103 4.16C21.7903 3.82 21.7503 3.46 21.6903 3.05C21.3203 0.87 19.6903 0 19.6903 0C19.6903 0 18.0603 0.87 17.7103 3.05C17.4503 4.72 17.5703 5.88 17.6403 6.33C17.6403 6.33 17.6403 6.33 17.6403 6.34C17.5503 6.25 17.4203 6.13 17.3003 6.01C16.9303 5.66 16.5303 5.36 16.0803 5.14C15.8003 5 15.5203 4.88 15.2203 4.81C15.0903 4.78 14.9603 4.74 14.8303 4.72C14.6703 4.69 14.5203 4.65 14.3603 4.64C14.1103 4.63 13.8603 4.64 13.6103 4.64C13.3503 4.64 13.1003 4.71 12.8603 4.76C12.8403 4.76 12.8103 4.78 12.7803 4.8C12.8203 4.85 12.8503 4.88 12.8703 4.91C13.1603 5.2 13.4303 5.5 13.6703 5.83C13.8303 6.05 13.9703 6.29 14.0903 6.53C14.1803 6.71 14.2503 6.9 14.3203 7.08C14.3703 7.23 14.4103 7.39 14.4403 7.55C14.4803 7.71 14.5103 7.88 14.5203 8.03C14.5403 8.43 14.5703 8.81 14.5403 9.19C14.5203 9.45 14.5203 9.7 14.5103 9.95C14.5103 10.01 14.5103 10.06 14.5103 10.12C14.5103 10.3 14.5103 10.48 14.5103 10.66C14.5303 10.83 14.5603 10.99 14.6203 11.16C14.6803 11.32 14.7403 11.47 14.8203 11.62C15.0203 12 15.2903 12.32 15.6103 12.59C15.8203 12.77 16.0503 12.92 16.2903 13.03C16.5003 13.13 16.7103 13.21 16.9403 13.24C17.1203 13.27 17.3003 13.27 17.4903 13.27C17.7703 13.27 18.0403 13.23 18.3003 13.16C18.4803 13.11 18.6503 13.05 18.8203 12.97C19.0603 12.85 19.2803 12.69 19.4903 12.52C19.5503 12.47 19.6203 12.42 19.6903 12.38C19.7103 12.38 19.7203 12.39 19.7303 12.4C19.8403 12.48 19.9403 12.56 20.0403 12.64C20.2603 12.81 20.4903 12.96 20.7603 13.06C20.8703 13.1 20.9903 13.14 21.1003 13.17C21.2303 13.2 21.3503 13.23 21.4803 13.25C21.6103 13.27 21.7503 13.27 21.8803 13.28C22.1103 13.29 22.3303 13.28 22.5603 13.23C22.7903 13.17 23.0103 13.09 23.2303 12.97C23.5703 12.78 23.8703 12.54 24.1303 12.24C24.3803 11.96 24.5703 11.64 24.7103 11.29C24.7303 11.23 24.7403 11.17 24.7603 11.11C24.8303 10.93 24.8503 10.74 24.8603 10.56C24.8603 10.4 24.8603 10.23 24.8603 10.07C24.8603 9.91 24.8603 9.76 24.8603 9.6C24.8603 9.42 24.8403 9.25 24.8403 9.07C24.8403 8.87 24.8403 8.66 24.8403 8.45C24.8403 8.25 24.8503 8.06 24.8903 7.86C24.9503 7.52 25.0303 7.17 25.1703 6.83C25.2603 6.61 25.3703 6.41 25.4803 6.2C25.4803 6.18 25.4903 6.16 25.5103 6.15C25.6403 6.01 25.7203 5.83 25.8503 5.68C26.0503 5.46 26.2303 5.22 26.4403 5.01C26.4903 4.96 26.5403 4.9 26.6003 4.83C26.5503 4.8 26.5103 4.77 26.4703 4.76V4.73Z" fill="#E20613"/>
<path d="M10.1302 13.26C9.5102 12.41 8.7302 12.51 7.8702 12.46C6.9002 12.46 4.8602 12.55 3.9202 12.5C2.3802 12.4 -0.209797 11.56 0.0202027 9.62002C0.900203 10.22 1.6602 9.90002 2.5702 9.84002C3.4002 9.73002 4.4702 9.52002 5.3102 9.51002C7.2002 9.36002 11.1802 10.7 10.1302 13.26Z" fill="#E20613"/>
<path d="M29.2503 13.26C28.2003 10.7 32.1903 9.37003 34.0703 9.51003C34.9003 9.51003 35.9804 9.73003 36.8103 9.84003C37.7303 9.90003 38.4903 10.22 39.3603 9.62003C39.5903 11.55 37.0103 12.4 35.4603 12.5C34.5303 12.55 32.4703 12.47 31.5103 12.46C30.6403 12.51 29.8703 12.41 29.2503 13.26Z" fill="#E20613"/>
</g>
<defs>
<clipPath id="clip0_2003_49">
<rect width="39.38" height="13.28" fill="white"/>
</clipPath>
</defs>
</svg>
