<svg width="1913" height="124" viewBox="0 0 1913 124" fill="none" xmlns="http://www.w3.org/2000/svg">
<g clip-path="url(#clip0_2003_808)">
<path d="M0.530273 103.45C-0.619727 103.37 0.0302734 103.42 3.21027 103.61L5.47027 103.73L0.530273 103.44V103.45Z" fill="#F5C443"/>
<path d="M21.9396 104.77C25.6896 104.94 30.0096 105.09 27.5896 104.92C23.8696 104.78 22.9896 104.75 18.9896 104.59C15.7996 104.4 13.4296 104.23 13.9696 104.26C12.8396 104.19 9.02957 103.97 7.30957 103.86C11.4496 104.11 16.6996 104.51 22.1896 104.74C23.3696 104.81 22.2196 104.77 21.9496 104.76L21.9396 104.77Z" fill="#F5C443"/>
<path d="M332.76 90.0901L330.8 90.5701C331.34 90.4601 332.01 90.2901 332.76 90.0901Z" fill="#F5C443"/>
<path d="M328.06 0.580038C328.86 0.500038 329.43 0.500038 329.81 0.480038C330.19 0.460038 330.38 0.430039 330.43 0.400039C328.92 0.360039 327.7 0.550038 328.06 0.580038Z" fill="#F5C443"/>
<path d="M304.74 24.1201C304.88 23.3601 305.05 22.7401 305.22 22.0701C304.96 22.8301 304.75 23.6201 304.74 24.1201Z" fill="#F5C443"/>
<path d="M332.76 90.09C334.45 89.71 336.11 89.2 337.78 88.75C338.06 88.44 335.21 89.47 332.76 90.09Z" fill="#F5C443"/>
<path d="M64.8996 106.21C63.8196 106.2 62.9196 106.19 62.0996 106.18C62.9896 106.2 63.8396 106.21 64.7296 106.23C64.7796 106.23 64.8196 106.23 64.8996 106.21Z" fill="#F5C443"/>
<path d="M248.39 101.97L246.83 102.11C246.37 102.2 245.95 102.3 245.55 102.4L248.4 101.97H248.39Z" fill="#F5C443"/>
<path d="M183.15 106.29C184.63 106.25 185.13 105.92 185.69 105.76C184.86 105.93 183.77 106.04 182.48 106.11C182.46 106.17 182.66 106.23 183.15 106.3V106.29Z" fill="#F5C443"/>
<path d="M79.5304 107.07H77.6904C78.1704 107.06 78.9704 107.07 79.5304 107.07Z" fill="#F5C443"/>
<path d="M294.96 97.3601C295.08 97.4101 295.32 97.4401 295.57 97.4401C295.57 97.3901 295.32 97.3601 294.96 97.3601Z" fill="#F5C443"/>
<path d="M1836.59 120.93C1836.54 120.93 1836.61 120.95 1836.59 120.95C1836.97 120.95 1837.09 120.95 1836.59 120.93Z" fill="#F5C443"/>
<path d="M1912.3 123.33L1911.25 123.31C1911.15 123.31 1911.07 123.31 1911.02 123.31L1912.3 123.34V123.33Z" fill="#F5C443"/>
<path d="M339.64 72.62C339.54 72.56 339.5 72.54 339.41 72.48C337.95 71.78 338.76 72.21 339.64 72.62Z" fill="#F5C443"/>
<path d="M888.06 105.43C881.78 104.72 898.26 104.4 888.81 103.63C889.69 103.95 880.24 104.99 888.06 105.43Z" fill="#F5C443"/>
<path d="M66.5898 106.27C67.4698 106.29 68.3698 106.31 69.2698 106.33C68.0498 106.3 67.2298 106.28 66.5898 106.27Z" fill="#F5C443"/>
<path d="M888.81 103.63L887.83 103.55C888.23 103.58 888.46 103.6 888.81 103.63Z" fill="#F5C443"/>
<path d="M473.18 113.11C472.91 112.93 472.38 112.75 471.81 112.57C471.85 112.66 472.15 112.8 473.18 113.11Z" fill="#F5C443"/>
<path d="M372.71 86.28L375.06 87.34C374.14 86.89 373.38 86.56 372.71 86.28Z" fill="#F5C443"/>
<path d="M527.08 116.8C528.47 116.92 528.94 117.05 530.86 117.02C530.68 116.97 530.51 116.94 530.28 116.9C529.59 116.98 528.66 116.99 527.08 116.8Z" fill="#F5C443"/>
<path d="M583.2 117.53C582.9 117.47 582.51 117.43 582.16 117.38C581.6 117.4 580.96 117.43 580.38 117.45L583.19 117.52L583.2 117.53Z" fill="#F5C443"/>
<path d="M1666.52 116.05C1667.74 116.19 1668.5 116.33 1669.1 116.46C1668.24 116.17 1676.47 116.31 1666.52 116.05Z" fill="#F5C443"/>
<path d="M64.9296 106.28C65.2596 106.26 65.7396 106.25 66.5896 106.27C65.9496 106.26 65.3296 106.25 64.7296 106.23C64.5696 106.24 64.5296 106.26 64.9296 106.28Z" fill="#F5C443"/>
<path d="M529.64 110.6L538.48 111.05C536.01 110.88 532.8 110.72 529.64 110.6Z" fill="#F5C443"/>
<path d="M1265.01 105.41L1267.05 105.38C1266.26 105.34 1265.54 105.35 1265.01 105.41Z" fill="#F5C443"/>
<path d="M564.75 111.31C566.33 111.59 568.01 111.74 569.74 111.84C570.11 111.77 570.53 111.72 570.77 111.62L564.75 111.31Z" fill="#F5C443"/>
<path d="M1727.69 117.35C1719.22 117.08 1723.7 117.62 1721.9 117.8C1711.78 117.64 1717.23 117.37 1713.79 117.05C1707.47 116.97 1702.62 117.23 1697.91 117.08C1697.56 117 1696.65 116.94 1697.72 116.88C1691.04 117.05 1677.9 116.33 1670.11 116.6C1669.53 116.54 1669.24 116.49 1669.1 116.45C1670.35 116.73 1670.54 116.98 1670.28 117.16C1666.48 117.07 1663.22 117.3 1661.8 116.94C1664.13 117.01 1664.32 116.88 1665.42 116.81L1661.44 116.85C1657.87 116.28 1666.88 116.83 1666.88 116.48C1659.12 116.42 1650.06 116.6 1644.12 116.31C1642.89 115.79 1658.03 116.51 1650.1 115.87L1659.3 116.3C1652.29 115.37 1664.89 116.51 1658.45 115.54C1646.35 115.05 1644.9 115.4 1632.83 114.91C1630.1 115.11 1633.72 115.35 1630.99 115.56C1613.81 115.63 1617.51 113.88 1604.87 114.23C1601.59 114.5 1600.31 115.16 1591.33 114.56L1594.41 114.01C1582.69 113.62 1587.7 114.75 1575.43 113.99C1577.62 113.79 1584.65 114.02 1582.88 113.9C1574.94 113.17 1577.25 114.12 1571.13 113.96L1569.88 113.34C1557.4 113.08 1543.64 113.16 1529.81 112.92C1530.58 112.75 1532.95 112.62 1529.72 112.34C1512.28 112.19 1492.5 111.27 1475.7 110.39L1469.26 110.82C1467.77 110.77 1466.49 110.47 1468.11 110.4C1461.56 109.99 1467.76 110.78 1464.61 110.93C1460.88 110.88 1459.69 110.45 1462.06 110.33C1450.48 110.53 1429.09 110.62 1416.92 109.62L1419.3 109.49C1409.82 108.97 1408.56 110.56 1399.77 109.72L1401.46 109.65C1380.87 108.83 1358.1 108.9 1342.41 107.43C1339.4 108.37 1322.04 106.45 1320.68 107.85C1308.94 106.84 1312.31 106.66 1295.76 105.74C1291.34 105.56 1289.15 106.49 1283.67 106.51L1283.55 105.73L1276.11 106.36L1272.18 105.32L1267.05 105.39C1269.09 105.49 1271.38 105.85 1271.07 106.07C1263.05 106.23 1251.55 105.03 1251.36 104.61L1232.39 104.81C1232.82 104.49 1236 104.46 1238.51 104.32C1228.37 104.89 1236.69 103.42 1227.4 103.94C1228.64 104.16 1226.72 104.41 1226.5 104.57C1221.89 103.96 1211.37 103.69 1203.58 103.7L1205.09 103.17C1191.03 102.66 1175.44 102.69 1159.66 102.29C1165.31 102.7 1163.99 103.68 1159.36 103.67L1157.53 102.73C1154.53 103.21 1162.36 103.19 1156.21 103.71C1150.32 103.46 1152.27 102.59 1155.66 102.38L1148.49 102.51C1148.08 102.23 1149.76 102.13 1150.2 101.8C1147.25 102.29 1137.85 100.58 1133.59 101.45L1133.19 101.17C1117.42 100.76 1110.26 100.9 1097.4 100.63C1097.13 101.42 1092.11 101.12 1088.27 101.68C1078.83 101.21 1068.36 100.32 1056.98 100.14C1048.97 100.37 1054.63 100.77 1051.02 101.18C1050.45 100.43 1039.08 100.25 1044.99 99.85C1031.33 99.7 1027.54 99.62 1010.25 99.93C1012.12 100.27 1014.23 100.44 1013.13 100.67C1009.99 100.74 1006 100.23 1006.46 99.88L1007.29 99.82C997.58 100.2 986.4 99.52 975.71 98.87C965.01 98.28 954.81 97.69 947.08 98.45L947.95 98.38L931.92 99.11C924.55 98.94 936.34 98.56 930.89 98.06C913.6 99.3 903.57 97.85 889.34 98.8C883.82 97.68 874.04 97.86 863.78 98.12C853.52 98.41 842.79 98.88 835.33 98.31L836.2 98.82C832.37 99.45 831.54 98.64 828.7 98.59C829.11 98.99 832.88 98.96 830.5 99.31C797.96 100.75 763.25 100.85 729.87 102.5C717.67 103.15 723.13 105.68 707.69 105.44L711.98 104.17C687.48 106.99 661.76 107.6 637.79 109.88C639.21 109.58 639.24 109.29 641.58 109.17C636.47 108.75 622.81 110.12 622.75 110.67C619 110.78 621.86 110.19 619.54 110.01C614.44 109.86 606.8 111.41 604.07 110.83C603.61 110.73 605.49 110.55 606.42 110.46C603.11 110.96 590.97 110.84 594.16 111.57C585.13 111.43 576.91 112.31 569.72 111.85C565.03 112.82 554.3 111.37 552.79 112.63C553.45 111.37 537.02 111.32 531.31 111.62C533.23 111.3 526.38 111.03 528.63 110.58C522.14 110.33 516.19 110.17 517.28 110.91C515.8 110.63 514.31 110.44 512.83 110.26C511.35 110.07 509.88 109.94 508.42 109.84C505.51 109.63 502.66 109.57 499.98 109.47C494.63 109.2 489.91 108.99 486.67 107.65C467.45 106.21 449.73 103.75 432.74 100.24C432.96 99.98 434.24 100.1 436.03 100.41C437.81 100.74 440.13 101.17 442.4 101.6C446.94 102.44 451.31 103.25 451.06 102.54C447.01 101.88 443.37 101.34 439.95 100.84C436.53 100.32 433.35 99.72 430.16 99.17C426.96 98.64 423.81 97.94 420.46 97.14C418.79 96.74 417.06 96.32 415.27 95.87C413.47 95.41 411.63 94.82 409.68 94.23C405.67 92.9 412.13 94.4 413.55 94.59C397.58 90.72 383.27 85.15 369.57 80.12C369.65 80.04 371.16 80.51 372.57 80.99C369.88 79.96 366.43 78.34 366.54 78.92C367.41 79.27 368.3 79.55 369.19 79.86C370.18 80.47 369.98 80.6 369.1 80.45C368.22 80.31 366.67 79.89 365.01 79.32C361.67 78.22 357.74 76.8 357.42 76.88C358.7 77.04 358.52 76.73 357.66 76.19C356.8 75.66 355.25 74.92 353.83 74.11C350.97 72.54 348.46 71.1 352.36 71.96C350.62 71.22 348.38 70.39 348.61 70.9C346.13 69.57 345.42 69 348.16 69.9C345.81 68.85 344.25 68.16 343.11 67.65C341.96 67.17 341.22 66.86 340.51 66.57C339.1 65.97 337.76 65.46 333.82 63.02C333.98 62.82 335.61 63.74 336.59 63.96C335.52 63.48 334.47 62.95 333.37 62.41C332.29 61.84 331.17 61.23 330 60.53C327.68 59.1 325.11 57.3 322.29 54.65C322.74 54.85 322.17 54.13 323.93 55.62C322.64 54.58 321.49 53.49 320.34 52.46C319.26 51.37 318.15 50.35 317.19 49.24C316.16 48.18 315.3 47.03 314.38 45.92C313.94 45.35 313.56 44.75 313.14 44.16L312.53 43.27L311.99 42.34C310.46 39.9 309.36 37.14 308.52 34.18C308.14 32.71 307.94 31.13 307.93 29.49C307.91 27.85 308.06 26.14 308.46 24.39C308.64 26.55 308.87 25.34 309.3 23.61C309.73 21.86 310.58 19.6 311.16 19.44C312 17.12 313.1 14.86 314.52 12.83C313.81 13.55 313.14 14.31 312.5 15.11C313.33 13.67 314.25 12.35 315.23 11.11C316.2 9.87002 317.25 8.74002 318.38 7.75002C320.61 5.75002 323.23 4.31002 325.98 3.82002C324.44 4.29002 322.99 4.99002 321.65 5.87002C325.14 3.86002 329.26 3.10002 333.13 4.11002C330.98 3.43002 328.67 3.26002 326.39 3.58002C327.19 3.39002 327.79 3.23002 328.23 3.17002C328.68 3.09002 328.97 2.98002 329.16 2.94002C329.55 2.83002 329.53 2.72002 329.57 2.62002C329.62 2.53002 329.73 2.46002 330.4 2.44002C330.74 2.46002 331.21 2.51002 331.88 2.59002C332.54 2.74002 333.41 2.91002 334.48 3.31002C334.03 3.19002 334.22 3.26002 334.79 3.46002C335.36 3.71002 336.31 4.13002 337.41 4.62002C339.56 5.72002 342.07 7.56002 343.13 8.99002H343.11C345.71 11.03 348.01 13.99 349.18 18.98C349.2 19.66 348.91 19.45 348.64 19.19C348.34 18.94 348.03 18.65 348.06 19.06C348.26 19.39 348.39 19.87 348.57 20.43C348.74 21 348.94 21.66 349.05 22.42C349.34 23.92 349.52 25.72 349.57 27.61C349.7 31.38 349.34 35.42 349.29 37.97L351.09 38.08C351.07 37.56 351.03 37.15 350.99 36.81C351.1 38.23 351.52 38.29 351.63 37.84L351.41 36.45L351.3 35.75L351.26 35.05C351.51 33.49 351.85 32.66 352.02 32.26C352.2 31.86 352.3 31.9 352.41 32.19C353.07 30.02 353.55 29.21 353.6 28.87C353.67 28.54 353.43 28.76 353.22 28.94C353.01 29.12 352.83 29.27 353.04 28.76C353.09 28.63 353.17 28.46 353.27 28.24C353.4 28.04 353.57 27.78 353.77 27.47C354.16 26.84 354.81 26.04 355.8 25.07C355.21 25.71 355.58 25.49 354.49 26.91C356.17 24.74 358.35 23.03 360.69 21.62C363.04 20.21 365.56 19.07 368.09 18.04C369.35 17.53 370.65 17.03 371.91 16.59C373.09 16.16 374.35 16.01 375.59 16.09C378.07 16.25 380.47 17.43 382.08 19.27C382.67 20.64 381.45 18.88 379.69 17.92C378.83 17.43 377.9 17.08 377.37 17.01C376.84 16.92 376.75 16.99 377.44 17.33C378.99 17.77 380.44 18.65 381.58 19.84C382.69 21.07 383.51 22.52 383.82 24.27C384.64 28 384.8 31.9 384.51 35.76C384.4 36.72 384.39 37.7 384.19 38.65C384.02 39.61 383.86 40.56 383.69 41.51C383.22 43.39 382.78 45.27 382.11 47.08C380.87 50.71 379.25 54.17 377.27 57.3C377.75 56.52 378.29 55.76 378.72 54.95C378.73 55.54 378.3 56.39 377.67 57.47C377.07 58.57 376.12 59.81 375.06 61.18C372.89 63.87 370.13 66.91 367.56 69.63C368.81 68.28 368.86 67.55 368.6 67.98C365.06 71.56 361.07 74.81 356.15 77.95C351.24 81.09 345.41 84.09 338.14 86.76L339.86 85.88C337.02 86.85 333.22 87.96 329.34 89.02C325.44 90 321.45 90.92 318.24 91.46C316.39 92.08 312.7 92.65 314.99 92.59C304.98 93.72 295.46 94.99 286.19 96.24C276.94 97.55 267.94 98.62 258.99 99.1C261.12 98.88 264.05 98.4 262.36 98.58C257.31 99.2 252.25 99.68 247.19 100.22C248.42 100.42 249.2 100.22 252.41 100.18C250.5 100.54 246.23 101.07 242.46 101.41C249.28 100.59 242.36 100.92 239.39 101.02C239.89 101.07 238.89 101.26 239.15 101.33C231.16 101.43 237.87 102.04 226.99 102.54L227.55 102.34C223.5 102.75 219.77 103.23 215.38 103.46C213.54 103.26 219.7 103.02 219.96 102.73C213.81 103.17 207.85 104.16 202.26 104.21C204.87 103.96 208.63 103.7 211.24 103.44C205.15 103.47 204.45 103.66 199.94 103.84L200.38 103.82L189.94 104.26L192.6 104.2C184.93 105.44 176.91 105.14 166.54 106.06C176.62 105.19 168.2 105.74 168.96 105.4C166.3 105.45 162.27 105.48 163.41 105.37C158.51 105.77 155.21 105.48 148.28 106.05C147.97 105.99 143.02 106.17 144.13 105.93C137.74 106.15 145.64 106.04 145.11 106.16C140.19 106.41 134.4 106.46 128.07 106.51C121.74 106.49 114.87 106.58 107.79 106.74C95.5696 106.85 93.3096 107.08 81.9696 106.95C78.1396 106.81 85.1096 106.81 85.1096 106.81C78.9396 106.63 74.2896 106.63 68.4696 106.5C69.6496 106.5 68.4396 106.43 66.6596 106.34C61.9896 106.24 63.5296 106.41 57.3796 106.19C58.4396 106.18 59.7996 106.14 62.0496 106.15C56.5496 106.08 51.1096 105.94 45.4196 105.75C43.9096 105.64 48.8596 105.8 50.8696 105.83C44.4696 105.62 34.3096 105.28 32.3096 105.21L36.4096 105.44C34.0796 105.33 35.2096 105.33 36.9296 105.4C42.4196 105.55 44.8396 105.72 45.1496 105.76L41.0896 105.62C43.1696 105.78 47.2396 105.94 51.8096 106.09C56.3796 106.27 61.4596 106.29 65.5396 106.41L62.1296 106.49L70.5096 106.57C72.2896 106.67 73.5096 106.82 69.4696 106.73C75.3196 107.01 74.6496 106.8 79.6796 107C80.2296 107.03 79.9796 107.03 79.4696 107.03L85.1896 107.07C84.0696 107.1 86.1396 107.25 82.6196 107.15C92.8896 107.52 99.1796 107.18 103.05 107.41H102.19C116.44 107.41 103.57 107.28 114.26 106.99L121.46 107.5L122.86 107.26C124.33 107.26 127.24 107.26 126.7 107.36C132.17 107.17 125.77 107.26 128.94 107.09C136.02 107.18 148.44 106.64 150.05 106.99C152.58 106.7 143.28 107.03 150.83 106.66C153 107.08 159.56 106.31 166.02 106.35C164.05 106.67 157.92 106.71 164.39 106.76C168.27 106.19 176.97 106.37 182.42 106.08C182.66 105.73 194.26 105.32 203.39 104.7C203.11 104.79 207.4 104.57 212.84 104.28C215.56 104.14 218.56 103.98 221.41 103.83C224.26 103.66 226.97 103.49 229.09 103.37L228.85 103.47C230.46 102.86 239.23 102.35 245.58 101.64C245.36 101.96 244.22 102.18 240.78 102.61L246.77 102.09C248.17 101.81 250.03 101.56 253.91 101.16L252.44 101.67C256.43 101.33 260.43 100.84 264.71 100.32C269 99.8 273.57 99.34 278.71 98.91C279.24 98.46 270.46 98.78 281.25 97.29C281.67 97.45 282.11 97.76 279.29 98.16C280.21 98.03 282.58 97.61 284.45 97.49L280.17 98.33C284.85 97.96 282.57 97.77 286.3 97.38C286.26 97.69 289.08 97.28 288.57 97.58C287.62 97.71 285.31 97.82 283.89 98.1C288.1 97.68 293.2 97.3 294.9 97.34C294.51 97.21 294.85 96.93 297.92 96.52C305.86 95.49 300.69 96.57 305.35 96.1C307.25 95.64 312.35 95.08 312.4 94.59C314.72 94.2 315.18 94.35 316.1 94.32C317.12 94.1 318.82 93.75 320.72 93.34C322.62 92.92 324.73 92.47 326.55 92C330.2 91.09 332.71 90.24 330.39 90.62C330.04 90.71 329.7 90.79 329.35 90.86C329.54 90.8 329.77 90.75 330 90.67C336.52 88.69 343.24 86.46 349.69 83.52C351.31 82.81 352.87 81.95 354.45 81.18C355.98 80.29 357.54 79.47 359.01 78.51C360.47 77.53 361.97 76.63 363.32 75.53C364 74.99 364.71 74.49 365.36 73.93C366 73.35 366.64 72.78 367.27 72.21L367.38 72.36C370.34 69.55 373.37 66.16 375.84 62.71C378.29 59.25 380.14 55.74 381.24 53.06C381.77 51.98 382.37 50.71 382.88 49.85C383.4 48.99 383.67 48.49 383.62 49.02C384.1 47.53 384.51 46.38 384.78 45.33C385.04 44.28 385.27 43.35 385.52 42.34C385.75 41.32 385.94 40.21 386.25 38.81C386.42 38.11 386.48 37.32 386.62 36.43C386.75 35.54 386.93 34.55 386.97 33.42C387.03 35.01 386.93 35.66 386.97 35.89C386.99 36.12 387.04 35.92 387.06 35.8C387.09 35.68 387.1 35.62 387.03 36.14C387 36.4 386.95 36.8 386.87 37.41C386.83 37.71 386.78 38.07 386.73 38.48C386.65 38.89 386.55 39.35 386.44 39.89C386.55 39.39 386.66 38.91 386.76 38.46C386.83 38 386.89 37.56 386.96 37.14C387.09 36.29 387.2 35.52 387.31 34.79C387.42 33.32 387.51 32.04 387.55 30.73C387.48 29.43 387.47 28.09 387.25 26.55C387.11 25.78 386.96 24.96 386.79 24.06C386.75 23.84 386.7 23.61 386.65 23.37C386.57 23.12 386.5 22.86 386.42 22.6C386.28 22.07 386.02 21.55 385.78 21C386.19 21.71 386.29 21.68 386.16 21.13C386.05 20.58 385.6 19.54 384.84 18.39C384.05 17.27 382.88 16.11 381.57 15.29C380.26 14.46 378.85 13.93 377.76 13.73C379.84 14.37 381.73 15.51 383.16 17.07C379.59 13.81 374.79 13.05 370.78 14.45C371.4 14.02 372.13 13.54 372.9 13.21C372.39 13.26 371.89 13.34 371.41 13.48L370.68 13.67L370.08 13.86C369.28 14.12 368.48 14.36 367.7 14.65C366.13 15.21 364.6 15.81 363.12 16.5C360.16 17.87 357.36 19.55 354.99 21.74C352.6 23.9 350.83 26.69 349.84 29.55C348.83 32.43 348.52 35.32 348.41 38.11L351.88 38.32C352.03 37.21 352.21 36.12 352.39 35.04C352.54 33.95 352.75 32.87 352.92 31.77C352.73 29.53 352.63 31.83 352.31 34.13C352.03 36.44 351.61 38.76 351.54 36.79C352.01 33.02 352.49 29.13 352.59 25.79C352.59 24.96 352.64 24.16 352.62 23.42C352.59 22.67 352.55 21.98 352.53 21.35C352.43 20.09 352.25 19.09 352.13 18.47C351.98 17.79 351.79 17.16 351.63 16.56C351.48 15.96 351.28 15.42 351.06 14.91C350.85 14.41 350.65 13.94 350.46 13.49C350.26 13.05 350 12.67 349.79 12.29C349.35 11.54 348.94 10.89 348.45 10.35C347.97 9.80002 347.57 9.25002 347.06 8.79002C346.56 8.33002 346.05 7.87002 345.51 7.37002C344.95 6.91002 344.31 6.46002 343.63 5.91002C342.95 5.36002 342.1 4.90002 341.2 4.26002C340.75 3.94002 340.21 3.70002 339.67 3.39002C339.12 3.11002 338.56 2.71002 337.9 2.45002C338.53 2.83002 339 3.45002 338.43 3.40002C338.15 3.36002 337.57 3.27002 336.6 2.97002C335.64 2.69002 334.25 2.13002 332.2 1.84002C328.39 1.16002 325.94 1.56002 325.08 1.44002C324.64 1.39002 324.59 1.25002 324.97 1.02002C325.34 0.780021 326.17 0.500021 327.47 0.290021C327.97 0.250021 328.4 0.220021 328.78 0.210021C329.15 0.210021 329.46 0.240021 329.7 0.260021C330.18 0.300021 330.4 0.360021 330.35 0.400021C333.04 0.430021 336.46 1.56002 333.33 0.340021L332.21 0.380021C330.2 -0.169979 326.11 -0.179979 323.19 0.850021C321.71 1.28002 320.51 1.84002 319.81 2.14002C319.1 2.44002 318.87 2.47002 319.42 2.05002C318.06 2.89002 317.32 3.49002 316.97 3.82002C316.62 4.14002 316.66 4.18002 316.97 4.02002C317.58 3.69002 319.31 2.58002 321.47 1.71002C318.99 2.69002 317 4.01002 315.32 5.42002C313.64 6.84002 312.26 8.36002 311.03 9.99002C308.61 13.27 306.6 16.93 305.16 22.08C305.73 20.46 306.52 19.1 306.04 20.7C304.87 24.39 304.74 26.82 304.72 28.36C304.73 29.91 304.85 30.61 305 31.14C305.15 31.67 305.26 32.05 305.51 32.93C305.72 33.8 306.06 35.22 306.9 37.61C307.2 39.04 307.39 39.61 307.36 39.88C307.35 40.14 307.2 40.07 307.14 40.12C307.07 40.17 307.08 40.34 307.38 41.1C307.65 41.87 308.33 43.17 309.67 45.4C311.2 48.18 311.28 48.55 310.68 48.02C310.13 47.45 308.91 45.96 308.21 44.86C310.78 48.99 313.55 52.5 316.17 55.44C318.8 58.36 321.24 60.79 323.36 62.45C322.68 61.97 322 61.5 321.33 61L319.35 59.46C320.54 60.38 321.58 61.26 322.63 62.02C323.65 62.81 324.63 63.56 325.64 64.27C324.99 63.56 324.34 62.86 323.72 62.11C325.96 63.96 327.99 65.33 327.81 65.5C330.5 66.81 326.47 63.46 331.65 66.2C333.17 67.34 335.69 68.76 337.95 69.98C340.2 71.22 342.18 72.27 342.58 72.93C337.38 70.06 337.61 70.31 337.97 70.82C338.34 71.29 338.87 72 334.44 69.51C336.18 70.43 338.25 71.6 340.73 73.02C341.07 73.3 340.3 72.98 339.59 72.65C342.03 74.17 343.59 74.93 344.69 75.43C345.79 75.92 346.45 76.09 347.12 76.25C348.48 76.55 349.88 76.89 355.18 79.38C353.63 79.18 357.3 81.28 359.09 81.98C354.77 80.03 357.34 80.36 361.43 81.82C363.11 82.67 364.42 83.29 365.5 83.76C366.59 84.2 367.45 84.5 368.21 84.75C369.73 85.25 370.84 85.55 372.66 86.31L368.57 84.47C370.16 84.6 373.59 86.12 378.51 87.87C378.78 88.4 374.01 86.36 375.68 87.2C377.09 87.58 378.56 88.06 380.08 88.64C381.6 89.23 383.16 89.92 384.8 90.65C386.44 91.36 388.12 92.17 389.92 92.83C391.72 93.49 393.6 94.11 395.56 94.6C399.03 96.07 395.63 95.55 398.71 96.79C400.91 97.38 402.61 97.8 404.04 98.25C405.47 98.69 406.64 99.13 407.83 99.56C410.2 100.43 412.62 101.39 417.32 102.31C414.81 101 414.32 101.03 420.97 102.12L413.32 100.37L405.72 98.39L410.68 99.36L413.16 99.84L415.65 100.25C413.36 99.67 410.94 99.06 408.75 98.51C406.56 97.96 404.6 97.47 403.25 97.02C408 97.87 407.47 97.88 405.46 96.74C408.43 98.08 411.53 98.91 414.8 99.58C418.07 100.24 421.46 100.89 425 102.14L424.4 103.63C435.22 106.88 444.07 107.36 458.4 110.11L453.82 109.04C455.86 108.72 462.71 110.52 467.43 110.87C466.92 111.35 469.81 111.96 471.76 112.59C471.67 112.36 474.31 112.8 477.17 113.04C480.03 113.31 483.09 113.51 483.81 113.04C485.94 113.55 488.07 114.04 490.2 114.48C501.91 115.96 503.72 114.18 514.97 115.17C513.25 115.37 513.67 115.65 513.56 115.87C513.46 116.1 512.84 116.27 509.04 116.19C512.81 116.52 516.2 116.78 516.28 116.4C518.47 116.87 526.78 116.29 530.22 116.91C531.82 116.73 532.36 116.16 536.59 116.38C537.05 116.51 536.56 116.66 536.56 116.66C536.59 116.41 543.2 116.47 539.52 115.76C542.41 116.27 545.88 116.56 549.63 116.75C553.38 116.92 557.39 116.9 561.35 116.92C569.28 116.88 577.02 116.75 582.09 117.41C586.2 117.24 590.74 117.06 595.18 116.87C599.62 116.68 603.96 116.49 607.69 116.33C607.22 116.52 607.68 116.62 606.26 116.61C616.58 116.76 612.53 114.76 624.26 114.82C630.28 115.49 618.07 115.6 621.81 115.79C623.52 117.64 635.93 114.87 643.86 115.54L641.96 115.76C648.02 116.07 656.61 114.2 666.44 113.72C666.44 113.72 665.97 113.92 666.4 114.01C673.06 112.61 685.75 111.45 695.18 110.54C692.29 111.49 690.91 111.22 692.76 111.87C696.99 111.48 691.44 110.72 699.87 109.94C702.65 110.17 708.77 110.12 709.63 110.89L701.66 111.47C705.82 112.25 711.98 110.75 716.19 110.65L715.68 111.15C727.89 110.21 727.98 109.01 741.12 108.3L739.74 108.03C746.85 106.43 745.79 108.33 752.91 107.07L755.14 108.13C757.5 107.85 761.63 107.37 766.23 106.83C770.83 106.32 775.91 105.85 780.16 105.54C775.38 106.62 765.46 107.51 759.34 108.39C761.69 108.27 765.67 108.02 769.37 107.75C773.07 107.49 776.49 107.17 777.7 106.82C775.81 107.02 773.44 107.41 771.56 107.31C777.28 106.14 784.84 105.3 794.21 104.97C792.64 107.32 818.64 104.66 825.48 106.32C829.61 106 833.74 105.79 837.89 105.69C842.05 105.6 846.24 105.59 850.52 105.59C859.08 105.58 867.98 105.76 877.63 105.57C870.76 103.88 883.26 105.45 882.06 103.64C886.56 103.48 888.27 103.51 888.68 103.63L902.32 104.64C905.55 105.15 898.05 105.07 898.46 105.48C908.3 105.57 902.59 106.21 909.11 106.69C907.77 106.04 912.53 105.76 918.14 106L910.24 105.16C924 104.2 922.13 106.65 936 105.75L931.61 106.3C938.73 105.99 957.86 106.42 964.85 105.06C966.11 105.28 967.77 105.79 964.63 105.89C981.63 106.23 1002.52 104.8 1015.73 105.89L1014.43 106.31C1017.61 106.24 1019.97 105.57 1023.94 106.08C1023.73 106.26 1022.65 106.49 1024.12 106.54C1025.8 106.42 1032.57 105.93 1036.77 106.26L1033.17 106.68C1049.75 107.53 1058.66 105.99 1072.59 105.98C1072.53 107.24 1085.58 107.92 1092.09 108.26L1091.86 108.43C1111.18 108.99 1124.72 108.1 1142.63 108.02C1153.71 109.58 1180.25 109.39 1198.09 110.49C1195.37 110.22 1198.56 109.58 1201.73 109.53C1205.91 109.86 1213.33 108.97 1212.64 110.03L1211.15 109.98C1214.28 111.1 1222.9 111 1229.63 111.17L1230.77 109.8C1248.31 112.17 1276.87 110.06 1286.43 112.02C1290.68 111.77 1295.94 111.89 1300.15 111.64L1299.91 112.34C1311.67 112.76 1317.54 112.96 1332.08 113.09L1329.1 113.52C1337.3 113.72 1339.5 111.75 1347.06 111.88L1349.31 112.94C1363.62 113.22 1378.07 114.37 1392.23 113.77C1391.99 113.91 1391.57 114.18 1389.25 114.17C1395.98 114.33 1415.28 115.32 1412.87 113.98C1413.02 114.82 1427.63 114.36 1435.36 114.16L1434.14 114.74C1440.68 114.1 1440.89 113.9 1450 113.88C1452.16 114 1451.88 114.39 1449.02 114.18C1456.2 114.64 1454.64 113.74 1463.35 114.24L1460.09 114.54C1467.49 114.74 1466.9 114.53 1470.99 114.19C1475.65 114.06 1485.02 114.64 1486.1 115.16C1487.1 114.87 1491.17 114.55 1495.52 114.79C1496.1 114.99 1494.51 115.07 1493.71 115.12C1506.07 115.74 1512.12 114.88 1520.61 115.58C1520.78 115.76 1521.34 115.86 1522.04 115.92C1512.21 115.71 1504.3 115.52 1505.04 115.49C1505.03 115.99 1512.97 116.23 1506.63 116.8C1513.01 116.54 1523.93 115.95 1531.66 116.34C1532.03 116.39 1532.4 116.45 1532.68 116.53L1531.88 116.57C1533.66 116.65 1535.26 116.64 1536.77 116.59C1539.24 116.72 1540.8 116.8 1543.18 116.86C1544.09 117.26 1552.28 117.24 1556.24 117.33C1555.92 116.82 1561.1 117.01 1556.26 116.5C1556.89 116.55 1555.51 116.54 1552.88 116.51C1552.28 116.51 1551.58 116.51 1551.19 116.53C1551.27 116.52 1551.36 116.51 1551.46 116.49C1548.86 116.45 1545.47 116.39 1541.62 116.32C1544.75 116.12 1548.03 115.98 1552.4 116.35C1554.44 116.07 1556.68 115.79 1557.95 115.66C1563.35 116.48 1573.78 117.05 1575.23 117.49C1587.32 117.46 1603.71 117.85 1611.33 117.18C1614.77 117.15 1615.28 117.5 1616.56 117.65C1614.57 117.69 1612.21 117.63 1611.14 117.73C1618.02 117.66 1631.5 118.05 1633.15 117.54C1641.81 117.97 1628.27 117.94 1640.17 118.1L1638.56 118.23C1650.26 118.88 1659.78 118.72 1669.62 118.63C1679.46 118.54 1689.62 118.54 1702.58 119.26C1700.78 119.17 1699.89 119.12 1699.52 119.04C1714.31 119.54 1729.56 119.75 1744.75 120.01C1759.95 120.26 1775.09 120.57 1789.69 121.06C1797.99 121.3 1798.89 121.14 1803.96 121.13L1805.75 121.37L1814.42 121.32C1826.7 121.46 1835.68 122.14 1851.23 122.19L1849.23 122.07C1854.81 122.2 1866.92 122.39 1865.98 122.45C1866.55 122.45 1867.81 122.42 1869.99 122.5L1870.16 122.55L1883.88 122.76C1894.51 122.99 1882.21 122.85 1897.73 123.12C1903.3 123.21 1909.9 123.31 1911.99 123.35C1909.67 123.3 1906.1 123.22 1905.87 123.22L1911.15 123.33C1912.11 123.33 1916.16 123.49 1903.22 123.07L1894.2 122.82L1891.29 122.7L1898.88 122.93C1894.57 122.77 1891.84 122.7 1888.78 122.64C1888.05 122.61 1886.79 122.56 1885 122.48L1876.14 122.31C1875.07 122.23 1880.11 122.34 1874.17 122.13C1870.02 122.06 1878.15 122.35 1871.28 122.19C1866.96 122.01 1868.23 121.99 1863.16 121.9C1862.45 121.84 1863.52 121.85 1865.53 121.9C1861.02 121.81 1853.6 121.56 1851.27 121.59C1846.77 121.35 1836.04 121.18 1836.49 120.98C1835.07 120.98 1828.54 120.92 1824.4 120.82C1831.97 120.74 1808.9 120.36 1810.9 120.06C1805.29 120.19 1790.67 119.58 1780.74 119.5C1781.3 119.49 1782.39 119.46 1783.26 119.5C1777.68 119.31 1776.06 119.14 1772.47 118.96C1771.75 119.27 1763.05 119.1 1758.36 119.19C1751.53 118.65 1762.53 118.88 1760.39 118.5C1760.73 118.79 1748.49 118.44 1750.81 118.76C1745.58 118.39 1746.3 118.53 1743.61 118.13C1742.68 118.59 1738.73 118.07 1734.39 118.25C1726.82 117.79 1732.45 117.71 1724.13 117.63C1720.18 117.35 1727.58 117.38 1727.58 117.38L1727.69 117.35ZM1529.78 113.08V113.07C1531.48 113.1 1532.94 113.13 1533.87 113.15C1533.02 113.14 1531.84 113.12 1529.78 113.08ZM1513.15 112.66C1515.17 112.72 1517.7 112.79 1520.36 112.87C1520.94 113.07 1520.3 113.24 1518.63 113.19C1519.54 113.09 1515.62 112.88 1513.15 112.66ZM1548.25 117.08C1545.62 117.1 1544.74 116.99 1544.38 116.87C1545.62 116.87 1547.08 116.89 1548.99 116.9C1549.07 116.89 1549.22 116.86 1549.3 116.84C1549.05 116.93 1548.76 117.02 1548.25 117.07V117.08Z" fill="#F5C443"/>
<path d="M1552.99 116.51C1553.37 116.51 1553.58 116.49 1554.08 116.5C1553.54 116.45 1553.03 116.4 1552.51 116.35C1552.19 116.4 1551.86 116.45 1551.57 116.49C1552.05 116.49 1552.54 116.5 1552.99 116.51Z" fill="#F5C443"/>
<path d="M330.45 90.6501L330.79 90.5701C330.5 90.6301 330.24 90.6801 330.06 90.7001C330.29 90.6601 330.3 90.6701 330.45 90.6501Z" fill="#F5C443"/>
<path d="M1283.54 105.53L1283.56 105.71L1285.02 105.59L1283.54 105.53Z" fill="#F5C443"/>
<path d="M239.44 101.05C239.26 101.03 238.92 101.03 238.23 101.05C238.28 101.07 238.8 101.06 239.44 101.05Z" fill="#F5C443"/>
<path d="M199.98 103.86L194.39 104.07C196.81 103.98 198.57 103.91 199.98 103.86Z" fill="#F5C443"/>
<path d="M169.6 105.29C169.22 105.36 169.11 105.4 169.01 105.44C169.03 105.44 169.05 105.44 169.07 105.44L169.6 105.29Z" fill="#F5C443"/>
<path d="M372.59 80.98C372.97 81.13 373.34 81.27 373.68 81.38C376.27 82.27 374.52 81.63 372.59 80.98Z" fill="#F5C443"/>
<path d="M343.14 9.01007C342.54 8.58007 341.99 8.11007 341.38 7.72007C340.76 7.34007 340.13 6.96007 339.48 6.57007C339.97 6.92007 340.44 7.25007 340.86 7.56007C341.07 7.71007 341.28 7.84007 341.47 7.97007C341.65 8.12007 341.81 8.25007 341.96 8.37007C342.57 8.86007 342.99 9.11007 343.14 9.01007Z" fill="#F5C443"/>
<path d="M528.67 110.55C528.67 110.55 528.67 110.55 528.65 110.56C528.99 110.57 529.29 110.58 529.64 110.6L528.67 110.55Z" fill="#F5C443"/>
<path d="M333.69 3.93994C333.97 4.03994 334.24 4.13994 334.51 4.23994C334.78 4.35994 335.04 4.47994 335.3 4.59994C335.82 4.81994 336.32 5.03994 336.81 5.24994C337.77 5.67994 338.62 6.16994 339.48 6.56994C338.6 6.09994 337.69 5.47994 336.68 5.04994C335.67 4.62994 334.65 4.13994 333.69 3.93994Z" fill="#F5C443"/>
<path d="M37.7902 105.37L36.3302 105.31C36.3302 105.31 36.2702 105.31 36.1602 105.31L37.8002 105.37H37.7902Z" fill="#F5C443"/>
<path d="M36.1495 105.31L34.5195 105.24C35.2695 105.27 35.9095 105.3 36.1495 105.31Z" fill="#F5C443"/>
<path d="M31.0996 105.1L34.5196 105.24C33.3396 105.19 31.8796 105.13 31.0996 105.1Z" fill="#F5C443"/>
<path d="M78.04 106.52L78.5 106.47C78.25 106.47 78.09 106.49 78.04 106.52Z" fill="#F5C443"/>
<path d="M90.2798 106.65C87.3598 106.6 82.9598 106.44 78.8898 106.43L78.5098 106.47C80.4298 106.41 87.5098 106.71 90.2898 106.65H90.2798Z" fill="#F5C443"/>
<path d="M141.38 107.28L131.12 107.38C132.91 107.44 135.27 107.52 130.61 107.61C143.55 107.68 127.94 107.46 141.38 107.28Z" fill="#F5C443"/>
<path d="M173.19 106.54C167.68 106.81 173.26 106.7 172.97 106.77C176.46 106.54 177.31 106.47 173.19 106.54Z" fill="#F5C443"/>
<path d="M384.66 46.8899L384.94 47.5899C386.32 43.4299 384.78 47.4999 384.66 46.8899Z" fill="#F5C443"/>
<path d="M369.45 17.9999C370.75 17.6499 372.16 17.1999 373.23 17.0899C373.48 16.9699 373.74 16.8299 374.01 16.7099L374.85 16.4199C373.96 16.4899 373.07 16.6199 372.23 16.9299C371.36 17.2299 370.37 17.6399 369.45 17.9999Z" fill="#F5C443"/>
<path d="M348.26 32.78L348.68 30.73C348.03 33.21 347.84 35.69 347.85 38.12L347.92 35.46C348.03 34.57 348.1 33.67 348.26 32.77V32.78Z" fill="#F5C443"/>
<path d="M573.23 118.36L571.94 117.46C569.06 117.64 568.46 118.66 573.23 118.36Z" fill="#F5C443"/>
<path d="M739.75 108.91C741.59 109.27 746.28 109.29 749.14 108.68C745.4 108.81 741.65 108.68 739.75 108.91Z" fill="#F5C443"/>
<path d="M1239.2 111.01L1235.84 111.22L1242.16 111.12L1239.2 111.01Z" fill="#F5C443"/>
</g>
<defs>
<clipPath id="clip0_2003_808">
<rect width="1912.61" height="123.34" fill="white"/>
</clipPath>
</defs>
</svg>
