<svg width="371" height="64" viewBox="0 0 371 64" fill="none" xmlns="http://www.w3.org/2000/svg">
<g clip-path="url(#clip0_2017_253)">
<path d="M370.915 0.0848068C371.102 -0.106016 371 0.0105977 370.485 0.508859L370.13 0.879904L370.915 0.0742055V0.0848068Z" fill="#F5C443"/>
<path d="M367.409 3.42422C366.791 3.99669 366.1 4.70697 366.539 4.38893C367.119 3.77406 367.287 3.65744 367.923 3.01077C368.465 2.53371 368.839 2.14146 368.765 2.24747C368.952 2.05665 369.522 1.48418 369.831 1.17674C369.148 1.82342 368.306 2.66092 367.39 3.49843C367.184 3.66805 367.371 3.48782 367.409 3.43482V3.42422Z" fill="#F5C443"/>
<path d="M307.01 33.8923L307.44 33.8287C307.318 33.8287 307.169 33.8499 307.01 33.8923Z" fill="#F5C443"/>
<path d="M266.65 42.6066C266.958 42.543 267.08 42.4476 267.089 42.3734C266.809 42.4688 266.575 42.543 266.65 42.6066Z" fill="#F5C443"/>
<path d="M259.608 42.5536C259.758 42.5536 259.889 42.5642 260.02 42.5748C259.861 42.5112 259.693 42.49 259.608 42.5536Z" fill="#F5C443"/>
<path d="M307.01 33.8923L305.906 34.0301C305.878 34.2422 306.486 34.0089 307.01 33.8923Z" fill="#F5C443"/>
<path d="M360.105 9.78499C360.292 9.62597 360.442 9.48815 360.582 9.36094C360.433 9.48815 360.283 9.61537 360.124 9.74259C360.124 9.75319 360.124 9.76379 360.105 9.78499Z" fill="#F5C443"/>
<path d="M324.234 27.4573L324.552 27.3407C324.627 27.2559 324.693 27.1605 324.758 27.0545L324.234 27.4573Z" fill="#F5C443"/>
<path d="M337.243 21.8811C336.953 22.0083 336.953 22.3475 336.896 22.5277C337.018 22.3369 337.205 22.1673 337.458 22.0295C337.439 21.9765 337.383 21.9235 337.252 21.8811H337.243Z" fill="#F5C443"/>
<path d="M357.197 11.195L357.525 10.9511C357.44 11.0147 357.3 11.1208 357.197 11.195Z" fill="#F5C443"/>
<path d="M314.723 30.7968C314.686 30.7437 314.621 30.7013 314.556 30.6801C314.574 30.7331 314.63 30.7755 314.723 30.7968Z" fill="#F5C443"/>
<path d="M16.2425 14.7358V14.7146C16.1591 14.7358 16.1406 14.7464 16.2425 14.7358Z" fill="#F5C443"/>
<path d="M0.0654297 15.3719L0.289859 15.3613L0.336615 15.3507L0.0654297 15.3719Z" fill="#F5C443"/>
<path d="M246.872 42.437C246.872 42.437 246.909 42.437 246.928 42.4476C247.255 42.3522 247.068 42.3734 246.872 42.437Z" fill="#F5C443"/>
<path d="M129.43 29.62C130.73 30.5105 127.176 30.4787 129.159 31.507C128.99 31.1466 131.085 30.2561 129.43 29.62Z" fill="#F5C443"/>
<path d="M359.807 9.99702C359.648 10.1136 359.498 10.2514 359.33 10.3681C359.555 10.209 359.695 10.0924 359.807 9.99702Z" fill="#F5C443"/>
<path d="M129.159 31.507L129.365 31.6131C129.281 31.5707 129.234 31.5494 129.159 31.507Z" fill="#F5C443"/>
<path d="M217.594 41.1648C217.641 41.3132 217.753 41.4405 217.865 41.5571C217.865 41.4723 217.799 41.3662 217.594 41.1648Z" fill="#F5C443"/>
<path d="M239.419 43.953L238.877 43.8469C239.092 43.9212 239.26 43.9424 239.419 43.953Z" fill="#F5C443"/>
<path d="M206.119 40.9422C205.829 40.8362 205.745 40.709 205.324 40.7726C205.362 40.8256 205.39 40.8574 205.436 40.8892C205.595 40.7938 205.792 40.762 206.119 40.9422Z" fill="#F5C443"/>
<path d="M194.271 39.2778C194.328 39.352 194.402 39.4156 194.468 39.4792C194.589 39.4792 194.73 39.4792 194.851 39.4792L194.271 39.2672V39.2778Z" fill="#F5C443"/>
<path d="M52.4417 15.3507C52.1893 15.2023 52.0303 15.075 51.9181 14.9478C52.0864 15.2447 50.3377 15.2129 52.4417 15.3507Z" fill="#F5C443"/>
<path d="M360.068 9.72138C360.021 9.79559 359.946 9.8698 359.797 9.99702C359.909 9.90161 360.021 9.8168 360.124 9.73199C360.143 9.68958 360.143 9.67898 360.068 9.72138Z" fill="#F5C443"/>
<path d="M204.969 47.5044L203.08 47.1439C203.604 47.2924 204.286 47.4302 204.969 47.5044Z" fill="#F5C443"/>
<path d="M117.919 54.0984L117.993 53.8016C117.928 53.8864 117.891 53.9818 117.919 54.0984Z" fill="#F5C443"/>
<path d="M197.442 46.5503C197.133 46.211 196.797 45.9884 196.441 45.8188C196.357 45.8718 196.264 45.9142 196.198 46.0096L197.442 46.5503Z" fill="#F5C443"/>
<path d="M39.4623 15.0326C41.2577 15.128 40.3132 14.651 40.6966 14.4284C42.8474 14.386 41.6879 14.7888 42.4173 15.0432C43.7545 15.0008 44.8018 14.5874 45.7931 14.6934C45.8679 14.7782 46.0549 14.8206 45.8305 14.9054C47.2612 14.6298 50.0292 15.2023 51.703 14.81C51.8246 14.863 51.8807 14.916 51.9087 14.9584C51.6563 14.6828 51.6282 14.4178 51.6937 14.2269C52.5072 14.2481 53.2086 14.0255 53.4985 14.3966C53.0028 14.3329 52.9561 14.4708 52.7223 14.5556L53.5733 14.492C54.3027 15.075 52.4137 14.545 52.395 14.916C54.0408 14.9372 55.9952 14.704 57.2389 14.9796C57.4634 15.5203 54.284 14.8418 55.9298 15.4779L53.9941 15.075C55.4342 16.0292 52.8158 14.8842 54.125 15.8807C56.6592 16.3366 56.9958 15.9549 59.53 16.4108C60.1285 16.2094 59.3804 15.9443 59.9788 15.7323C63.6539 15.7323 62.672 17.5769 65.3932 17.2695C66.1226 17.0151 66.4873 16.273 68.3108 17.0787L67.5814 17.5981C69.994 18.2024 69.115 16.9409 71.593 17.9374C71.0974 18.107 69.648 17.7466 70.0033 17.9162C71.565 18.8067 71.2283 17.789 72.5001 18.054L72.6591 18.7219C73.9682 18.9127 75.3148 19.2307 76.7269 19.4534C78.1295 19.7078 79.579 19.9304 81.0004 20.2909C80.804 20.4287 80.271 20.4817 80.8788 20.8951C82.6649 21.3616 84.5258 22.0401 86.3399 22.814C87.2563 23.1638 88.1166 23.6727 88.9676 24.1497C89.8092 24.6374 90.6228 25.1251 91.4083 25.5809L92.8671 25.5385C93.1569 25.6763 93.3066 26.0474 92.9512 26.0262C94.1388 26.8213 93.1569 25.6763 93.8489 25.7081C94.569 26.0368 94.6531 26.5562 94.1388 26.4926C96.4673 27.1923 100.872 28.6553 102.695 30.8816L102.181 30.7756C103.752 32.1431 104.743 30.818 106.052 32.4188L105.688 32.3233C106.146 32.6414 106.585 33.0124 107.025 33.3941C107.474 33.7545 107.923 34.115 108.371 34.486C109.278 35.1963 110.186 35.9066 111.055 36.5957C111.962 37.2847 112.682 37.995 113.299 38.7689C113.926 39.5322 114.403 40.3697 114.73 41.186C115.263 41.08 115.862 42.0129 116.348 42.9246C116.862 43.8257 117.292 44.695 117.947 44.43C118.078 45.0979 118.134 45.5538 118.171 45.9142C118.171 46.2852 118.171 46.5609 118.171 46.8683C118.181 47.1545 118.199 47.4726 118.218 47.939C118.228 48.1617 118.256 48.4161 118.284 48.7023C118.284 48.978 118.293 49.3066 118.302 49.6777C118.358 50.0699 118.536 50.2819 118.817 50.5788C119.116 50.8756 119.322 51.1936 119.378 51.6919L118.648 51.6283C118.789 51.8403 118.845 52.0311 118.938 52.2538C119.022 52.4658 119.116 52.7096 119.181 52.9535C118.817 53.0489 118.471 53.1019 118.153 53.1231C118.153 53.3775 118.05 53.5895 117.984 53.8334C118.171 53.6319 118.602 53.5047 118.751 53.6425C118.686 53.9712 118.471 54.268 118.284 54.5542C118.022 54.7981 117.704 54.9889 117.442 55.1267C116.872 55.3705 116.339 55.2645 116.236 55.0949C115.6 55.784 114.665 56.3883 113.58 56.8547C113.599 56.5049 114.132 56.2611 114.468 55.9324C113.748 56.5897 113.589 56.3671 113.505 56.155C113.393 55.9324 113.346 55.7098 112.579 56.2399C112.832 56.3989 112.523 56.7699 112.495 56.9395C111.607 56.5579 109.559 56.6427 108.053 56.7805L108.353 56.1868C105.716 55.9324 102.751 55.8052 100.264 54.4588C101.049 55.1903 100.526 56.0808 99.6747 55.7628C99.6841 55.4236 99.7028 55.0843 99.7308 54.7345C99.0108 54.9677 100.385 55.519 99.095 55.572C98.1598 54.8723 98.936 54.2468 99.5719 54.2786C99.1604 54.162 98.7583 54.003 98.3562 53.844C98.431 53.5577 98.7396 53.6213 98.9734 53.3457C98.6367 53.4517 98.2814 52.911 98.0289 52.4128C97.739 51.9251 97.4772 51.4375 96.9348 51.5223L97.0751 51.2784C96.2802 50.2819 95.7846 49.4656 95.3919 48.6917C95.0085 47.9178 94.7092 47.1333 94.5877 46.158C93.8396 46.2004 93.9611 45.3947 93.4188 44.6738C93.6245 43.8575 94.0266 43.1473 94.5503 42.4794C95.0365 41.7797 95.635 41.239 96.2335 40.5605C96.5608 39.9563 96.5608 39.7336 96.4673 39.5852C96.3738 39.4262 96.1867 39.3202 96.3176 38.9173C96.7852 39.4368 98.403 38.3237 97.7858 39.3626C98.7303 38.6735 99.4784 38.3555 100.264 37.9208C101.087 37.5392 101.984 37.0409 103.612 36.3942C103.2 36.1504 102.761 36.108 102.929 35.79C103.527 35.5143 104.397 35.8536 104.35 36.2352L104.201 36.3412C106.034 35.4189 108.381 35.7794 110.588 36.2882C112.841 36.8077 114.955 37.2741 116.582 36.426L116.404 36.5108C117.517 36.1928 118.658 36.002 119.789 35.737C121.342 35.9384 118.845 36.3094 119.976 36.8501C121.809 36.2564 123.249 36.3624 124.596 36.5215C125.952 36.7123 127.214 36.9773 128.748 36.6381C129.842 37.9314 131.89 38.0056 134.068 38.0692C136.238 38.1328 138.529 38.101 140.035 39.0234L139.904 38.4403C140.764 37.9738 140.857 38.8537 141.447 39.0552C141.4 38.5993 140.614 38.4615 141.138 38.2071C148.077 38.3237 155.249 40.7514 162.244 42.2568C164.806 42.7656 164.03 39.5746 167.134 41.3662L166.096 42.2673C171.445 41.7691 176.747 43.8469 181.984 43.5289C181.657 43.7197 181.61 44.0272 181.114 43.953C182.106 44.8541 185.107 44.5678 185.192 43.953C185.977 44.1332 185.313 44.5254 185.771 44.9071C186.809 45.4901 188.605 44.3452 189.091 45.1615C189.175 45.2993 188.764 45.3629 188.558 45.3841C189.306 45.1297 191.84 45.9248 191.261 44.9919C193.14 45.6598 194.973 45.1403 196.46 45.8294C197.563 45.0237 199.714 46.7093 200.172 45.4265C199.892 46.7729 203.436 46.9637 204.717 46.4761C204.268 46.8365 205.736 47.0273 205.203 47.5362C206.596 47.674 207.906 47.5786 207.728 46.8577C210.15 48.7447 213.002 46.1898 214.274 48.3631C218.501 48.0451 222.372 47.9708 226.141 47.8966C225.925 49.1794 221.989 47.727 222.054 49.1052C225.664 48.7977 227.768 47.8966 231.284 48.3737C232.191 48.5857 230.741 48.9038 230.414 49.1158C234.014 48.6917 237.315 49.561 240.523 48.7977C240.513 48.9144 240.167 49.0416 239.84 49.137C240.467 49.0946 241.299 49.3066 241.233 48.7447L240.616 48.9038C239.625 48.0875 243.104 47.1969 243.206 46.7729C242.159 48.3737 246.339 47.1651 244.684 49.1688C245.095 49.0628 245.61 48.7765 245.507 48.4161C246.124 48.5009 246.32 48.7023 245.713 49.1476C247.957 48.7341 247.143 48.2041 249.173 48.1087C249.173 48.3737 248.77 48.5009 248.574 48.8189C249.584 48.2465 250.594 47.6528 252.315 47.7588C252.221 47.9178 252.427 48.1087 251.922 48.1405C254.867 47.8118 256.831 46.3701 260.067 46.4761C259.216 47.674 261.189 46.6987 261.441 47.5998L263.143 47.0803L262.405 46.7305C263.919 46.5503 265.172 45.681 266.5 45.7764L265.425 46.3276L268.221 45.7128L266.585 45.6174C268.053 44.9177 266.285 44.4936 268.314 44.4512C267.922 44.6102 269.811 44.218 270.652 44.5996C271.354 44.1862 272.074 43.7833 273.205 43.7939C273.532 44.0166 273.112 44.8011 273.317 44.9495C273.944 44.0802 276.787 44.0802 277.591 43.1261C277.31 43.3699 277.366 43.8151 277.479 43.8894L278.002 43.1897C278.722 43.2321 278.835 43.2957 278.779 43.6667C280.873 43.3275 277.956 42.7444 280.49 42.6808C280.303 42.7656 280.406 42.8292 280.022 42.9988C282.528 42.702 284.726 41.5995 287.036 41.3238C287.849 41.9493 285.1 42.0023 285.979 42.49C289.214 41.5253 292.543 39.8609 295.704 39.1718L295.106 39.2566C295.321 38.101 297.537 39.1082 299.015 38.1753C298.64 38.3661 298.631 38.8855 298.706 38.7371C300.875 38.2495 303.017 37.1893 306.159 35.8536L305.822 36.2246C307.131 36.0444 309.142 35.2705 310.507 34.8995C310.844 34.539 311.629 34.3058 311.068 34.1362C315.538 33.9241 318.755 30.6907 322.645 30.1925C322.215 30.3727 321.663 30.7862 322.009 30.6483L325.03 29.2172C324.684 29.0051 324.562 29.196 323.842 29.2066C324.169 28.8567 325.002 28.3797 325.759 28.051C324.45 28.8355 325.927 28.5493 326.582 28.4539C326.451 28.4009 326.619 28.21 326.544 28.1358C328.312 27.9874 326.619 27.4149 328.91 26.8531L328.845 27.0545C329.63 26.6304 330.313 26.0898 331.201 25.7399C331.678 25.899 330.388 26.2806 330.425 26.5668C331.641 25.9732 332.641 24.8918 333.857 24.6798C333.371 25.0191 332.623 25.3477 332.127 25.6763C333.464 25.4961 333.577 25.3371 334.484 24.9554L334.39 24.9872L336.504 24.1391L335.942 24.2982C337.196 22.8352 338.972 22.6232 340.833 21.139C339.019 22.549 340.599 21.5418 340.562 21.9129C341.114 21.7326 341.937 21.404 341.74 21.5948C342.601 20.8421 343.395 20.8845 344.602 19.8244C344.695 19.8774 345.621 19.2731 345.49 19.5912C346.678 18.8067 345.144 19.623 345.2 19.4534C346.079 18.7749 347.22 18.213 348.454 17.5663C349.689 16.9197 350.979 16.1246 352.242 15.1492C354.448 13.5378 354.785 13.1032 356.824 11.6084C357.562 11.195 356.347 12.1809 356.347 12.1809C357.506 11.46 358.339 10.8451 359.367 10.05C359.171 10.2408 359.414 10.1136 359.751 9.91221C360.574 9.26553 360.228 9.35034 361.35 8.56584C361.181 8.74607 360.976 8.9899 360.602 9.33974C361.546 8.54464 362.491 7.77075 363.454 6.91204C363.744 6.74242 362.902 7.47391 362.575 7.80255C363.659 6.84844 365.408 5.36425 365.698 5.01441C365.464 5.21584 365.221 5.39606 364.978 5.58688C365.38 5.24764 365.212 5.45967 364.931 5.7247C364.015 6.5622 363.557 6.83783 363.482 6.85904L364.174 6.26536C363.772 6.48799 363.07 7.07106 362.275 7.73894C361.481 8.37502 360.611 9.11711 359.882 9.66838L360.396 9.0535C359.919 9.45635 359.461 9.90161 358.974 10.2939C358.629 10.4741 358.348 10.5271 359.068 9.99702C357.946 10.6437 358.161 10.7179 357.179 11.2374C357.067 11.2904 357.114 11.248 357.198 11.1738L356.188 11.9477C356.366 11.7674 355.935 11.9159 356.599 11.513C354.645 12.6367 353.607 13.6545 352.803 13.9407L352.952 13.8241C350.315 15.5521 352.784 14.1739 350.886 15.6263C350.353 15.7323 349.82 15.8383 349.287 15.9231L349.118 16.2942C348.838 16.4532 348.277 16.75 348.333 16.6016C347.351 17.3437 348.557 16.6016 348.015 17.0893C346.565 17.6406 344.331 19.305 343.835 19.0293C343.423 19.4852 345.21 18.4993 343.807 19.4004C343.199 19.1565 342.152 20.3757 340.805 20.7997C341.095 20.3545 342.329 19.8668 340.992 20.2909C340.403 21.0966 338.486 21.3934 337.448 21.9871C337.551 22.4111 335.166 23.2274 333.408 24.1921C333.474 24.0119 329.902 25.4643 328.144 25.9944L328.172 25.899C327.994 26.4926 326.208 27.1287 324.955 27.7542C324.908 27.4361 325.104 27.2241 325.759 26.8213L324.553 27.3089C324.319 27.574 323.964 27.8072 323.197 28.1676L323.384 27.6694C321.775 28.2948 320.27 29.3762 318.1 29.8426C318.1 30.2773 320.073 30.2879 317.941 31.3798C317.801 31.1996 317.614 30.871 318.166 30.5741C317.988 30.6695 317.539 30.9982 317.137 31.0512L317.923 30.3727C316.922 30.5635 317.511 30.8498 316.735 31.0936C316.66 30.7862 316.109 31.083 316.155 30.7968C316.342 30.7013 316.857 30.6801 317.109 30.4575C316.239 30.7225 315.145 30.8922 314.734 30.7649C314.855 30.9134 314.846 31.1784 314.229 31.4434C312.602 32.0265 313.565 31.2526 312.574 31.4116C312.237 31.7721 311.134 31.8781 311.237 32.3657C310.76 32.5142 310.61 32.3127 310.386 32.2385C309.591 32.7262 306.439 33.5531 307.533 33.7969L307.758 33.7651C307.758 33.7651 307.674 33.8075 307.627 33.8287C306.299 34.5178 304.822 34.8889 303.353 35.2175C301.876 35.5355 300.389 35.7794 299.024 36.2988L298.986 36.108C297.369 36.7865 295.302 37.2211 294.199 37.9632C293.703 38.0904 292.955 37.8996 293.123 37.6028C291.88 38.0692 291.777 38.3343 289.86 38.4509C291.075 37.783 289.355 38.2495 291.122 37.8678C289.43 38.1116 288.99 37.8466 287.307 38.8219C287.821 38.154 285.932 38.4297 285.165 38.7689L286.4 38.8961C285.521 39.1824 284.735 39.299 283.931 39.4156L284.23 38.6099C280.677 38.4191 278.311 41.3768 275.468 40.3167C274.636 41.0058 277.385 40.3697 276.665 41.133C275.066 41.3132 273.271 40.4863 272.775 40.5711C270.559 40.4757 270.914 42.0235 268.604 42.0871C268.932 42.3204 269.296 43.0518 267.632 43.5713C266.023 43.6985 265.537 42.6384 266.519 42.2673C266.893 42.1931 267.089 42.2674 267.089 42.3522C267.585 42.1719 268.249 41.9705 267.585 41.7373L267.417 42.0553C266.594 41.8645 264.424 42.1931 264.883 41.6419C263.723 42.0765 264.424 42.1931 265.322 42.2143C263.246 42.0765 262.143 42.5854 260.029 42.5536C260.375 42.6808 260.712 42.9882 260.385 43.0306C257.28 42.967 259.085 43.7303 257 44.0802C255.775 43.7303 257.336 42.9564 255.27 43.5077C253.97 43.2851 254.942 42.7126 255.429 42.4264C253.568 43.1579 251.847 42.2992 250.762 42.2143L251.744 41.9175C251.155 42.0977 250.669 42.1083 250.164 42.1295L250.762 42.7232C250.173 42.6384 249.668 42.6596 249.668 42.4052C249.079 42.8504 250.182 43.4229 248.995 44.0484C248.2 43.7727 246.601 44.4724 246.311 43.6349C248.789 43.8575 246.012 42.7974 248.097 42.6066C247.695 42.7126 247.209 42.7232 246.62 42.6278C246.526 42.5324 246.695 42.4476 246.853 42.3946C244.488 41.6843 245.797 43.4017 243.347 43.3487C243.655 42.8716 242.776 42.4264 242.374 42.5218C243.356 42.543 242.851 43.3275 241.944 43.6879C240.373 43.2957 240.233 43.953 239.41 43.9L240.354 44.0908C240.027 44.5784 239.242 44.5042 238.138 44.6526C238.054 44.271 239.139 44.3982 238.755 44.2286C237.512 45.1085 236.015 43.2109 234.295 43.7197C233.519 43.3381 234.248 42.7868 233.565 42.5218C231.639 43.0518 231.536 41.7479 229.516 42.1189C230.059 42.8504 230.171 42.6914 228.721 43.2215C229.834 43.1685 230.938 43.073 232.041 42.967L229.881 43.8257C230.882 43.9 232.004 43.5183 232.593 43.6667C231.564 44.165 231.667 44.006 232.125 44.5784C230.807 43.5183 229.385 45.0237 227.842 44.1968L227.983 42.5218C225.664 41.5465 223.728 43.0625 220.679 42.2992L221.643 42.702C221.184 43.3381 219.735 42.5854 218.716 42.755C218.856 42.1931 218.248 41.9175 217.855 41.5041C217.874 41.9387 215.611 41.2178 215.237 42.3416L213.928 41.4299C211.478 40.8044 210.945 42.7338 208.57 42.2355C209.346 41.6843 208.308 41.133 209.944 40.8892C209.149 40.7832 208.439 40.5817 208.392 40.9846C207.962 40.5605 206.101 41.4935 205.428 40.8468C205.063 41.0588 204.895 41.6737 204.006 41.4935C203.922 41.3556 204.044 41.1966 204.044 41.1966C204.006 41.4935 202.604 41.398 203.314 42.1613C201.051 39.9563 196.432 41.3662 194.468 39.4368C192.71 39.3838 190.587 39.2672 189.007 39.0764C189.128 38.9067 189.044 38.7795 189.334 38.8855C187.221 37.995 187.801 40.4333 185.388 39.4368C184.238 38.2601 186.763 39.0976 186.014 38.6099C185.902 36.5533 182.994 38.4297 181.46 37.0091L181.881 36.9561C180.684 36.0762 178.683 37.2423 176.617 36.7865C176.617 36.7865 176.738 36.6275 176.663 36.479C175.12 37.2953 172.38 37.2317 170.342 37.2211C171.053 36.5215 171.305 36.9349 171.015 36.0762C170.099 36.055 171.127 37.412 169.313 37.3696C168.78 36.8501 167.527 36.2776 167.452 35.3871L169.154 35.5885C168.415 34.3376 166.957 35.3129 166.087 34.9843L166.255 34.5072C163.637 34.2846 163.469 35.5143 160.682 35.0267L160.935 35.4401C159.279 36.4472 159.728 34.5708 158.11 35.2705L157.783 33.9665C156.745 34.1256 154.127 34.698 152.294 34.6874C153.407 33.9029 155.576 33.7121 156.951 33.3411C155.95 33.1926 153.538 32.9806 152.958 33.5213C153.369 33.4577 153.912 33.2138 154.295 33.4683C152.967 34.2846 151.312 34.5284 149.311 34.274C149.9 31.8993 144.168 33.0442 142.877 30.9876C139.249 31.5176 135.864 29.8532 131.693 29.673C133.049 31.6661 130.478 29.6412 130.618 31.5919C129.645 31.6449 129.281 31.5919 129.206 31.454L126.335 30.0865C125.662 29.4716 127.28 29.726 127.205 29.2914C125.082 28.9945 126.354 28.4009 124.96 27.8072C125.222 28.5069 124.175 28.7719 122.969 28.4645L124.652 29.4186C121.641 30.3303 122.127 27.7118 119.078 28.6129L120.042 28.0404C119.256 28.21 117.844 28.0934 116.404 28.2842C114.973 28.4433 113.543 28.7507 112.794 29.5246C112.523 29.302 112.149 28.7825 112.832 28.6447C111.906 28.6023 110.924 28.6765 109.933 28.8249C108.914 28.9945 107.885 29.2384 106.885 29.4928C104.874 30.0017 103.004 30.5423 101.405 30.4681L101.62 29.9487C100.9 30.2455 100.526 31.1254 99.5064 30.9558C99.5064 30.7543 99.6934 30.4151 99.3474 30.4999C99.1698 30.6483 98.7303 30.9982 98.2159 31.3586C97.7016 31.7509 97.1031 32.0583 96.5795 32.2067C96.7946 31.8993 97.0096 31.6131 97.2341 31.3374C95.1862 31.9205 93.7835 33.2351 92.7548 34.698C91.7169 36.1822 91.0623 37.8678 90.3329 39.7018C89.8279 39.3732 89.0237 40.0305 88.3878 41.2496C87.7706 42.4582 87.434 44.1226 87.3498 45.2251L87.1909 45.1403C87.1254 48.4903 88.2101 51.024 89.5006 52.9959C90.8472 54.9571 92.4463 56.4731 94.382 57.8406C94.7466 58.6251 95.4293 59.3778 96.3176 60.1093C97.2154 60.809 98.3282 61.4451 99.5158 61.9433C101.9 62.9611 104.537 63.4063 106.632 63.9364C105.996 63.6502 106.81 62.9823 107.539 62.8869C108.512 63.1943 110.186 62.0388 110.055 63.1731H109.709C110.457 64.265 112.467 63.8728 114.15 63.5653L114.197 62.06C115.31 62.378 116.628 62.2296 117.966 61.6253C119.284 61.021 120.65 59.9291 121.547 58.5509C122.062 57.9467 122.408 57.1516 122.763 56.4731C123.1 55.7734 123.296 55.0207 123.548 54.3846C123.707 53.7167 123.866 53.1019 124.053 52.5612C124.175 52.0205 124.334 51.5541 124.549 51.1618C124.446 50.4409 124.231 49.7519 124.109 49.0204C123.941 48.3207 123.698 47.674 123.427 47.1227L124.081 46.9849C123.894 46.1368 123.698 45.4053 123.492 44.7375C123.258 44.1014 123.043 43.4759 122.772 42.8822C122.221 41.7055 121.557 40.4757 120.416 38.9703L121.229 39.299C120.631 38.3873 119.883 38.1328 119.125 37.995C118.377 37.836 117.666 37.73 117.049 37.0621L117.349 35.8854C116.731 35.2493 116.161 34.5496 115.516 33.9135C115.207 33.5955 114.88 33.2351 114.571 32.9594L113.636 32.1325C112.374 31.0512 111.046 30.0653 109.531 29.4716C109.643 29.3762 109.858 29.1854 110.307 29.4716C109.148 28.4009 105.622 25.6339 105.519 27.0863C105.697 26.6941 104.996 26.2276 104.042 25.7929C103.088 25.3689 101.91 24.9236 101.059 24.7434L101.554 24.2982C99.9272 24.3724 99.8056 24.5526 97.9261 23.8317C97.5333 23.5349 97.7297 23.185 98.244 23.6197C96.9348 22.5914 96.9255 23.5879 95.3171 22.4111L96.0932 22.3793C95.3732 21.9659 95.0085 21.8705 94.7092 21.8599C94.41 21.8493 94.1762 21.9235 93.69 21.9659C92.6707 21.7963 90.8939 20.6407 90.8285 20.047C90.5292 20.2697 89.5754 20.3439 88.7338 19.835C88.6684 19.6018 89.0331 19.6124 89.2107 19.623C88.0138 18.9021 86.9758 18.8385 86.0968 18.6689C85.1991 18.5311 84.4229 18.4038 83.6094 17.8526C83.6094 17.6618 83.5252 17.5345 83.3943 17.4391C85.4422 18.107 87.0787 18.6689 86.9197 18.6583C87.0693 18.1494 85.4141 17.5345 86.9384 17.2589C85.4796 17.2271 83.0015 17.3013 81.4399 16.5804C81.3744 16.5168 81.309 16.4426 81.2622 16.3578H81.4492C81.0845 16.1988 80.7292 16.167 80.3925 16.167C79.8876 15.9549 79.5696 15.8171 79.0647 15.6899C78.9525 15.2447 77.1757 15.0114 76.3341 14.7888C76.3061 15.3295 75.2213 14.969 76.1658 15.6475C76.0442 15.5733 76.3341 15.6263 76.8952 15.7429C77.0261 15.7535 77.1757 15.7853 77.2599 15.7747C77.2412 15.7747 77.2225 15.7959 77.1944 15.8065C77.7461 15.9337 78.4662 16.0928 79.2797 16.2836C78.5597 16.3896 77.8303 16.4426 76.9606 15.9231C76.465 16.1564 75.932 16.379 75.6421 16.4638C74.6509 15.4037 72.4814 14.6722 72.2383 14.1739C70.9198 14.0891 69.3955 13.8665 67.9835 13.7393C66.5714 13.6121 65.2529 13.7181 64.3926 14.0255C63.6445 14.0467 63.5791 13.6651 63.3172 13.4954C63.7474 13.4636 64.2523 13.5379 64.4955 13.4424C62.9993 13.4848 60.1285 12.9866 59.7264 13.5273C57.8935 13.1244 60.8204 13.0714 58.2582 12.976L58.6136 12.8276C56.1355 12.2021 54.0595 12.4035 51.9368 12.5837C49.8141 12.8276 47.6352 12.9548 44.8673 12.3929C45.2507 12.4565 45.4471 12.4989 45.5219 12.5731C39.1817 12.1385 32.4676 12.8912 26.221 12.8276C24.4442 12.8594 24.2572 13.0502 23.1818 13.241L22.7891 13.0502L20.9469 13.4212C18.3379 13.7499 16.3835 13.3364 13.0919 13.9301L13.522 13.9725C12.3344 14.0679 9.75348 14.3648 9.94986 14.2693C9.82829 14.2905 9.56646 14.3754 9.0989 14.386L9.06149 14.3435L6.14392 14.704C3.88092 14.916 6.48991 14.5344 3.18893 14.9266C2.02938 15.075 0.607998 15.2553 0.15914 15.3083C0.654754 15.2553 1.42155 15.1811 1.45896 15.1811L0.336813 15.2871C0.131086 15.3189 -0.738577 15.3401 2.02938 15.2235L3.95573 15.0962H4.58226L2.9645 15.1811C3.89027 15.1598 4.47005 15.1174 5.11528 15.0538C5.27425 15.0644 5.54544 15.0644 5.92884 15.0538L7.81778 14.8524C8.05156 14.8948 6.97617 14.9796 8.24794 14.9584C9.12695 14.863 7.38763 14.8842 8.85577 14.7782C9.78154 14.7888 9.5197 14.863 10.5951 14.757C10.7541 14.7888 10.5203 14.8312 10.0901 14.863C11.0533 14.7676 12.6337 14.7358 13.1293 14.6086C14.0924 14.6722 16.3741 14.4284 16.2993 14.6616C16.5986 14.598 17.9825 14.4178 18.8709 14.3754C17.2719 14.7464 22.1812 14.2799 21.7698 14.6722C22.948 14.3117 26.0807 14.4814 28.1941 14.2375C28.0725 14.2693 27.8481 14.3435 27.6611 14.3223C28.8487 14.3435 29.204 14.4602 29.9708 14.5344C30.1111 14.1845 31.972 14.1209 32.9632 13.8771C34.4313 14.2587 32.0842 14.3223 32.5517 14.6722C32.4769 14.3648 35.0766 14.3966 34.5809 14.1209C35.7031 14.3648 35.5441 14.2375 36.1239 14.5874C36.3203 14.0785 37.1619 14.492 38.0877 14.2163C39.6961 14.545 38.4991 14.7464 40.2758 14.651C41.1174 14.863 39.5464 14.9902 39.5464 14.9902L39.4623 15.0326ZM81.0471 20.0788V20.0894C80.7011 19.9728 80.3925 19.9304 80.2055 19.8774C80.3832 19.9198 80.6263 19.9622 81.0471 20.0788ZM84.4042 21.245C84.0021 21.086 83.4971 20.8951 82.9548 20.7149C82.88 20.4817 83.0576 20.3333 83.3943 20.4605C83.1792 20.5241 83.946 20.9057 84.4042 21.245ZM77.9799 15.3719C78.5503 15.4355 78.7187 15.5839 78.7748 15.7111C78.5129 15.6581 78.195 15.5945 77.7835 15.5415C77.7648 15.5521 77.7274 15.5733 77.7087 15.5945C77.7835 15.5097 77.8584 15.4249 77.9799 15.3825V15.3719Z" fill="#F5C443"/>
<path d="M76.8392 15.8065C76.7551 15.8065 76.7083 15.8065 76.6055 15.7853C76.7083 15.8595 76.8112 15.9231 76.9141 15.9867C76.9889 15.9443 77.073 15.9125 77.1385 15.8701C77.0356 15.8489 76.9328 15.8277 76.8392 15.8065Z" fill="#F5C443"/>
<path d="M307.514 33.8181H307.439C307.505 33.8287 307.56 33.8287 307.607 33.8499C307.551 33.8499 307.551 33.8287 307.514 33.8181Z" fill="#F5C443"/>
<path d="M118.499 51.5753L118.666 51.5859L118.527 51.3527L118.499 51.5753Z" fill="#F5C443"/>
<path d="M326.554 28.4433C326.554 28.4433 326.675 28.4645 326.825 28.4433C326.806 28.4221 326.694 28.4433 326.554 28.4433Z" fill="#F5C443"/>
<path d="M334.455 24.9554L335.596 24.5314C335.1 24.701 334.736 24.8388 334.455 24.9554Z" fill="#F5C443"/>
<path d="M340.478 22.1037C340.533 22.0189 340.542 21.9659 340.552 21.9235H340.542L340.487 22.0931L340.478 22.1037Z" fill="#F5C443"/>
<path d="M239.821 49.1158C239.737 49.1158 239.643 49.1264 239.568 49.1476C238.97 49.3066 239.372 49.243 239.821 49.1158Z" fill="#F5C443"/>
<path d="M270.624 44.589C270.316 44.7693 270.007 44.9389 269.68 45.0767C270.231 45.0343 270.652 44.9707 270.624 44.589Z" fill="#F5C443"/>
<path d="M205.175 47.5362C205.175 47.5362 205.175 47.5362 205.175 47.5256C205.1 47.5256 205.035 47.5044 204.96 47.5044L205.166 47.5468L205.175 47.5362Z" fill="#F5C443"/>
<path d="M268.258 45.3099C268.819 45.3629 269.268 45.2463 269.679 45.0767C269.23 45.1085 268.697 45.1403 268.258 45.3099Z" fill="#F5C443"/>
<path d="M364.828 5.93672L365.081 5.7247C365.081 5.7247 365.081 5.7035 365.109 5.69289L364.828 5.93672Z" fill="#F5C443"/>
<path d="M365.108 5.6929L365.38 5.44907C365.249 5.55508 365.136 5.65049 365.108 5.6929Z" fill="#F5C443"/>
<path d="M365.941 4.9084C365.754 5.08862 365.567 5.26885 365.38 5.43847C365.586 5.26885 365.819 5.03562 365.941 4.9084Z" fill="#F5C443"/>
<path d="M357.73 11.4918L357.675 11.5978C357.675 11.5978 357.74 11.5236 357.73 11.4918Z" fill="#F5C443"/>
<path d="M355.515 13.082C356.066 12.7428 356.908 12.2445 357.628 11.6826L357.675 11.5978C357.366 11.9159 355.992 12.6685 355.515 13.082Z" fill="#F5C443"/>
<path d="M345.49 18.0858L347.482 17.0681C347.098 17.1741 346.593 17.3119 347.482 16.803C344.882 17.895 348.08 16.7076 345.48 18.0858H345.49Z" fill="#F5C443"/>
<path d="M339.253 21.086C340.319 20.5135 339.178 20.9376 339.216 20.8527C338.57 21.2768 338.411 21.3828 339.253 21.086Z" fill="#F5C443"/>
<path d="M292.581 37.5498V37.0091C291.721 37.2953 292.628 37.2105 292.581 37.5498Z" fill="#F5C443"/>
<path d="M283.912 42.5112L284.838 42.649L285.165 42.0553L283.912 42.5112Z" fill="#F5C443"/>
<path d="M277.806 39.6064L278.18 39.458L276.73 39.9457L277.806 39.6064Z" fill="#F5C443"/>
<path d="M196.46 38.8325L196.628 39.8291C197.255 39.7442 197.498 38.6841 196.46 38.8325Z" fill="#F5C443"/>
<path d="M161.047 34.5708C160.719 34.0195 159.756 33.5531 159.083 33.9665C159.878 34.1362 160.626 34.645 161.047 34.5708Z" fill="#F5C443"/>
<path d="M116.413 62.6324C116.151 62.8233 115.899 63.0035 115.637 63.1837C116.151 62.9505 116.665 62.696 117.18 62.3886C116.927 62.4734 116.665 62.5582 116.413 62.6218V62.6324Z" fill="#F5C443"/>
</g>
<defs>
<clipPath id="clip0_2017_253">
<rect width="371" height="64" fill="white"/>
</clipPath>
</defs>
</svg>
