<svg width="691" height="533" viewBox="0 0 691 533" fill="none" xmlns="http://www.w3.org/2000/svg">
<g clip-path="url(#clip0_2003_333)">
<path d="M534.137 360.205C534.718 361.18 534.379 360.647 532.814 357.901L531.717 355.938C532.507 357.379 533.322 358.798 534.145 360.193L534.137 360.205Z" fill="#F3BB28"/>
<path d="M524.665 340.711C523.221 337.115 521.85 332.735 522.576 335.22C523.874 338.896 524.197 339.781 525.786 343.582C527.053 346.612 528.094 348.802 527.844 348.314C528.328 349.358 530.022 352.841 530.845 354.339C528.925 350.651 526.609 345.829 524.544 340.507C524.108 339.361 524.544 340.462 524.657 340.711H524.665Z" fill="#F3BB28"/>
<path d="M659.029 370.939C658.521 370.78 658.012 370.655 657.496 370.553C657.916 370.666 658.448 370.768 659.029 370.939Z" fill="#F3BB28"/>
<path d="M608.358 483.246C609.503 483.144 609.987 483.019 610.036 482.939C608.971 483.076 608.091 483.189 608.358 483.246Z" fill="#F3BB28"/>
<path d="M582.34 485.912C582.896 485.776 583.372 485.663 583.873 485.549C583.276 485.629 582.687 485.753 582.34 485.912Z" fill="#F3BB28"/>
<path d="M659.029 370.939L660.981 371.517L662.909 372.232C663.216 372.13 660.949 371.392 659.021 370.939H659.029Z" fill="#F3BB28"/>
<path d="M521.075 295.314C520.664 296.37 520.398 297.311 520.147 298.151C520.43 297.243 520.696 296.358 521.027 295.485C521.043 295.428 521.051 295.394 521.075 295.303V295.314Z" fill="#F3BB28"/>
<path d="M595.675 397.149L594.344 398.839C594.15 399.123 593.957 399.395 593.771 399.668C593.658 399.838 593.61 399.895 593.545 399.963C593.481 400.042 593.408 400.122 593.344 400.201C593.36 400.099 593.376 400.008 593.384 399.917L593.287 400.303L593.497 400.088C593.497 400.088 593.57 400.008 593.634 399.917L593.795 399.69L594.433 398.817L595.667 397.115L595.675 397.149Z" fill="#F3BB28"/>
<path d="M593.715 328.423C594.15 329.91 594.554 330.284 594.796 330.817C594.473 330.012 594.07 328.957 593.666 327.652C593.618 327.652 593.626 327.879 593.715 328.412V328.423Z" fill="#F3BB28"/>
<path d="M529.143 283.991L528.538 284.524L527.974 285.148C528.119 284.989 528.321 284.773 528.522 284.547C528.732 284.342 528.966 284.161 529.151 283.991H529.143Z" fill="#F3BB28"/>
<path d="M629.43 372.606C629.526 372.652 629.712 372.675 629.906 372.663C629.898 372.606 629.712 372.595 629.43 372.606Z" fill="#F3BB28"/>
<path d="M385.18 59.966C385.18 60.0228 385.196 59.9433 385.204 59.966C385.27 59.5689 385.295 59.4441 385.18 59.966Z" fill="#F3BB28"/>
<path d="M354.692 0.0340424L355.507 0.204797C355.588 0.216181 355.652 0.227565 355.685 0.238948L354.692 0.0340424Z" fill="#F3BB28"/>
<path d="M538.389 512.61C538.469 512.542 538.494 512.52 538.574 512.463C539.599 511.43 539.002 511.986 538.389 512.61Z" fill="#F3BB28"/>
<path d="M244.355 330.341C249.211 331.589 236.336 330.783 243.661 332.327C242.999 331.895 250.421 331.385 244.355 330.341Z" fill="#F3BB28"/>
<path d="M521.745 293.68C522.14 292.863 522.479 291.978 522.955 291.218C522.641 291.74 522.415 292.217 522.229 292.625C522.044 293.034 521.882 293.374 521.745 293.68Z" fill="#F3BB28"/>
<path d="M243.661 332.327L244.419 332.485C244.105 332.417 243.927 332.383 243.661 332.327Z" fill="#F3BB28"/>
<path d="M542.463 403.911C542.43 404.263 542.495 404.898 542.568 405.557C542.616 405.477 542.608 405.103 542.463 403.911Z" fill="#F3BB28"/>
<path d="M534.766 514.21C534.983 513.79 535.161 513.359 535.338 512.951C535.104 513.439 534.927 513.87 534.766 514.21Z" fill="#F3BB28"/>
<path d="M519.341 353.238C518.598 352.069 518.397 351.604 517.275 350.152C517.348 350.322 517.429 350.492 517.542 350.696C517.985 351.162 518.526 351.854 519.341 353.238Z" fill="#F3BB28"/>
<path d="M482.271 319.028C482.473 319.21 482.756 319.426 482.998 319.618C483.417 319.834 483.901 320.072 484.329 320.288L482.271 319.017V319.028Z" fill="#F3BB28"/>
<path d="M270.211 110.685C271.123 111.105 271.679 111.422 272.115 111.706C271.808 111.445 273.22 111.819 273.769 111.899C274.317 111.978 273.986 111.933 270.211 110.685Z" fill="#F3BB28"/>
<path d="M521.132 295.326C521.237 294.997 521.399 294.509 521.746 293.68C521.479 294.293 521.262 294.906 521.028 295.496C520.979 295.666 520.979 295.711 521.132 295.326Z" fill="#F3BB28"/>
<path d="M514.484 356.472L513.315 354.758L512.08 353.147L509.604 349.914C510.289 350.821 511.08 351.876 511.919 352.988C512.338 353.533 512.774 354.1 513.218 354.668C513.653 355.246 514.057 355.87 514.484 356.472Z" fill="#F3BB28"/>
<path d="M0.378867 149.932L0.225586 147.617C0.249788 148.514 0.290125 149.331 0.378867 149.932Z" fill="#F3BB28"/>
<path d="M493.138 333.994C492.186 332.917 491.121 331.895 489.999 330.897C489.725 330.783 489.41 330.659 489.217 330.636C490.564 331.668 491.831 332.883 493.146 333.983L493.138 333.994Z" fill="#F3BB28"/>
<path d="M317.421 117.039C314.137 117.3 313.363 117.322 313.242 117.493C313.121 117.64 313.645 117.81 312.951 117.958C309.014 118.139 308.103 117.935 307.845 117.81C307.586 117.663 307.974 117.504 306.634 117.334C301.729 117.288 297.946 117.243 294.291 116.744C294.025 116.63 293.315 116.483 294.154 116.505C292.855 116.403 291.25 116.154 289.475 115.881C287.7 115.598 285.764 115.133 283.804 114.735C281.843 114.259 279.867 113.782 277.995 113.328C276.131 112.829 274.381 112.398 272.872 112.092C272.437 111.899 272.227 111.785 272.122 111.706C273.034 112.296 273.146 112.614 272.913 112.75C270.016 111.808 267.475 111.388 266.459 110.605C268.225 111.252 268.403 111.127 269.25 111.286C268.225 111.025 267.209 110.719 266.2 110.412C264.885 109.664 265.926 109.993 267.298 110.446C268.669 110.9 270.396 111.422 270.42 111.241C264.49 109.493 257.576 107.292 253.147 105.261C252.736 104.807 255.358 105.828 257.342 106.611C259.335 107.36 260.707 107.848 257.762 106.452C260.061 107.394 262.352 108.415 264.668 109.278C259.496 106.555 268.887 110.855 264.159 108.223C259.609 106.452 257.06 105.465 254.519 104.478C253.244 104.002 251.978 103.48 250.461 102.833C248.944 102.198 247.194 101.426 244.959 100.348C242.869 99.7354 245.524 101.097 243.434 100.484C230.534 95.106 233.745 94.3345 224.226 90.5107C221.717 89.7051 220.595 89.9774 214.036 86.3125L216.473 86.755C207.808 82.4093 211.285 85.28 202.266 80.4351C203.96 80.923 209.172 83.4873 207.873 82.7724C202.097 79.3798 203.597 81.1499 199.039 79.0167L198.24 77.9388C188.898 73.6953 178.394 69.8715 167.81 66.3995C168.431 66.3995 170.279 66.8193 167.842 65.73C154.45 61.4638 139.179 57.0613 126.053 54.2588C124.359 54.168 122.665 54.0999 120.97 54.0772C119.801 53.8843 118.825 53.4305 120.099 53.4986C114.984 52.432 119.801 53.8957 117.316 53.7822C114.395 53.3851 113.476 52.8632 115.347 52.8859C110.789 52.5682 104.303 52.0803 97.7605 51.7966C91.2178 51.4222 84.6186 51.2747 79.8185 50.8094L81.6901 50.6279C77.9468 50.3896 75.8412 50.8662 73.8002 51.1952C71.7591 51.5356 69.7987 51.876 66.3217 51.7058L67.6528 51.5016C59.5369 51.6945 50.8483 52.9312 42.9503 56.3465C40.9818 57.2089 39.0457 58.1166 37.2305 59.2853C36.3189 59.8639 35.4153 60.4199 34.5279 60.9872L33.8583 61.407L33.221 61.8949C32.8015 62.224 32.382 62.5417 31.9705 62.8594C31.1476 63.5061 30.3167 64.1075 29.518 64.7542C28.7516 65.4577 27.9933 66.1385 27.2591 66.8193C25.7425 68.0901 24.4194 69.5765 23.1205 70.8927C22.9511 71.2785 22.6284 71.7891 22.1847 72.4018C21.7491 73.0258 21.2489 73.8201 20.6519 74.6484C20.0549 75.4767 19.3934 76.3844 18.7077 77.3375C18.0623 78.3473 17.4007 79.3912 16.7392 80.4351C14.1092 84.5992 11.9875 89.0584 12.2214 90.1476C11.5196 91.4865 10.9307 92.6212 10.4224 93.5856C9.95449 94.5954 9.55919 95.4578 9.21229 96.218C8.85732 96.9782 8.54269 97.6476 8.2442 98.283C7.93763 98.9184 7.66334 99.5311 7.40518 100.212C6.87273 101.551 6.29188 103.06 5.47707 105.295C5.13017 106.452 4.7268 107.791 4.24275 109.38C4.01686 110.185 3.72643 111.036 3.49248 112.001C3.25852 112.965 3.0165 114.009 2.75027 115.133C2.48405 116.347 2.27429 117.413 2.16135 118.446C2.06454 119.49 2 120.477 1.94353 121.498C1.88706 122.519 1.83059 123.574 1.73378 124.754C1.6773 125.946 1.62083 127.262 1.47562 128.805L0.838292 128.828C0.68501 131.653 0.814089 134.512 0.846359 137.315C0.660808 138.052 0.515594 138.79 0.394583 139.527L-0.00878906 141.774L0.0396155 144.713C0.0638179 145.689 0.15256 146.653 0.209032 147.629C0.112222 145.303 0.426852 142.67 0.604336 143.033C0.701145 147.583 0.927033 153.075 1.15292 157.512C1.2578 159.724 1.43528 161.653 1.48369 163.071C1.54823 164.478 1.54823 165.363 1.48369 165.443C2.72607 172.444 4.43637 179.229 6.47743 185.776C6.29994 185.617 5.90464 184.754 5.52547 183.54C5.1463 182.326 4.68646 180.851 4.27502 179.546C5.1221 182.179 5.52547 183.631 5.72716 184.493C5.95304 185.333 5.92884 185.594 5.90464 185.821C5.85624 186.275 5.73522 186.672 7.50199 191.335C7.2035 189.974 8.09092 191.801 8.28453 191.925C8.5911 193.162 9.05094 194.762 9.61566 196.6C10.2369 198.393 10.9629 200.401 11.7535 202.489C12.6006 204.531 13.4961 206.664 14.4239 208.73C15.4 210.738 16.3439 212.735 17.2717 214.505C16.9086 214.176 16.5617 213.835 16.2148 213.484C19.3773 220.11 23.1609 226.646 27.4205 232.852C31.6801 239.081 36.4076 244.936 41.3529 250.45C39.6346 248.363 39.1425 247.285 39.4168 247.16C39.683 247.058 40.7398 247.852 42.2081 249.407L42.918 251.494C45.0559 253.071 40.0622 247.852 44.233 251.472C47.936 255.477 46.2821 255.046 43.9668 253.049C45.5561 254.547 47.1131 256.09 48.7346 257.497C48.8879 258.019 47.7182 257.077 47.2744 257.111C48.3797 257.769 50.2594 260.05 52.3811 262.183C54.4625 264.395 56.7537 266.494 58.3994 267.277L58.5608 267.776C63.966 272.326 68.04 275.22 71.864 277.875C75.7041 280.496 79.3183 282.799 83.9651 285.715C84.4089 284.989 87.9827 287.463 90.9757 288.393C94.3641 290.572 97.946 292.841 101.762 295.019C105.57 297.243 109.571 299.513 113.782 301.691C119.865 304.085 115.71 301.782 118.526 302.519C118.776 303.518 127.311 307.364 122.753 305.901C132.991 310.621 135.936 311.494 149.142 316.09C147.787 315.182 146.213 314.41 147.093 314.456C149.481 315.329 152.458 316.782 152.038 317.077L151.393 316.941C158.936 318.801 167.342 322.546 175.563 325.246C177.612 325.961 179.637 326.676 181.613 327.368C183.59 328.049 185.526 328.696 187.414 329.138C191.181 330.091 194.683 330.806 197.732 331.056L197.046 330.988L203.323 331.963L209.624 332.621C215.368 333.802 206.106 332.644 210.317 333.938C213.73 334.187 216.763 334.562 219.571 335.004C220.974 335.254 222.33 335.424 223.645 335.594C224.96 335.787 226.242 335.969 227.501 336.162C230.026 336.547 232.47 336.933 234.988 337.262C237.505 337.591 240.094 337.875 242.902 337.818C245.031 338.635 248.024 339.191 251.493 339.611C253.228 339.815 255.083 339.985 257.004 340.144C258.924 340.292 260.924 340.269 262.949 340.326C266.991 340.394 271.122 340.428 274.978 340.575C278.834 340.677 282.408 340.689 285.344 341.109L284.667 340.507C287.692 339.883 288.329 340.825 290.564 340.938C290.241 340.473 287.273 340.428 289.152 340.076C314.75 338.953 342.042 337.614 368.165 332.985C377.692 331.067 373.223 328.73 385.348 327.527L382.081 329.376C391.601 326.631 401.282 323.987 410.922 321.865C415.738 320.81 420.547 319.823 425.298 319.04C427.678 318.586 430.042 318.291 432.39 317.894C433.567 317.735 434.737 317.587 435.899 317.429C437.069 317.258 438.23 317.1 439.384 316.997C438.287 317.315 438.263 317.599 436.456 317.78C437.44 317.871 438.835 317.905 440.376 317.86C441.909 317.792 443.595 317.712 445.16 317.644C448.29 317.406 450.937 317.315 450.977 316.963C453.849 317.213 451.622 317.565 453.373 318.041C455.293 318.529 457.746 318.438 459.956 318.699C461.061 318.79 462.11 318.881 463.014 319.028C463.901 319.233 464.635 319.482 465.119 319.8C465.45 320.016 464.014 319.777 463.312 319.664C463.941 319.732 464.982 319.948 466.152 320.22C466.733 320.356 467.354 320.515 467.967 320.662C468.572 320.867 469.169 321.059 469.734 321.241C471.993 321.967 473.663 322.432 472.573 321.593C479.116 324.497 485.167 327.096 489.959 330.965C490.83 331.339 491.903 332.043 493.057 332.882C493.629 333.302 494.226 333.756 494.815 334.221C495.412 334.675 495.961 335.243 496.526 335.73C497.639 336.74 498.688 337.682 499.559 338.351C500.438 338.998 501.076 339.509 501.455 339.429C501.205 339.634 501.673 340.417 502.568 341.506C503.456 342.606 504.803 343.968 506.19 345.625C509.071 348.722 512.273 352.614 514.056 354.452C512.814 353.306 516.484 358.582 514.976 357.3C515.855 358.525 516.71 359.728 517.501 360.829C518.251 361.975 518.937 363.007 519.526 363.824C520.696 365.469 521.438 366.286 521.357 365.594C522.003 366.945 522.575 368.363 523.229 369.668C523.866 370.995 524.568 372.255 525.214 373.526C525.843 374.819 526.48 376.09 527.117 377.315C527.747 378.552 528.424 379.709 528.957 380.946C529.513 382.16 530.054 383.34 530.57 384.475C531.07 385.621 531.579 386.699 531.934 387.822C532.684 390.035 533.241 392.077 533.466 393.915C540.162 412.364 542.921 431.869 542.97 450.704C542.752 450.523 542.615 449.138 542.51 447.175C542.462 446.188 542.429 445.065 542.397 443.874C542.381 442.682 542.357 441.423 542.252 440.175C542.099 437.69 541.953 435.239 541.768 433.48C541.51 431.733 541.268 430.666 541.026 430.916C541.155 432.005 541.316 433.06 541.405 434.104C541.494 435.148 541.582 436.169 541.663 437.168C541.752 438.166 541.84 439.142 541.921 440.107C542.01 441.071 542.099 442.013 542.131 442.943C542.292 446.665 542.542 450.171 542.486 453.688C542.478 455.447 542.518 457.206 542.445 458.987C542.349 460.768 542.252 462.572 542.147 464.445C542.066 466.317 541.832 468.223 541.598 470.209C541.477 471.207 541.356 472.217 541.227 473.261C541.163 473.783 541.09 474.305 541.026 474.838C540.937 475.36 540.84 475.893 540.743 476.438C539.872 480.863 540.808 473.783 540.719 472.206C540.55 474.418 540.203 476.574 539.888 478.707C539.565 480.852 539.267 482.985 538.807 485.039C538.371 487.104 537.984 489.169 537.516 491.188C537 493.185 536.492 495.16 535.992 497.122C535.758 498.11 535.459 499.074 535.161 500.016C534.87 500.969 534.58 501.922 534.289 502.864C533.999 503.806 533.716 504.759 533.434 505.7C533.128 506.631 532.789 507.527 532.474 508.446C532.006 509.774 531.538 511.101 531.07 512.429L530.159 514.744L529.707 515.89C529.554 516.275 529.344 516.706 529.167 517.104C527.69 520.371 526.278 523.526 524.988 526.487C524.786 526.691 525.827 524.184 526.956 521.574C525.73 524.206 524.302 527.259 523.221 529.585C522.204 531.752 521.72 532.875 522.535 531.741C523.132 530.424 523.729 529.108 524.399 527.531C526.206 524.206 526.02 525.16 525.439 527.02C524.842 528.768 523.81 531.366 523.172 533.102C523.245 533.102 523.318 533.102 523.374 533.102H523.414L523.616 532.887C523.753 532.728 523.898 532.58 524.028 532.433C524.56 531.843 525.044 531.298 525.464 530.844C526.295 529.914 526.851 529.256 527.069 528.961C525.278 531.23 524.899 531.888 525.48 531.514C526.044 531.151 527.472 529.846 528.844 528.609C530.223 527.361 531.554 526.192 532.022 525.999C532.248 525.908 532.264 526.056 531.901 526.612C531.538 527.179 530.804 528.144 529.441 529.8C530.57 528.632 531.845 527.281 532.765 526.215C533.692 525.148 534.257 524.399 534.12 524.297C535.524 522.992 536.411 522.289 536.637 522.221C536.839 522.187 536.371 522.822 534.733 524.649C536.137 523.253 537.307 522.107 538.291 521.12C538.767 520.632 539.202 520.201 539.598 519.793C539.928 519.452 540.227 519.135 540.501 518.851C541.284 518.011 541.768 517.444 542.236 516.899C543.172 515.81 544.051 514.834 547.173 512.134C547.254 512.383 546.036 513.564 545.519 514.426C548.456 511.226 551.433 507.958 556.975 504.135C556.701 504.532 557.394 504.225 555.781 505.462C560.428 501.922 564.405 498.938 568.657 496.317C572.9 493.719 577.434 491.449 583.154 490.065C581.564 491.12 582.549 490.939 584.001 490.587C585.461 490.258 587.438 489.895 587.793 490.315L590.85 489.577L593.932 488.942L591.407 488.84C596.836 487.977 601.669 486.877 606.428 486.82L602.346 487.569L612.689 486.525L606.807 486.638C612.374 485.685 606.162 485.47 613.528 485.129C612.043 485.379 619.054 484.653 621.974 484.732H621.958C624.677 484.051 627.444 483.223 631.51 482.395C632.599 482.395 630.808 483.654 631.51 483.666C632.801 482.917 636.012 481.93 639.222 480.477C640.021 480.114 640.828 479.751 641.618 479.388C642.385 478.968 643.135 478.56 643.837 478.174C645.241 477.425 646.394 476.574 647.137 475.927C646.128 476.722 646.201 477.209 646.572 477.096L648.516 475.292C650.92 473.964 651.291 473.783 651.025 474.396C652.808 473.272 653.502 472.625 653.72 472.365C653.937 472.092 653.655 472.149 653.429 472.194C653.195 472.228 653.01 472.251 653.397 471.899C653.591 471.729 653.929 471.468 654.478 471.071C655.027 470.674 655.801 470.175 656.801 469.369C656.188 469.914 656.543 469.812 655.244 470.889C663.465 464.728 670.056 456.604 675.962 448.015C677.043 447.005 675.816 448.991 674.566 450.863C673.283 452.678 672.017 454.448 673.235 453.291C677.64 447.164 681.641 440.038 684.916 432.414C686.562 428.601 688.022 424.607 689.103 420.454C690.184 416.313 690.886 411.979 690.935 407.667C690.919 408.734 690.83 409.8 690.741 410.855C690.394 409.619 690.798 406.51 690.41 402.561C690.37 402.073 690.362 401.551 690.297 401.052C690.217 400.541 690.128 400.031 690.047 399.509C689.87 398.465 689.717 397.364 689.386 396.343C688.853 394.221 688.022 392.236 687.111 390.5C687.974 392.213 688.514 392.576 688.24 392.122C686.135 386.937 682.964 382.591 678.914 379.085C678.406 378.654 677.89 378.212 677.365 377.758C676.825 377.361 676.276 376.963 675.711 376.555C675.429 376.351 675.147 376.147 674.864 375.942C674.574 375.761 674.275 375.579 673.985 375.398C673.388 375.035 672.791 374.66 672.178 374.286C669.685 372.924 666.958 371.676 663.949 370.689L665.474 371.007C663.183 369.951 660.053 368.987 656.858 368.499C656.059 368.363 655.26 368.227 654.47 368.102C653.679 367.988 652.889 367.943 652.122 367.852C651.356 367.773 650.606 367.705 649.888 367.637C649.17 367.614 648.476 367.58 647.83 367.557C647.056 367.682 645.935 367.671 645.225 367.784C644.515 367.886 644.232 367.988 645.128 368.125C637.149 367.648 629.493 369.52 622.491 372.845C618.965 374.411 615.633 376.498 612.374 378.62C611.575 379.199 610.777 379.777 609.978 380.345L608.784 381.196L607.622 382.137C606.848 382.75 606.073 383.363 605.299 383.976C604.532 384.611 603.798 385.303 603.032 385.95C603.734 385.269 604.541 384.418 605.049 383.885C605.573 383.386 605.767 383.17 605.186 383.658C604.339 384.441 603.532 385.292 602.709 386.109L601.475 387.345L600.297 388.696L599.474 389.637C599.248 389.91 598.998 390.171 598.78 390.477L597.385 392.327C597.385 392.553 597.554 392.406 597.828 392.1C598.135 391.805 598.474 391.294 599.273 390.602C598.909 391.078 598.385 391.827 597.724 392.758C597.385 393.223 597.022 393.722 596.651 394.233C596.457 394.494 596.263 394.755 596.062 395.027L595.755 395.436C595.755 395.436 595.699 395.526 595.691 395.515L595.723 395.401L595.787 395.163C596.062 394.142 596.344 393.087 596.618 392.077C595.812 395.288 596.102 394.562 596.57 393.189C596.764 392.588 597.054 391.703 597.352 390.783C597.57 390.023 597.796 389.24 597.966 388.65C597.788 389.07 597.869 388.367 597.74 388.582C597.869 388.151 597.974 387.788 598.038 387.493C598.127 387.085 598.208 386.721 598.28 386.415C598.417 385.768 598.506 385.303 598.563 384.94C598.676 384.214 598.667 383.919 598.651 383.51C598.635 383.113 598.635 382.614 598.764 381.479C598.901 380.356 599.127 378.586 599.498 375.625L599.555 376.283C599.894 371.789 599.91 367.637 599.878 362.792C600.12 360.772 600.039 367.58 600.208 367.898C600.354 361.022 599.418 354.463 598.861 348.359C599.361 351.173 599.708 355.326 599.95 358.208C599.902 356.529 599.894 355.201 599.813 354.1C599.74 353 599.668 352.115 599.595 351.286C599.442 349.63 599.232 348.212 598.893 345.738L598.966 346.226C598.385 342.448 597.74 338.669 596.852 334.993L597.449 337.829C596.223 333.87 595.102 329.83 593.674 325.553C592.254 321.275 590.487 316.793 588.018 312.209C589.196 314.456 589.834 315.681 590.116 316.271C590.414 316.85 590.398 316.759 590.261 316.385C590.003 315.636 589.196 313.843 589.463 314.104C588.39 311.562 586.51 307.932 587.107 308.896C586.502 307.818 585.913 306.876 585.356 305.923L584.533 304.482C584.243 304.017 583.952 303.552 583.654 303.064C583.057 302.088 582.42 301.078 581.637 300.023C581.25 299.49 580.846 298.934 580.411 298.344C579.951 297.799 579.459 297.209 578.935 296.585C578.838 296.222 575.764 292.795 576.555 293.397C574.554 291.218 574.74 291.559 575.433 292.319C576.127 293.079 577.2 294.475 577.014 294.316C573.949 290.946 570.214 287.19 565.744 284.013C561.275 280.882 556.015 278.397 550.416 277.773C545.608 277.137 542.728 277.637 540.009 278.238C539.331 278.431 538.654 278.578 537.968 278.805C537.282 279.066 536.581 279.339 535.822 279.634C535.072 279.951 534.297 280.405 533.434 280.836C532.579 281.29 531.692 281.971 530.683 282.618C529.384 283.662 529.885 283.162 530.732 282.436C531.627 281.812 532.853 280.961 532.853 280.961C531.756 281.699 530.675 282.243 529.755 283.106C529.279 283.503 528.82 283.888 528.36 284.274C527.932 284.728 527.513 285.182 527.101 285.624C525.415 287.395 524.044 289.607 522.664 292.171C523.221 291.128 522.575 292.126 521.801 293.771C520.857 296.006 520.655 296.835 520.349 297.822C520.083 298.832 519.679 299.989 519.066 303.291C519.139 302.712 519.236 302.054 519.397 301.249C519.534 300.432 519.768 299.478 520.074 298.298C518.421 303.994 518.042 310.201 518.574 316.441C518.63 317.27 518.509 316.339 518.413 314.898C518.308 313.469 518.267 311.54 518.284 310.416C518.179 313.979 518.598 318.575 519.276 322.432C519.962 326.29 520.817 329.444 521.123 330.443C520.744 329.036 520.397 327.595 520.091 326.154C520.663 328.605 520.308 327.448 519.921 325.621C519.284 322.727 518.977 320.572 518.816 319.108C518.647 317.656 518.622 316.895 518.622 316.725C518.679 317.474 518.76 318.211 518.856 318.938C518.937 319.675 519.042 320.413 519.163 321.139C518.897 318.881 518.308 314.422 518.509 309.361C518.671 304.323 519.768 298.775 521.438 294.883C521.026 295.995 520.696 297.175 520.365 298.332C521.196 295.496 522.269 292.75 523.689 290.39C524.141 289.63 524.536 289.028 524.592 289.062C524.617 289.074 524.512 289.187 524.318 289.573C524.116 289.947 523.786 290.537 523.301 291.411C524.713 288.87 525.552 288.03 526.182 287.065C526.504 286.589 526.883 286.249 527.335 285.749C527.803 285.284 528.327 284.603 529.207 283.968C529.586 283.673 529.425 283.82 529.086 284.127C529.723 283.593 530.336 282.992 531.006 282.527L533.023 281.165C532.24 281.733 533.749 280.893 531.248 282.482C534.87 280.087 538.057 279.089 540.622 278.544C541.268 278.397 541.881 278.351 542.454 278.261C543.026 278.193 543.559 278.079 544.067 278.09C545.076 278.09 545.955 278.045 546.705 278.147C546.479 278.124 546.261 278.136 546.036 278.147C547.423 278.181 548.48 278.283 549.287 278.34C550.085 278.453 550.634 278.533 551.013 278.59C551.763 278.68 551.812 278.658 551.78 278.612C551.707 278.544 551.304 278.204 555.442 279.259C557.249 280.053 559.008 281.006 560.702 282.118L561.791 282.425C562.057 282.572 562.388 282.754 562.735 282.947C563.066 283.174 563.413 283.401 563.711 283.593C564.308 284.002 564.72 284.297 564.51 284.217C565.502 284.785 565.93 285.103 566.091 285.193C566.253 285.284 566.123 285.171 565.946 285.034C565.599 284.739 565.042 284.308 566.172 285.034C568.624 286.839 571.875 289.686 574.489 292.478C574.82 292.829 575.135 293.159 575.449 293.488C575.748 293.839 576.038 294.18 576.321 294.509C576.877 295.167 577.394 295.78 577.829 296.324C578.676 297.47 579.257 298.321 579.427 298.707C581 300.432 575.627 293.522 580.048 299.047C580.492 300.114 581.75 301.725 583.17 303.96C584.63 306.139 586.252 308.93 587.647 311.88C586.574 310.269 583.791 304.834 586.655 310.666C586.913 311.063 587.204 311.528 587.502 312.062C587.793 312.606 588.091 313.219 588.414 313.877C589.067 315.171 589.696 316.725 590.342 318.314C590.979 319.902 591.568 321.604 592.133 323.215C592.649 324.861 593.214 326.381 593.625 327.754C593.803 327.788 594.795 330.738 595.86 334.959C596.941 339.168 597.949 344.694 598.603 349.63C598.555 349.482 598.692 350.572 598.829 352.444C599.006 354.316 599.184 356.971 599.289 359.944C599.313 361.43 599.385 362.996 599.345 364.584C599.337 365.379 599.329 366.173 599.321 366.967C599.305 367.762 599.248 368.544 599.216 369.327C599.176 370.11 599.151 370.87 599.095 371.619C599.03 372.368 598.966 373.094 598.909 373.798C598.805 375.205 598.643 376.51 598.498 377.644L598.466 377.361C598.506 377.826 598.49 378.768 598.369 380.016C598.216 381.252 598.062 382.83 597.756 384.532C597.603 385.394 597.441 386.279 597.272 387.198C597.054 388.333 596.731 389.513 596.473 390.67C595.957 392.985 595.287 395.265 594.771 397.228C594.505 397.693 594.432 397.648 594.593 396.808C594.747 395.969 595.19 394.346 595.787 391.646C595.15 394.324 594.335 397.024 593.593 399.724L593.698 399.679L593.754 399.656C593.754 399.656 593.827 399.566 593.859 399.532L594.303 398.976C595.037 397.92 595.787 396.876 596.739 395.594C597.199 394.982 597.724 394.29 598.329 393.484C598.942 392.712 599.66 391.827 600.434 390.965L599.184 392.951C600.079 391.85 601.144 390.727 601.62 390.159L602.532 389.127C602.854 388.809 603.169 388.491 603.492 388.162C604.137 387.516 604.783 386.858 605.444 386.199C606.098 385.519 606.816 384.963 607.526 384.327C610.333 381.774 613.568 379.573 617.295 377.565C617.44 377.224 615.899 377.814 615.278 377.905C614.964 377.939 614.883 377.848 615.367 377.417C615.609 377.202 615.988 376.907 616.553 376.498C617.126 376.135 617.892 375.693 618.893 375.137C619.247 375.205 619.635 375.432 617.578 376.612C618.255 376.249 619.957 375.103 621.385 374.592C620.328 375.159 619.312 375.92 618.287 376.566C621.756 374.955 619.99 375.273 622.797 374.093C622.813 374.445 624.911 373.435 624.564 373.866C623.862 374.206 622.103 374.774 621.063 375.364C621.853 375.046 622.684 374.717 623.507 374.388C624.33 374.059 625.145 373.752 625.919 373.56C627.46 373.14 628.751 372.765 629.412 372.731C629.106 372.606 629.34 372.277 631.704 371.597C633.228 371.143 634.14 371.052 634.68 370.984C635.229 370.927 635.415 370.95 635.528 370.984C635.745 371.086 635.649 371.245 637.448 371.018C638.182 370.814 639.545 370.655 640.723 370.485C641.901 370.292 642.917 370.258 642.966 369.951C644.781 369.872 645.128 370.11 645.822 370.235C646.62 370.201 647.959 370.201 649.46 370.212C650.961 370.269 652.614 370.462 654.058 370.553C656.939 370.973 658.98 371.211 657.205 370.609L656.39 370.428C656.543 370.451 656.729 370.473 656.914 370.496C659.552 370.757 662.207 371.449 664.82 372.459C667.45 373.423 670.016 374.819 672.484 376.442C677.406 379.732 681.899 384.271 685.134 389.898L685.005 390.012C686.974 393.291 688.539 397.648 689.168 402.028C689.878 406.408 689.604 410.651 689.321 413.726C688.974 416.279 687.829 419.445 687.917 418.31C687.191 421.442 686.659 423.155 685.965 425.152C685.247 427.126 684.36 429.43 682.286 433.31C683.537 430.439 683.214 430.848 683.109 431.063C682.972 431.256 683.069 431.29 684.739 427.364C683.166 431.063 681.915 433.106 680.81 435.352C679.648 437.554 678.446 439.812 676.47 443.544C677.64 440.787 673.065 448.004 670.936 450.818C672.025 449.501 673.162 448.242 674.195 446.824C673.114 448.582 671.96 450.035 670.895 451.521C669.798 452.962 668.677 454.256 667.571 455.606L668.394 453.552C663.457 458.976 658.955 463.753 654.43 467.633C649.92 471.502 645.394 474.509 640.675 475.802C639.15 476.733 640.812 476.2 642.482 475.439C643.321 475.076 644.176 474.736 644.644 474.566C645.112 474.384 645.217 474.452 644.563 475.008C639.077 477.868 632.994 478.594 631.228 478.968C627.323 479.762 625.516 480.318 623.66 480.999C621.797 481.601 619.869 482.281 615.674 482.508C616.755 482.701 617.828 483.461 611.551 484.301C605.662 484.653 604.266 483.552 607.977 483.03C609.389 482.894 610.067 482.951 610.018 483.053C611.914 482.792 614.391 482.451 612.051 482.315L611.301 482.69C608.389 482.588 600.265 483.234 602.145 482.588C597.683 483.268 600.257 483.257 603.572 483.144C595.981 483.337 591.705 484.131 583.856 485.663C585.122 485.538 586.308 485.663 585.074 485.935C582.21 486.536 580.467 487.058 579.362 487.501C578.257 487.921 577.765 488.193 577.394 488.431C577.023 488.669 576.764 488.908 576.143 489.282C575.522 489.668 574.505 490.122 572.658 491.018C570.504 491.79 570.803 491.336 570.738 491.177C570.673 491.041 570.189 491.086 566.559 493.31C564.276 494.411 563.994 494.411 564.47 493.866C564.712 493.605 565.147 493.231 565.631 492.845C566.132 492.493 566.664 492.107 567.1 491.79C560.508 496.022 554.66 499.233 550.997 501.922L554.256 499.154C552.304 500.799 550.658 502.036 549.02 503.374L551.134 502.455C549.166 503.908 547.52 505.201 547.463 504.94C545.664 506.971 549.359 504.645 545.705 508.424C544.382 509.343 542.51 511.09 540.832 512.622C539.993 513.393 539.202 514.097 538.549 514.619C538.468 514.687 538.388 514.744 538.307 514.8C538.234 514.857 538.21 514.857 538.17 514.891C538.089 514.936 538.016 514.97 537.952 514.993C537.823 515.039 537.718 515.027 537.653 514.948C537.92 514.721 538.154 514.517 538.363 514.346C538.734 514.017 539.041 513.745 539.299 513.507C539.815 513.03 540.138 512.713 540.316 512.508C540.679 512.1 540.485 512.123 540.243 512.168C539.775 512.27 539.106 512.418 542.413 509.422C541.163 510.625 539.598 512.054 537.71 513.609C537.686 513.609 537.67 513.586 537.67 513.563C537.67 513.529 537.637 513.541 537.734 513.427C537.879 513.246 538.129 512.974 538.38 512.724C538.137 512.917 537.904 513.098 537.686 513.268L537.605 513.337C537.605 513.337 537.589 513.337 537.581 513.348H537.549L537.492 513.382C537.419 513.405 537.371 513.439 537.323 513.461C537.234 513.518 537.169 513.575 537.105 513.677C536.984 513.859 536.879 514.142 536.685 514.539C536.492 514.936 536.25 515.413 535.846 515.969C535.459 516.525 534.878 517.217 534.184 517.886C534.798 516.99 535.04 516.48 535.201 516.128C535.282 515.958 535.322 515.844 535.322 515.799C535.322 515.776 535.314 515.776 535.282 515.799L535.225 515.856C535.225 515.856 535.217 515.855 535.201 515.867C535.201 515.878 535.185 515.912 535.185 515.912L535.209 515.89H535.225C535.225 515.912 535.201 515.969 535.153 516.06C535.056 516.23 534.878 516.525 534.628 516.899C534.378 517.274 534.047 517.728 533.66 518.261C533.475 518.499 533.265 518.783 533.023 519.089L532.942 519.191L532.91 519.225L532.853 519.271C532.853 519.271 532.789 519.316 532.765 519.328C532.724 519.328 532.708 519.305 532.716 519.237C533.878 517.149 534.063 516.695 534.176 516.151C534.289 515.674 534.322 515.277 534.749 514.312L533.579 516.729C533.378 516.729 533.563 516.082 533.942 515.061C534.136 514.551 534.37 513.949 534.596 513.234C534.87 512.406 535.177 511.51 535.508 510.534C535.733 510.352 535.266 511.793 535.145 512.225C534.959 512.837 534.798 513.303 535.064 512.781C535.096 512.576 535.136 512.349 535.193 512.111L535.282 511.759L535.338 511.566L535.435 511.272C535.685 510.489 535.975 509.706 536.274 508.911C536.887 507.323 537.46 505.598 538.129 503.84C539.509 500.356 540.687 496.362 541.566 492.017C542.655 488.113 542.325 491.937 543.236 488.454C543.639 485.958 544.019 484.074 544.277 482.429C544.567 480.795 544.858 479.456 545.156 478.106C545.301 477.425 545.447 476.744 545.608 476.018C545.729 475.281 545.85 474.509 545.971 473.647C546.205 471.922 546.455 469.88 546.649 467.213C546.229 468.7 546.011 469.562 545.971 469.131C545.947 468.915 545.971 468.371 546.011 467.406C546.019 466.442 546.036 465.057 546.06 463.174C545.971 464.626 545.906 466.09 545.81 467.542L545.382 471.888C545.229 473.329 545.108 474.793 544.93 476.234L544.317 480.534C544.479 478.662 544.712 476.812 544.817 474.929L545.116 469.312C544.954 470.606 544.817 471.945 544.688 473.272C544.559 474.6 544.454 475.916 544.261 477.153C543.93 479.626 543.623 481.839 543.325 483.371C543.777 478.026 543.809 478.616 542.994 480.931C543.47 479.252 543.817 477.527 544.107 475.768C544.333 473.998 544.478 472.183 544.632 470.345C544.704 469.426 544.785 468.495 544.858 467.565C544.93 466.623 544.954 465.67 545.019 464.706C545.14 462.777 545.309 460.802 545.6 458.749L546.858 459.146C547.133 456.014 547.254 453.03 547.318 450.069C547.254 447.119 547.165 444.191 547.004 441.162C546.875 439.653 546.745 438.11 546.608 436.521C546.455 434.944 546.399 433.299 546.165 431.619C545.753 428.249 545.479 424.596 544.914 420.579L545.172 423.189L545.301 424.494L545.374 425.81C545.051 424.777 544.64 422.327 544.261 419.479C544.164 418.764 544.067 418.026 543.962 417.289C543.873 416.54 543.752 415.791 543.607 415.065C543.333 413.601 543.043 412.172 542.752 410.923C543.01 411.082 543.026 410.345 542.954 409.278C542.913 408.745 542.865 408.132 542.8 407.508C542.712 406.895 542.631 406.271 542.567 405.704C542.445 405.908 541.76 403.06 540.961 400.042C540.074 397.069 538.968 393.983 538.38 393.552L538.008 391.793L537.565 390.069L536.669 386.619C535.717 383.578 534.685 381.411 533.813 379.55C533.37 378.62 532.942 377.78 532.531 376.998C532.127 376.203 531.659 375.522 531.232 374.808C530.36 373.401 529.505 372.016 528.561 370.326C527.577 368.681 526.432 366.797 525.117 364.255C527.142 366.854 524.907 361.997 528.852 368.465C527.021 365.095 525.447 361.963 525.165 362.213C524.697 361.147 523.213 359.059 521.672 356.835C520.099 354.645 518.34 352.489 517.541 350.855C516.533 349.755 515.863 349.913 513.419 346.691C513.209 346.249 513.58 346.464 513.58 346.464C513.5 346.578 512.483 345.398 511.692 344.66C510.886 343.945 510.345 343.605 511.321 345.159C508.256 340.303 503.093 334.766 497.631 330.386C496.276 329.263 494.872 328.298 493.541 327.266C492.871 326.767 492.218 326.245 491.556 325.78C490.895 325.337 490.241 324.895 489.604 324.475C488.329 323.624 487.143 322.739 486.038 321.944C484.917 321.207 483.892 320.492 483.005 319.766C482.23 319.38 481.44 318.972 480.641 318.575C479.818 318.234 478.987 317.894 478.14 317.542C476.454 316.85 474.752 316.078 473.017 315.602C472.154 315.329 471.299 315.046 470.452 314.785C469.605 314.513 468.774 314.229 467.943 314.059C466.289 313.684 464.716 313.253 463.247 312.947C463.643 312.833 463.304 312.595 464.401 312.947C462.4 312.323 461.053 312.186 460.053 312.118C459.052 312.073 458.375 312.175 457.665 312.334C456.955 312.482 456.213 312.629 455.075 312.618C454.51 312.618 453.841 312.561 453.026 312.493C452.211 312.447 451.251 312.357 450.106 312.209C445.402 310.882 455.035 311.914 452.106 311.347C451.509 310.269 448.678 310.042 445.249 310.292C444.394 310.337 443.498 310.394 442.587 310.439C441.675 310.53 440.756 310.609 439.844 310.655C438.013 310.734 436.23 310.814 434.657 310.655L436.165 310.394C431.341 309.985 424.596 312.493 416.916 313.866C416.916 313.866 417.271 313.605 416.924 313.537C411.777 315.647 401.967 318.348 394.699 320.492C396.869 319.085 397.966 319.233 396.465 318.711C393.206 319.641 397.595 319.857 391.084 321.706C388.898 321.774 384.13 322.489 383.396 321.672C385.453 321.23 387.502 320.696 389.56 320.186C386.26 319.8 381.581 322.058 378.305 322.557L378.66 321.944C369.23 324.146 369.238 325.632 359.008 327.3L360.097 327.504C354.628 329.808 355.354 327.595 349.86 329.558C349.263 329.218 348.666 328.832 348.069 328.469C346.237 328.888 343.019 329.626 339.445 330.454C337.654 330.84 335.766 331.249 333.918 331.657C332.991 331.839 332.079 332.02 331.184 332.202C330.288 332.326 329.417 332.451 328.594 332.576C329.522 332.224 330.7 331.941 332.023 331.555C333.338 331.18 334.798 330.806 336.29 330.432C339.275 329.694 342.389 328.991 344.769 328.378C341.107 328.854 332.345 330.205 330.474 331.067C331.942 330.795 333.781 330.171 335.25 330.193C334.144 330.613 332.942 330.999 331.66 331.373C330.369 331.725 328.989 331.997 327.513 332.27C324.568 332.803 321.261 333.246 317.598 333.586C318.187 332.19 313.419 332.621 307.82 332.735C302.222 332.905 295.8 333.325 293.13 332.315C289.894 332.587 286.676 332.712 283.424 332.746C280.173 332.746 276.898 332.826 273.558 332.542C270.218 332.315 266.814 332.088 263.296 331.861C261.537 331.759 259.755 331.657 257.947 331.555C256.132 331.385 254.293 331.226 252.413 331.101C257.681 333.552 248.016 330.806 248.855 332.951C245.338 332.792 243.999 332.656 243.692 332.497C240.159 331.873 236.649 330.92 233.14 330.069C230.663 329.149 236.496 330.046 236.198 329.535C228.558 328.389 233.043 328.253 228.025 327.05C229.018 327.89 225.29 327.822 220.958 326.869C222.967 327.561 225 328.06 227.025 328.662C221.628 328.582 219.369 327.652 217.094 326.823C214.819 325.984 212.544 325.133 207.123 324.724L210.575 324.69C209.188 324.543 207.227 324.236 204.985 323.885C202.742 323.499 200.217 322.898 197.692 322.421C195.167 321.922 192.633 321.468 190.391 321.15C188.148 320.821 186.171 320.719 184.792 320.708C183.856 320.208 182.662 319.301 185.074 319.823C181.831 318.847 178.386 317.951 174.885 317.111C173.134 316.702 171.368 316.283 169.609 315.863C167.842 315.488 166.116 314.898 164.389 314.433C160.953 313.446 157.605 312.47 154.499 311.46C152.95 310.938 151.449 310.485 150.054 309.895C148.658 309.293 147.343 308.692 146.125 308.079L147.182 307.988C144.777 307.183 142.857 307.239 139.969 305.583C140.163 305.447 141.026 305.492 139.929 305.027C139.284 304.857 137.654 304.437 135.806 303.87C134.879 303.575 133.894 303.28 132.959 302.894C132.023 302.497 131.127 302.077 130.361 301.646L133.144 302.338C127.061 299.217 122.277 297.391 117.695 295.768C117.122 295.564 116.558 295.371 115.985 295.167L114.307 294.486C113.185 294.021 112.064 293.567 110.926 293.09C108.643 292.137 106.28 291.093 103.706 289.845C103.9 289.176 101.633 287.519 98.7527 285.636C95.8888 283.696 92.4117 281.494 90.1206 279.985L90.3384 279.894C83.465 275.674 77.6322 272.122 71.9931 268.435C66.362 264.736 60.9003 260.912 54.9869 255.795C51.6793 251.857 45.79 245.889 39.8685 238.582C33.939 231.298 28.1224 222.515 24.2177 214.641C24.7986 215.866 24.5969 215.923 24.0564 215.367C23.5159 214.8 22.6768 213.54 21.9104 212.202C21.0069 210.329 19.6758 207.822 18.6189 205.825C17.5863 203.816 16.9651 202.217 17.4491 202.217L18.03 203.612C17.7799 201.831 16.6908 199.074 15.5533 195.817C15.2548 195.012 14.9402 194.183 14.6255 193.344C14.327 192.493 14.0285 191.619 13.7301 190.757C13.1331 189.021 12.5119 187.307 12.044 185.639L10.6806 185.163C9.68827 180.59 8.63143 175.348 7.5504 169.891C7.31644 168.518 7.08249 167.122 6.84853 165.726C6.72752 165.023 6.59037 164.331 6.4855 163.627L6.19507 161.506C6.00952 160.087 5.78363 158.68 5.61421 157.262C5.47707 155.844 5.33185 154.437 5.19471 153.041C4.06527 141.853 4.86394 131.562 6.187 126.729C6.36448 124.482 6.69525 121.997 7.05022 119.512C7.26804 118.287 7.49393 117.061 7.70368 115.87C7.90536 114.667 8.09898 113.499 8.33294 112.421L8.80892 112.909C9.21229 111.456 9.58339 110.095 9.94643 108.79C10.3014 107.485 10.7532 106.316 11.1243 105.136C11.5276 103.979 11.8503 102.81 12.286 101.732C12.7055 100.643 13.1331 99.5538 13.5606 98.4532C13.7704 97.8973 13.9882 97.3413 14.206 96.774C14.4481 96.2293 14.6981 95.6847 14.9563 95.1174C15.4565 93.9827 15.9809 92.814 16.5375 91.5659C17.7799 89.2172 19.0707 86.4827 20.8859 83.6234L19.7403 86.3466C20.7487 84.7354 21.4829 83.3171 22.096 82.0009C22.7656 80.7641 23.3061 79.6295 23.8385 78.4835C24.1048 77.9161 24.371 77.3375 24.6453 76.7588C24.9519 76.2255 25.2746 75.6809 25.6295 75.1136C25.9845 74.5462 26.3717 73.9676 26.8154 73.3662C27.2511 72.7649 27.727 72.1068 28.3321 71.5508L30.2199 71.0856C30.7685 70.5409 31.3171 69.985 31.8737 69.463L33.6324 68.0561L35.3911 66.6605C35.98 66.2066 36.6174 65.8775 37.2305 65.4804C39.6588 63.8579 42.2162 62.6098 44.8219 61.5772C50.0335 59.5122 55.4226 58.3435 60.8197 57.1975C60.6503 57.3904 60.3437 57.7081 58.5769 58.0258C59.8596 57.8216 61.7555 57.6627 63.845 57.5039C65.9425 57.3677 68.2417 57.2769 70.3231 57.1975C74.494 57.05 77.7855 56.8571 76.8255 56.1196C76.9626 56.9819 88.3296 56.199 94.3802 56.1423L93.4202 56.7777C95.9775 56.4713 97.2925 56.3125 98.8657 56.2104C100.439 56.0969 102.262 56.1309 105.82 56.3579C107.498 56.6075 107.264 57.0273 105.037 56.6529C110.62 57.5152 109.442 56.4713 116.211 57.6514C115.356 57.6627 114.508 57.7194 113.653 57.7535C119.405 58.5364 118.962 58.3322 122.164 58.2981C123.988 58.4456 126.706 59.0016 129.07 59.5462C131.434 60.1135 133.435 60.817 133.822 61.1688C134.629 60.9759 137.815 61.1347 141.163 62.1105C141.591 62.4282 140.348 62.2694 139.727 62.2013C149.215 64.7769 153.982 65.0493 160.404 67.5795C160.509 67.8178 160.92 68.0447 161.445 68.2717C160.509 67.9766 159.597 67.693 158.71 67.4093C157.822 67.1597 156.975 66.9101 156.169 66.6718C154.555 66.2066 153.111 65.7868 151.917 65.435C149.529 64.7883 148.15 64.4252 148.44 64.4706C148.367 65.0379 154.442 66.6832 149.497 66.2179C151.974 66.5924 155.314 67.2732 158.783 67.988C162.235 68.8276 165.825 69.7353 168.73 70.8927C169.004 71.0402 169.278 71.1877 169.472 71.3352L168.851 71.1877C170.198 71.6983 171.416 72.0614 172.578 72.3677C174.425 73.1279 175.603 73.6385 177.386 74.308C178.007 74.9434 184.195 77.1673 187.156 78.404C187.027 77.7573 190.883 79.4933 187.349 77.4963C187.809 77.7346 186.777 77.3148 184.792 76.5546C184.34 76.3957 183.816 76.1915 183.509 76.1007C183.566 76.1007 183.646 76.1234 183.719 76.1347C181.767 75.3632 179.217 74.3534 176.297 73.3095C177.507 73.6045 178.741 73.9222 180.072 74.3647C181.404 74.8412 182.84 75.4313 184.453 76.2482C186.059 76.4978 187.809 76.8269 188.785 77.0765C192.698 79.5046 200.37 83.4646 201.346 84.4063C210.398 88.2641 222.515 94.3004 228.38 96.0932C230.962 97.2051 231.252 97.7497 232.172 98.3398C230.671 97.7271 228.929 96.8761 228.098 96.6265C233.245 98.8731 243.289 103.627 244.66 103.525C251.09 106.634 240.877 102.504 249.84 106.248L248.589 105.919C257.302 110.106 264.635 112.421 272.243 114.406C279.859 116.347 287.74 118.003 297.881 119.671C296.478 119.444 295.776 119.331 295.493 119.217C307.062 120.976 319.179 120.511 330.958 117.64C336.847 116.165 342.631 113.975 348.198 111.195C353.772 108.461 359.113 104.909 363.978 100.575C369.431 95.4691 369.819 94.4933 372.723 90.6582L373.86 89.4441C375.434 87.1295 376.91 84.6786 378.257 82.103C381.153 76.6794 383.283 71.5281 384.832 65.5598C385.607 62.5757 386.179 59.3647 386.542 55.8246C386.68 54.9509 386.663 54.0205 386.712 53.0901C386.744 52.1597 386.784 51.2066 386.825 50.2308C386.8 49.255 386.744 48.2565 386.704 47.2353C386.655 46.2141 386.639 45.1589 386.47 44.1037L386.567 45.2043V46.3162C386.558 45.9305 386.567 45.5107 386.518 45.0795C386.47 44.6483 386.413 44.1945 386.365 43.7179C386.252 42.7762 386.139 41.755 386.018 40.7224C385.865 39.6899 385.631 38.6574 385.445 37.6249C385.243 36.5923 385.074 35.5712 384.792 34.6521C383.872 30.8737 382.783 28.1733 382.993 28.6044C382.783 28.0484 382.355 26.789 381.444 24.7466L381.403 24.5651C380.508 22.3639 379.354 20.4123 378.265 18.404L376.458 15.59C376.168 15.1021 375.845 14.671 375.506 14.2512L374.514 12.969C374.135 12.4698 373.804 12.0386 373.522 11.6528C373.215 11.3124 372.957 11.0288 372.731 10.7791C372.295 10.2912 372.013 9.98488 371.835 9.78065C371.48 9.37217 371.521 9.40621 371.464 9.32679C371.4 9.27006 371.279 9.03178 370.496 8.29426C370.101 7.94252 369.544 7.45462 368.77 6.76249C368.011 6.01362 366.938 5.31014 365.575 4.36838C365.325 4.18684 365.051 4.0053 364.776 3.81241C364.486 3.64221 364.187 3.49471 363.881 3.33586C363.26 3.01816 362.614 2.67776 361.961 2.33737L361.469 2.08775L360.961 1.9062C360.622 1.78139 360.291 1.66793 359.96 1.54312C359.299 1.31619 358.661 1.06657 358.064 0.873675C355.644 0.397124 353.998 0.0794231 354.837 0.238274C355.741 0.419817 356.895 0.646746 357.838 0.839636C358.774 1.08926 359.484 1.41831 359.557 1.42965C358.234 0.850982 356.854 0.658093 355.491 0.374431C355.12 0.283659 354.144 0.124809 354.523 0.192888C354.716 0.204234 355.241 0.340392 356.338 0.567321C356.886 0.714825 357.596 0.782904 358.452 1.07791C359.299 1.40696 360.331 1.78139 361.541 2.28064C362.639 2.89335 363.744 3.44932 364.825 4.09607C365.866 4.85628 366.938 5.55976 367.955 6.37671L369.851 8.13541C369.012 7.40924 368.213 6.58095 367.334 5.92285L364.696 4.01664C367.705 6.13843 369.536 7.70424 371.448 9.72391C371.868 10.2572 372.682 11.0628 373.715 12.3903C374.538 13.5136 375.433 14.5575 376.208 15.7489C376.958 16.9743 377.781 18.1203 378.491 19.4024C378.717 19.9017 378.265 19.0167 378.055 18.7103C377.951 18.5628 377.926 18.5288 378.112 18.8465C378.281 19.1869 378.644 19.9017 379.322 21.2179C380.29 23.0333 379.854 22.1369 379.572 21.5469C379.427 21.2519 379.322 21.025 379.459 21.2519C379.524 21.3654 379.645 21.6037 379.854 21.9894C379.959 22.1823 380.08 22.4206 380.234 22.7043C380.371 22.9993 380.516 23.351 380.693 23.7481C382.396 27.8442 381.871 26.6642 383.59 31.6566C383.67 32.0311 383.638 31.9403 383.509 31.5091C383.372 31.078 383.089 30.3291 382.751 29.3419C382.944 29.8979 383.154 30.4993 383.372 31.1233C383.582 31.7587 383.735 32.4622 383.928 33.1544C384.292 34.5613 384.719 36.0023 384.945 37.4433C385.082 38.1581 385.211 38.8616 385.332 39.5197C385.397 39.8488 385.453 40.1778 385.518 40.4842C385.566 40.8019 385.59 41.1082 385.631 41.4032C385.768 42.5833 385.889 43.5477 385.978 44.1718C386.195 46.6113 386.268 50.7754 386.01 54.2247C385.687 57.6627 385.26 60.4086 385.179 60.1362C385.114 60.5107 384.985 61.2255 384.824 62.1446C384.655 63.0636 384.477 64.221 384.138 65.401C383.816 66.581 383.541 67.8972 383.146 69.0999C382.743 70.3027 382.347 71.4714 382.008 72.4925C383.162 68.6915 381.968 72.5833 380.064 76.7815C379.556 77.7913 379.023 78.8465 378.523 79.845C378.039 80.8549 377.466 81.6945 377.039 82.4434C376.595 83.1809 376.24 83.7596 376.014 84.1C375.772 84.4177 375.676 84.4971 375.78 84.2702C374.417 86.6302 371.706 90.6355 368.262 94.3799C364.849 98.1582 360.767 101.664 357.346 104.172C357.717 103.854 358.443 103.241 359.049 102.822C358.08 103.514 357.298 104.104 356.596 104.569C355.886 105 355.297 105.375 354.741 105.715C353.643 106.418 352.683 106.861 351.384 107.576C351.005 108.313 344.632 111.558 341.147 113.136C338.525 113.896 339.291 113.453 340.501 112.943C341.695 112.341 343.317 111.547 342.478 111.695C342.841 112.08 333.58 115.189 335.379 114.838C331.337 115.632 331.918 115.677 329.804 115.779C329.481 116.12 328.546 116.324 327.279 116.574C326.642 116.698 325.932 116.834 325.157 116.982C324.383 117.095 323.568 117.243 322.729 117.447C319.784 117.731 319.397 117.572 318.945 117.527C318.494 117.481 317.969 117.504 314.742 117.822C313.201 117.754 313.871 117.64 314.92 117.549C315.968 117.402 317.396 117.243 317.396 117.243L317.421 117.039ZM167.762 66.6264V66.6151C169.068 67.0576 170.174 67.432 170.884 67.6703C170.23 67.4547 169.335 67.1484 167.762 66.6264ZM154.999 62.6098C156.556 63.109 158.5 63.6309 160.541 64.3004C160.953 64.6521 160.436 64.6975 159.162 64.2777C159.88 64.3458 156.887 63.3473 154.999 62.6098ZM181.097 75.6922C179.104 74.9661 178.459 74.6597 178.209 74.4328C179.153 74.7618 180.25 75.159 181.686 75.7036C181.751 75.7036 181.872 75.7263 181.936 75.7263C181.726 75.7603 181.492 75.7717 181.097 75.6922Z" fill="#F3BB28"/>
<path d="M184.8 76.3957C185.091 76.4978 185.252 76.5432 185.623 76.6794C185.228 76.4752 184.849 76.2823 184.469 76.078C184.219 76.044 183.961 75.9986 183.735 75.9646C184.098 76.1007 184.469 76.2482 184.8 76.3844V76.3957Z" fill="#F3BB28"/>
<path d="M657.222 370.496L657.496 370.553C657.27 370.496 657.069 370.439 656.932 370.383C657.109 370.439 657.109 370.451 657.222 370.496Z" fill="#F3BB28"/>
<path d="M0.702148 128.805H0.847362L0.903834 127.137L0.702148 128.805Z" fill="#F3BB28"/>
<path d="M598.039 388.503C598.096 388.367 598.192 388.117 598.305 387.675C598.281 387.709 598.176 388.049 598.039 388.503Z" fill="#F3BB28"/>
<path d="M598.967 345.59C598.66 343.559 598.354 341.528 597.95 339.531C598.458 342.13 598.717 344.059 598.967 345.59Z" fill="#F3BB28"/>
<path d="M589.874 314.456C589.673 314.127 589.6 314.047 589.527 313.979C589.535 314.002 589.544 314.013 589.552 314.036L589.874 314.456Z" fill="#F3BB28"/>
<path d="M527.005 521.472C527.336 520.746 527.658 520.02 527.949 519.384C529.022 516.945 529.199 516.525 528.885 517.228C528.586 517.909 527.812 519.657 527.005 521.483V521.472Z" fill="#F3BB28"/>
<path d="M622.015 484.63C620.829 484.959 619.652 485.209 618.409 485.447C620.426 485.277 621.991 485.05 622.015 484.63Z" fill="#F3BB28"/>
<path d="M515 357.232C515 357.232 515 357.232 515.017 357.232C514.831 356.971 514.67 356.744 514.492 356.472L515 357.221V357.232Z" fill="#F3BB28"/>
<path d="M613.149 485.98C615.166 485.946 616.852 485.753 618.401 485.458C616.747 485.617 614.803 485.719 613.149 485.98Z" fill="#F3BB28"/>
<path d="M519.736 324.668L520.067 326.222C520.067 326.222 520.091 326.29 520.116 326.404L519.736 324.668Z" fill="#F3BB28"/>
<path d="M520.115 326.404C520.244 326.982 520.389 327.538 520.527 328.106C520.333 327.323 520.172 326.642 520.115 326.404Z" fill="#F3BB28"/>
<path d="M521.487 331.646C521.149 330.477 520.818 329.308 520.527 328.106C520.826 329.354 521.245 330.851 521.487 331.646Z" fill="#F3BB28"/>
<path d="M527.925 284.41L528.191 284.047C528.038 284.229 527.941 284.354 527.925 284.41Z" fill="#F3BB28"/>
<path d="M536.703 278.749C534.468 279.52 531.088 281.109 528.425 283.775C528.345 283.854 528.264 283.945 528.191 284.047C528.49 283.718 529.047 283.276 529.716 282.708C530.055 282.447 530.402 282.096 530.813 281.846C531.217 281.585 531.636 281.313 532.064 281.041C532.903 280.45 533.823 280.053 534.629 279.645C535.436 279.202 536.178 278.964 536.703 278.737V278.749Z" fill="#F3BB28"/>
<path d="M574.24 292.478C572.143 290.163 569.884 288.143 567.569 286.294C568.182 286.77 568.835 287.463 568.972 287.61C569.037 287.701 568.972 287.667 568.698 287.451C568.424 287.236 567.94 286.827 567.125 286.249C571.441 289.868 570.941 289.618 570.61 289.119C570.433 288.904 570.263 288.688 570.691 289.028C570.901 289.21 571.256 289.528 571.836 290.061C572.417 290.583 573.208 291.332 574.24 292.466V292.478Z" fill="#F3BB28"/>
<path d="M590.359 318.62C588.124 313.48 590.278 318.779 590.117 318.529C591.513 321.797 591.835 322.614 590.359 318.62Z" fill="#F3BB28"/>
<path d="M687.168 420.454L686.95 419.694C685.756 423.87 687.087 419.819 687.168 420.454Z" fill="#F3BB28"/>
<path d="M667.516 459.736C668.427 458.862 669.339 458.011 670.21 457.047L671.122 455.175L669.355 457.501C668.766 458.272 668.129 458.987 667.524 459.725L667.516 459.736Z" fill="#F3BB28"/>
<path d="M648.711 470.935L649.969 470.016C649.163 470.583 648.364 471.173 647.541 471.718L645.064 473.261C646.283 472.478 647.525 471.82 648.711 470.935Z" fill="#F3BB28"/>
<path d="M489.854 322.625L490.476 324.168C491.541 324.758 492.283 324.872 492.299 324.6C492.331 324.293 491.637 323.624 489.854 322.625Z" fill="#F3BB28"/>
<path d="M360.098 326.347C358.638 326.063 354.984 326.37 352.781 327.289C355.694 326.846 358.63 326.744 360.098 326.347Z" fill="#F3BB28"/>
<path d="M9.18102 176.211L10.2621 179.467L9.3585 176.347C9.04387 175.303 8.82605 174.225 8.55176 173.17C8.76151 174.18 8.93899 175.212 9.18102 176.211Z" fill="#F3BB28"/>
</g>
<defs>
<clipPath id="clip0_2003_333">
<rect width="691" height="533" fill="white"/>
</clipPath>
</defs>
</svg>
