<svg width="193" height="279" viewBox="0 0 193 279" fill="none" xmlns="http://www.w3.org/2000/svg">
<g clip-path="url(#clip0_2003_387)">
<path d="M192.14 0.0900068C192.28 -0.0999932 192.19 6.73532e-06 191.85 0.540007L191.62 0.930007L192.14 0.0900068Z" fill="#F5C443"/>
<path d="M189.81 3.66C189.46 4.32 189.1 5.1 189.38 4.71C189.69 4.04 189.77 3.88 190.13 3.17C190.47 2.64 190.74 2.25 190.69 2.34C190.82 2.14 191.19 1.55 191.4 1.22C190.95 1.91 190.33 2.76 189.81 3.72C189.69 3.92 189.79 3.72 189.81 3.66Z" fill="#F5C443"/>
<path d="M179.99 63.98L180.02 63.57C179.99 63.68 179.98 63.82 179.99 63.98Z" fill="#F5C443"/>
<path d="M183.23 102.18C183.2 101.89 183.12 101.77 183.05 101.76C183.11 102.03 183.17 102.24 183.23 102.18Z" fill="#F5C443"/>
<path d="M182.51 108.68C182.53 108.54 182.55 108.42 182.57 108.3C182.5 108.45 182.45 108.59 182.51 108.68Z" fill="#F5C443"/>
<path d="M179.99 63.98L179.91 65.02C180.1 65.07 179.99 64.48 179.99 63.98Z" fill="#F5C443"/>
<path d="M186.28 11.41C186.35 11.21 186.4 11.04 186.44 10.88C186.38 11.05 186.33 11.21 186.27 11.37C186.27 11.38 186.27 11.39 186.27 11.41H186.28Z" fill="#F5C443"/>
<path d="M178.82 47.01V46.7C178.77 46.61 178.71 46.52 178.65 46.44L178.82 47.01Z" fill="#F5C443"/>
<path d="M179.57 33.95C179.52 34.24 179.81 34.38 179.93 34.5C179.82 34.32 179.79 34.1 179.79 33.84C179.73 33.83 179.66 33.86 179.56 33.95H179.57Z" fill="#F5C443"/>
<path d="M184.71 13.92C184.74 13.8 184.78 13.68 184.82 13.57C184.79 13.66 184.74 13.81 184.71 13.92Z" fill="#F5C443"/>
<path d="M178.91 56.38C178.85 56.41 178.79 56.46 178.76 56.51C178.82 56.51 178.87 56.46 178.91 56.38Z" fill="#F5C443"/>
<path d="M14.9105 261.4V261.38C14.8305 261.38 14.8105 261.38 14.9105 261.4Z" fill="#F5C443"/>
<path d="M0.0595703 258.82L0.26957 258.85H0.30957L0.0595703 258.82Z" fill="#F5C443"/>
<path d="M180.99 120.32C180.99 120.32 181 120.29 181.01 120.27C180.96 119.96 180.96 120.13 180.99 120.32Z" fill="#F5C443"/>
<path d="M173.71 229.48C174.61 228.37 174.42 231.55 175.47 229.85C175.12 229.97 174.38 228.05 173.71 229.48Z" fill="#F5C443"/>
<path d="M186.14 11.72C186.08 11.88 186.02 12.05 185.95 12.22C186.04 11.99 186.09 11.84 186.14 11.72Z" fill="#F5C443"/>
<path d="M175.48 229.85L175.58 229.67C175.53 229.74 175.51 229.79 175.47 229.85H175.48Z" fill="#F5C443"/>
<path d="M176.01 147.05C176.16 147.02 176.28 146.94 176.41 146.85C176.33 146.85 176.22 146.88 176.01 147.05Z" fill="#F5C443"/>
<path d="M181.49 127.3L181.31 127.78C181.41 127.6 181.46 127.44 181.49 127.3Z" fill="#F5C443"/>
<path d="M174.87 157.88C174.76 158.15 174.64 158.22 174.68 158.62C174.73 158.59 174.76 158.56 174.8 158.52C174.72 158.36 174.7 158.17 174.88 157.88H174.87Z" fill="#F5C443"/>
<path d="M173.47 169.17C173.54 169.11 173.58 169.04 173.65 168.97C173.65 168.86 173.65 168.72 173.64 168.61L173.48 169.17H173.47Z" fill="#F5C443"/>
<path d="M48.3505 266.68C48.1205 266.54 47.9905 266.4 47.8905 266.27C48.0305 266.56 46.4005 266.4 48.3505 266.68Z" fill="#F5C443"/>
<path d="M186.21 11.39C186.21 11.46 186.19 11.56 186.14 11.72C186.18 11.6 186.22 11.49 186.26 11.37C186.26 11.33 186.24 11.32 186.2 11.39H186.21Z" fill="#F5C443"/>
<path d="M180.99 159.37L180.61 161.04C180.75 160.58 180.9 159.97 180.99 159.37Z" fill="#F5C443"/>
<path d="M127.72 277.71L127.3 277.77C127.46 277.8 127.61 277.78 127.72 277.71Z" fill="#F5C443"/>
<path d="M180.13 166.07C179.82 166.34 179.63 166.65 179.5 166.97C179.56 167.05 179.6 167.13 179.69 167.19L180.13 166.07Z" fill="#F5C443"/>
<path d="M36.2704 265.23C37.9304 265.52 37.1004 264.97 37.4804 264.8C39.4804 264.99 38.3604 265.24 39.0104 265.56C40.2604 265.66 41.2704 265.41 42.1904 265.56C42.2504 265.64 42.4304 265.7 42.2004 265.76C43.5604 265.61 46.1004 266.36 47.6904 266.11C47.8004 266.17 47.8504 266.22 47.8704 266.26C47.6504 265.98 47.6504 265.73 47.7204 265.56C48.4704 265.66 49.1504 265.44 49.3904 265.8C48.9304 265.73 48.8804 265.85 48.6504 265.92L49.4504 265.89C50.0904 266.46 48.3604 265.9 48.3104 266.24C49.8604 266.32 51.6904 266.17 52.8404 266.47C53.0204 266.99 50.0804 266.23 51.5904 266.89L49.8004 266.44C51.0904 267.38 48.7104 266.22 49.8804 267.2C52.2404 267.72 52.5704 267.38 54.9304 267.89C55.5004 267.69 54.8104 267.45 55.3804 267.25C58.8304 267.22 57.8704 268.96 60.4404 268.64C61.1304 268.38 61.4704 267.72 63.1904 268.35L62.5104 268.89C64.8104 269.31 63.9504 268.17 66.3104 268.96C65.8504 269.15 64.4704 268.91 64.8104 269.03C66.3104 269.77 65.9604 268.83 67.1704 269L67.3404 269.62C69.8104 269.91 72.5704 269.87 75.3104 270.14C75.1404 270.31 74.6404 270.43 75.2604 270.72C78.7304 270.92 82.5804 271.87 85.8304 272.79L87.1704 272.38C87.4604 272.43 87.6804 272.73 87.3504 272.8C88.6104 273.22 87.4704 272.43 88.1204 272.28C88.8604 272.34 89.0404 272.77 88.5604 272.88C90.9004 272.71 95.1904 272.68 97.5104 273.71L97.0204 273.83C98.8504 274.37 99.3004 272.8 100.96 273.65L100.61 273.72C104.63 274.59 109.19 274.58 112.16 276.07C112.87 275.15 116.16 277.08 116.59 275.67C118.86 276.66 118.15 276.86 121.45 277.7C122.34 277.86 122.86 276.9 123.97 276.84L123.94 277.62C124.46 277.39 124.98 277.16 125.5 276.91L126.26 277.9L127.32 277.76C126.9 277.69 126.45 277.35 126.52 277.13C128.15 276.89 130.49 277.82 130.54 278.25C131.85 278.02 133.15 277.83 134.45 277.53C134.38 277.85 133.72 278.01 133.21 278.21C135.28 277.33 133.63 279.06 135.53 278.22C135.26 278.05 135.64 277.73 135.67 277.56C136.16 277.8 136.96 277.86 137.84 277.82C138.72 277.79 139.67 277.65 140.47 277.42L140.23 278.03C143.23 277.84 146.45 276.73 149.69 275.66C148.44 275.79 148.41 274.73 149.3 274.34L149.97 275.06C150.38 274.34 148.89 275.06 149.89 274.02C150.49 273.88 150.78 274.03 150.84 274.3C150.91 274.58 150.75 274.96 150.45 275.21C150.91 274.96 151.34 274.65 151.78 274.36C151.97 274.57 151.68 274.84 151.72 275.2C152.08 274.45 154.62 275.02 155.03 273.67L155.23 273.87C156.82 273.14 157.84 272.35 158.81 271.67C159.8 271.01 160.61 270.25 161.72 269.38C161.26 268.7 162.29 268.23 162.45 267.17C163.27 266.59 164.22 266.04 165.16 265.39C166.05 264.69 166.96 263.92 167.76 262.98C168.5 261.37 167.54 262.15 167.62 261.25C168.27 261.61 169.7 259.65 169.36 260.96C170.24 259.78 170.64 258.93 171.15 258.04C171.66 257.14 172.07 256.09 172.68 254.35C172.22 254.55 171.89 254.87 171.78 254.55C171.99 253.93 172.78 253.4 173.05 253.65L173.03 253.84C173.45 251.78 174.92 249.93 176.18 248C176.85 247.05 177.4 246.08 177.8 245.13C178.2 244.18 178.42 243.26 178.23 242.37L178.26 242.57C178.28 241.42 178.35 240.28 178.32 239.15C178.78 237.69 178.68 240.18 179.38 239.18C179.16 237.28 179.52 235.92 179.82 234.62C179.98 233.97 180.16 233.34 180.27 232.69C180.37 232.03 180.38 231.34 180.27 230.59C181.57 229.61 181.72 227.55 181.74 225.41C181.71 223.26 181.56 221.04 182.28 219.53L181.74 219.7C181.23 218.91 182.06 218.75 182.18 218.17C181.76 218.25 181.69 219.02 181.41 218.54C180.78 211.92 181.69 204.88 181.62 198.2C181.56 195.76 178.77 197.04 179.79 193.9L180.84 194.69C179.27 189.91 180.11 184.8 178.97 180.16C179.2 180.43 179.5 180.43 179.51 180.89C180.16 179.88 179.46 177.25 178.88 177.23C178.93 176.5 179.4 177.06 179.68 176.61C180.08 175.63 178.8 174.13 179.5 173.62C179.61 173.53 179.72 173.9 179.78 174.08C179.43 173.43 179.94 171.11 179.12 171.69C179.35 170.83 179.28 169.99 179.25 169.2C179.23 168.41 179.22 167.67 179.51 167C178.67 166.01 180.24 164.1 179.01 163.66C180.28 163.94 180.42 160.78 180.03 159.58C180.35 160.01 180.58 158.7 181.04 159.21C181.21 157.97 181.2 156.78 180.51 156.88C182.41 154.88 180.22 151.99 182.38 151.09C182.5 147.22 182.87 143.63 183.33 140.17C184.49 140.57 182.62 143.95 183.91 144.09C184.12 140.76 183.53 138.66 184.47 135.5C184.8 134.7 184.88 136.08 185.03 136.41C185.22 133.06 186.36 130.08 186.15 127.01C186.26 127.03 186.33 127.37 186.37 127.69C186.42 127.1 186.74 126.36 186.21 126.35L186.27 126.94C185.38 127.75 185.02 124.4 184.62 124.25C186 125.43 185.34 121.39 187.04 123.18C186.98 122.78 186.77 122.27 186.42 122.32C186.57 121.76 186.79 121.59 187.13 122.22C187.03 120.08 186.43 120.78 186.59 118.88C186.84 118.91 186.92 119.3 187.19 119.52C186.77 118.51 186.33 117.52 186.63 115.92C186.77 116.02 186.97 115.85 186.95 116.33C186.98 113.55 185.84 111.6 186.25 108.6C187.29 109.48 186.58 107.57 187.46 107.4L187.13 105.78L186.73 106.44C186.68 105.02 186.02 103.79 186.22 102.57L186.64 103.6L186.31 100.96L186.08 102.47C185.55 101.07 185 102.68 185.13 100.79C185.23 101.16 185.07 99.38 185.5 98.62C185.18 97.95 184.84 97.26 184.97 96.2C185.21 95.91 185.9 96.34 186.07 96.15C185.33 95.52 185.55 92.88 184.75 92.08C184.95 92.35 185.37 92.33 185.45 92.22L184.85 91.7C184.96 91.03 185.03 90.93 185.37 91C185.25 89.04 184.43 91.72 184.61 89.36C184.67 89.54 184.74 89.44 184.87 89.81C184.84 87.46 184.02 85.36 184.02 83.21C184.7 82.49 184.44 85.05 185 84.25C184.45 81.2 183.28 78.01 183.07 75.02V75.58C182.01 75.29 183.27 73.32 182.61 71.87C182.73 72.23 183.21 72.29 183.09 72.2C182.99 70.16 182.31 68.09 181.69 65.04L181.97 65.4C182.03 64.18 181.75 62.24 181.71 60.94C181.44 60.58 181.41 59.83 181.13 60.31C181.6 58.26 181.22 56.39 180.94 54.55C180.62 52.72 180.38 50.92 180.76 49.14C180.78 49.56 180.97 50.14 180.96 49.81C180.84 48.81 180.77 47.8 180.7 46.8C180.39 47.04 180.52 47.2 180.27 47.83C180.08 47.45 179.93 46.59 179.93 45.84C180.14 47.2 180.43 45.83 180.59 45.24C180.5 45.34 180.39 45.14 180.3 45.19C180.83 43.62 179.69 44.92 180.09 42.76L180.24 42.88C180.18 42.07 179.99 41.32 180.07 40.45C180.41 40.1 180.19 41.32 180.47 41.38C180.45 40.16 179.98 38.94 180.34 37.85C180.4 38.38 180.36 39.12 180.42 39.65C180.85 38.47 180.76 38.32 180.86 37.43V37.52C180.92 36.83 181.03 36.15 181.14 35.47L181 35.99C180.38 34.4 181.08 32.87 180.91 30.78C181.08 32.83 181.12 31.14 181.39 31.33C181.54 30.82 181.72 30.04 181.77 30.28C181.64 29.28 182.12 28.7 182.03 27.3C182.12 27.25 182.2 26.28 182.38 26.53C182.51 25.27 182.19 26.8 182.1 26.67C182.1 26.18 182.18 25.65 182.28 25.1C182.41 24.55 182.57 23.97 182.73 23.37C182.89 22.77 183.05 22.13 183.18 21.48C183.33 20.83 183.49 20.16 183.59 19.46C184.06 17.08 184.08 16.61 184.71 14.44C185.03 13.75 184.69 15.09 184.69 15.09C185.13 13.94 185.46 13.09 185.84 12C185.79 12.23 185.91 12.02 186.08 11.71C186.41 10.85 186.15 11.07 186.69 9.97001C186.63 10.17 186.59 10.45 186.48 10.89C186.83 9.85001 187.27 8.87001 187.71 7.83001C187.88 7.58001 187.49 8.48001 187.36 8.86001C187.61 8.28001 187.94 7.52001 188.22 6.87001C188.53 6.23001 188.81 5.69001 188.88 5.51001L188.46 6.21001C188.68 5.80001 188.62 6.03001 188.47 6.33001C188.01 7.31001 187.77 7.73001 187.7 7.77001L188.03 7.03001C187.55 7.71001 186.58 9.93001 186.05 11.46L186.14 10.76L185.65 12.36C185.47 12.67 185.27 12.85 185.56 12.1C185.03 13.14 185.22 13.07 184.76 13.97C184.71 14.07 184.71 14.02 184.74 13.92L184.43 15.02C184.46 14.79 184.21 15.15 184.48 14.5C183.65 16.39 183.55 17.67 183.17 18.36L183.2 18.19C182.49 20.94 183.31 18.51 182.98 20.62C182.67 21.03 182.39 21.45 182.09 21.87L182.25 22.2C182.18 22.48 182.03 23.04 181.96 22.92C181.87 24.02 182.1 22.76 182.11 23.41C181.53 24.73 181.47 27.24 180.97 27.47C181.09 28 181.37 26.17 181.24 27.68C180.97 27.85 180.9 28.28 180.86 28.83C180.84 29.38 180.84 30.03 180.63 30.65C180.42 30.22 180.74 29.03 180.32 30.28C180.66 31.11 179.83 32.75 179.82 33.85C180.22 33.94 179.68 36.22 179.73 38.05C179.59 37.92 179.25 41.46 179.05 43.17L178.97 43.12C179.41 43.46 179.28 45.21 179.39 46.49C179.09 46.44 178.98 46.21 178.86 45.52V46.72C179 47 179.08 47.38 179.14 48.16L178.76 47.86C178.76 49.47 179.25 51.07 179.03 53.14C179.42 53.23 180 51.47 180.38 53.61C180.18 53.7 179.82 53.8 179.71 53.24C179.75 53.42 179.92 53.89 179.85 54.27L179.46 53.42C179.35 54.36 179.78 53.89 179.78 54.64C179.48 54.64 179.59 55.2 179.35 55.11C179.31 54.92 179.44 54.45 179.31 54.17C179.29 55.02 179.16 56.05 178.94 56.4C179.11 56.31 179.35 56.37 179.43 56.99C179.56 58.58 179.09 57.56 178.99 58.51C179.23 58.88 179.07 59.92 179.54 59.91C179.57 60.38 179.35 60.48 179.23 60.67C179.51 61.48 179.6 64.51 180.05 63.53L180.07 63.32C180.07 63.32 180.09 63.4 180.1 63.45C180.85 66.09 180.35 69.07 180.85 71.71L180.67 71.73C181.05 73.3 181.18 75.25 181.71 76.34C181.76 76.81 181.49 77.49 181.24 77.32C181.52 78.52 181.75 78.63 181.63 80.42C181.16 79.24 181.38 80.88 181.24 79.2C181.24 80.8 180.96 81.19 181.69 82.82C181.12 82.3 181.18 84.08 181.4 84.81L181.66 83.66C181.82 84.49 181.85 85.23 181.89 85.99L181.16 85.66C180.9 87.32 181.39 88.73 181.8 90.05C182.22 91.37 182.56 92.62 181.91 93.91C182.49 94.71 182.13 92.13 182.78 92.84C182.81 94.33 181.89 95.96 181.9 96.42C181.6 98.47 183.12 98.23 182.94 100.37C183.2 100.08 183.9 99.78 184.24 101.36C184.22 102.86 183.18 103.24 182.92 102.32C182.88 101.97 182.96 101.79 183.05 101.8C182.93 101.33 182.79 100.71 182.52 101.31L182.8 101.49C182.56 102.24 182.67 104.27 182.19 103.81C182.47 104.91 182.66 104.27 182.78 103.44C182.41 105.35 182.86 106.4 182.57 108.35C182.73 108.04 183.06 107.75 183.06 108.06C182.69 110.92 183.59 109.31 183.71 111.26C183.24 112.36 182.68 110.85 182.98 112.8C182.64 113.98 182.2 113.03 181.99 112.56C182.23 113.44 182.11 114.26 181.91 114.98C181.69 115.7 181.37 116.31 181.29 116.8L181.12 115.87C181.22 116.42 181.18 116.87 181.14 117.33L181.77 116.84C181.63 117.37 181.59 117.83 181.35 117.8C181.7 118.38 182.36 117.44 182.81 118.59C182.46 119.29 182.91 120.83 182.09 121C182.6 118.76 181.27 121.17 181.35 119.26C181.4 119.63 181.35 120.08 181.18 120.61C181.08 120.68 181.02 120.52 181 120.37C180.03 122.43 181.82 121.45 181.49 123.68C181.08 123.34 180.56 124.08 180.61 124.46C180.75 123.57 181.42 124.13 181.65 125.01C181.08 126.39 181.65 126.61 181.5 127.36L181.81 126.53C182.21 126.89 182.05 127.61 182.01 128.64C181.64 128.66 181.93 127.69 181.71 128.02C182.3 129.28 180.43 130.39 180.64 132.03C180.18 132.69 179.76 131.93 179.42 132.51C179.65 134.36 178.38 134.25 178.46 136.17C179.21 135.78 179.07 135.65 179.39 137.07L179.62 133.98L180.1 136.1C180.31 135.19 180.13 134.1 180.35 133.58C180.66 134.6 180.52 134.48 181.13 134.15C179.93 135.2 181.14 136.74 180.18 138.04L178.64 137.65C177.44 139.64 178.53 141.66 177.47 144.38L177.96 143.54C178.5 144.06 177.64 145.3 177.68 146.27C177.17 146.06 176.84 146.59 176.42 146.91C176.83 146.95 175.9 148.98 176.91 149.47L175.92 150.59C175.12 152.83 176.89 153.54 176.27 155.72C175.81 154.94 175.22 155.88 175.09 154.3C174.93 155.04 174.71 155.7 175.09 155.78C174.66 156.15 175.44 157.98 174.8 158.58C174.99 158.94 175.55 159.14 175.36 159.97C175.23 160.04 175.09 159.92 175.09 159.92C175.35 159.97 175.27 161.3 175.99 160.65C174.95 161.67 174.74 163.3 174.64 164.9C174.52 166.5 174.52 168.06 173.66 169.03C173.77 170.71 173.83 172.72 173.87 174.22C173.7 174.12 173.58 174.22 173.65 173.93C173.09 176.01 175.25 175.22 174.68 177.56C173.76 178.77 174.16 176.31 173.82 177.07C171.92 177.42 174.09 179.92 173.05 181.53L172.93 181.15C172.31 182.39 173.75 184.09 173.72 186.06C173.72 186.06 173.55 185.97 173.43 186.06C174.48 187.36 174.96 189.87 175.38 191.73C174.58 191.2 174.92 190.9 174.18 191.32C174.35 192.16 175.39 190.98 175.73 192.65C175.36 193.23 175.09 194.47 174.28 194.69L174.12 193.1C173.12 194 174.31 195.15 174.19 196L173.72 195.93C174.06 198.35 175.23 198.29 175.35 200.9L175.68 200.6C176.95 201.93 175.12 201.84 176.09 203.2L174.94 203.72C175.29 204.63 176.31 206.92 176.62 208.6C175.7 207.7 175.11 205.76 174.52 204.59C174.57 205.52 174.82 207.73 175.42 208.18C175.29 207.81 174.97 207.36 175.12 206.98C176.12 208.06 176.66 209.54 176.73 211.39C174.44 211.16 176.32 216.23 174.53 217.58C174.95 219.18 174.88 220.8 174.62 222.43C174.49 223.24 174.36 224.07 174.22 224.93C174.07 225.78 173.94 226.66 173.9 227.58C175.78 226.44 173.87 228.66 175.69 228.63C175.69 229.51 175.62 229.84 175.5 229.91C175.02 230.74 174.58 231.57 174.06 232.37C173.43 232.89 173.8 231.5 173.38 231.52C172.93 233.34 172.49 232.17 171.8 233.3C172.48 233.16 172.62 234.11 172.18 235.1C172.56 234.67 172.9 234.23 173.27 233.78C173.54 235.17 173.02 235.65 172.53 236.12C172.03 236.59 171.56 237.06 171.72 238.44C171.61 238.13 171.48 237.81 171.35 237.5C171.39 238.2 171.03 239.37 170.86 240.59C170.69 241.82 170.52 243.04 171.01 243.91C170.74 244.07 170.18 244.2 170.24 243.6C169.96 244.35 169.72 245.15 169.52 245.98C169.31 246.81 169.2 247.7 168.95 248.52C168.73 249.34 168.5 250.15 168.21 250.86C167.89 251.56 167.48 252.15 167 252.58L166.73 252.16C166.55 252.73 166.96 253.48 166.2 253.89C166.07 253.76 165.96 253.47 165.79 253.68C165.75 254.01 165.59 255.4 164.96 255.92L164.91 255.09C164.39 255.66 164.03 256.22 163.71 256.75C163.41 257.29 163.21 257.85 163.03 258.42C162.67 259.56 162.29 260.64 161.53 261.74C160.64 260.89 158.64 262.21 157.66 262.82L157.58 262.66C156.88 263.15 156.29 263.67 155.75 264.22C155.22 264.78 154.66 265.23 154.15 265.78C153.63 266.31 153.13 266.88 152.54 267.35C151.95 267.83 151.37 268.4 150.64 268.8C150.03 268.7 149.33 268.79 148.55 268.98C147.75 269.12 146.9 269.38 146 269.64C144.18 270.11 142.18 270.59 140.49 270.5C141.03 270.63 140.56 271.42 139.98 271.63C139.57 271.57 139.06 271.87 138.64 272.02C138.22 272.16 137.9 272.19 137.9 271.65H138.18C137.47 270.65 135.92 271.13 134.64 271.16L134.5 272.56C132.77 271.67 130.6 271.89 128.55 272.07C126.51 272.24 124.64 272.37 123.77 271.44C122.92 271.73 121.9 271.66 121.05 271.91L121.16 271.21C118.89 270.85 117.76 270.66 114.89 270.52L115.53 270.09C113.94 269.89 113.26 271.83 111.76 271.69L111.44 270.64C108.61 270.32 105.86 269.15 102.95 269.7C103.01 269.57 103.13 269.3 103.6 269.31C102.27 269.13 98.5304 268.1 98.8504 269.44C98.9204 268.6 95.9404 269.03 94.3704 269.2L94.6904 268.63C93.3004 269.25 93.2304 269.45 91.4104 269.44C90.9904 269.31 91.1004 268.93 91.6404 269.14C90.2604 268.67 90.4604 269.56 88.7804 269.04L89.4704 268.75C88.0104 268.53 88.1004 268.75 87.2504 269.07C86.3004 269.18 84.5004 268.59 84.3504 268.07C84.1104 268.35 83.2604 268.67 82.4204 268.42C82.3304 268.22 82.6604 268.14 82.8204 268.1C80.4204 267.45 79.1104 268.29 77.4904 267.57C77.4804 267.39 77.3804 267.29 77.2504 267.22C79.1904 267.45 80.7504 267.67 80.6004 267.69C80.6604 267.19 79.1104 266.93 80.4404 266.39C79.1304 266.64 76.8704 267.19 75.3704 266.78C75.3004 266.73 75.2404 266.67 75.1904 266.59L75.3604 266.55C75.0104 266.46 74.6904 266.47 74.3804 266.52C73.9004 266.39 73.6004 266.3 73.1304 266.24C73.0004 265.84 71.3604 265.84 70.5804 265.74C70.5804 266.24 69.5704 266.05 70.4704 266.57C70.3504 266.52 70.6304 266.53 71.1504 266.57C71.2704 266.57 71.4104 266.57 71.4904 266.56C71.4704 266.57 71.4504 266.58 71.4304 266.6C71.9404 266.65 72.6204 266.72 73.3804 266.79C72.7304 266.98 72.0604 267.11 71.2304 266.74C70.7904 267.01 70.3004 267.29 70.0304 267.41C69.0504 266.59 67.0304 265.99 66.8004 265.55C64.3804 265.55 61.1404 265.12 59.5404 265.77C58.8504 265.79 58.7904 265.44 58.5504 265.29C58.9504 265.25 59.4204 265.32 59.6404 265.22C58.2504 265.28 55.6104 264.85 55.2104 265.35C53.5304 264.9 56.2404 264.96 53.8704 264.78L54.2104 264.65C51.9504 263.97 50.0204 264.11 48.0404 264.17C46.0604 264.24 44.0304 264.21 41.5204 263.46C41.8704 263.56 42.0404 263.6 42.1104 263.68C39.2104 263.14 36.1904 262.9 33.1804 262.6C30.1704 262.31 27.1804 261.96 24.3204 261.44C22.6904 261.18 22.4904 261.34 21.4704 261.34L21.1404 261.1L19.4004 261.13C16.9604 260.96 15.2504 260.26 12.1404 260.17L12.5304 260.3C11.4304 260.16 9.0304 259.93 9.2204 259.88C9.1104 259.88 8.8504 259.9 8.4204 259.82L8.3904 259.77L5.6704 259.53C3.5704 259.27 6.0204 259.44 2.9404 259.14C1.8604 259.04 0.530403 258.92 0.110403 258.88C0.570403 258.93 1.2904 259.02 1.3204 259.03L0.280403 258.9C0.090403 258.9 -0.699597 258.73 1.8404 259.18L3.6204 259.45L4.1904 259.57L2.7004 259.32C3.5404 259.49 4.0804 259.56 4.6804 259.64C4.8204 259.68 5.0704 259.74 5.4204 259.81L7.1704 260C7.3704 260.08 6.3804 259.96 7.5404 260.18C8.3604 260.26 6.7704 259.95 8.1304 260.13C8.9704 260.32 8.7204 260.34 9.7204 260.44C9.8504 260.5 9.6404 260.49 9.2404 260.44C10.1304 260.54 11.5904 260.81 12.0604 260.79C12.9304 261.04 15.0604 261.23 14.9404 261.43C15.2204 261.43 16.5204 261.51 17.3404 261.62C15.8104 261.68 20.3904 262.12 19.9504 262.41C21.0904 262.29 23.9404 262.94 25.9204 263.05C25.8104 263.06 25.5904 263.09 25.4204 263.05C26.5104 263.26 26.8204 263.42 27.5104 263.62C27.6904 263.32 29.4104 263.51 30.3604 263.42C31.6604 263.97 29.4904 263.71 29.8704 264.1C29.8404 263.81 32.2404 264.19 31.8204 263.86C32.8204 264.24 32.6904 264.1 33.1804 264.51C33.4204 264.05 34.1504 264.58 35.0404 264.41C36.5004 264.89 35.3604 264.95 37.0204 265.05C37.7804 265.34 36.3004 265.28 36.3004 265.28L36.2704 265.23ZM75.3504 269.98V269.99C75.0104 269.95 74.7304 269.92 74.5404 269.9C74.7104 269.92 74.9404 269.94 75.3504 269.98ZM78.6304 270.44C78.2304 270.36 77.7404 270.29 77.2104 270.22C77.1204 270.02 77.2704 269.85 77.6004 269.91C77.4104 270.01 78.1604 270.22 78.6304 270.45V270.44ZM72.1504 265.96C72.6804 265.94 72.8404 266.06 72.9004 266.17C72.6504 266.15 72.3604 266.14 71.9804 266.13C71.9604 266.15 71.9304 266.17 71.9104 266.18C71.9704 266.09 72.0404 266.01 72.1504 265.95V265.96Z" fill="#F5C443"/>
<path d="M71.1301 266.51C71.0501 266.51 71.0102 266.53 70.9102 266.52C71.0102 266.58 71.1102 266.63 71.2102 266.67C71.2802 266.62 71.3502 266.58 71.4102 266.53C71.3202 266.53 71.2201 266.51 71.1301 266.51Z" fill="#F5C443"/>
<path d="M180.03 63.5V63.57C180.03 63.51 180.05 63.46 180.08 63.42C180.06 63.47 180.05 63.47 180.03 63.5Z" fill="#F5C443"/>
<path d="M123.93 277.81V277.63L123.63 277.77L123.93 277.81Z" fill="#F5C443"/>
<path d="M180.54 45.25C180.54 45.25 180.61 45.15 180.63 45.01C180.61 45.02 180.57 45.12 180.54 45.25Z" fill="#F5C443"/>
<path d="M180.8 37.43C180.86 37.06 180.9 36.7 180.97 36.33C180.86 36.8 180.83 37.15 180.8 37.43Z" fill="#F5C443"/>
<path d="M181.45 31.46C181.41 31.38 181.38 31.35 181.34 31.33L181.45 31.46Z" fill="#F5C443"/>
<path d="M186.36 127.66C186.36 127.74 186.35 127.83 186.36 127.9C186.42 128.48 186.42 128.09 186.36 127.66Z" fill="#F5C443"/>
<path d="M185.46 98.61C185.6 98.91 185.74 99.2 185.83 99.51C185.84 99 185.82 98.6 185.46 98.61Z" fill="#F5C443"/>
<path d="M181.04 159.19C181.04 159.19 181.04 159.19 181.03 159.19C181.02 159.26 181.01 159.31 181 159.38L181.04 159.2V159.19Z" fill="#F5C443"/>
<path d="M185.91 100.85C186.01 100.33 185.95 99.9 185.84 99.51C185.82 99.93 185.79 100.43 185.91 100.85Z" fill="#F5C443"/>
<path d="M188.45 6.50001L188.59 6.24001C188.59 6.24001 188.59 6.23001 188.59 6.20001L188.45 6.49001V6.50001Z" fill="#F5C443"/>
<path d="M188.59 6.21001L188.73 5.92001C188.66 6.05001 188.6 6.16001 188.59 6.21001Z" fill="#F5C443"/>
<path d="M189.04 5.31L188.73 5.92C188.84 5.71 188.98 5.46 189.04 5.31Z" fill="#F5C443"/>
<path d="M185.31 13.82L185.33 13.92C185.33 13.87 185.33 13.83 185.31 13.82Z" fill="#F5C443"/>
<path d="M184.58 16.13C184.77 15.58 185.13 14.79 185.33 14.01L185.31 13.92C185.27 14.31 184.65 15.57 184.57 16.13H184.58Z" fill="#F5C443"/>
<path d="M181.19 25.73C181.33 25.06 181.51 24.4 181.7 23.74C181.53 24.07 181.3 24.5 181.5 23.59C180.64 26.05 181.78 23.1 181.19 25.73Z" fill="#F5C443"/>
<path d="M179.97 31.98C180.09 30.88 179.81 31.98 179.76 31.91C179.76 32.62 179.76 32.79 179.97 31.98Z" fill="#F5C443"/>
<path d="M181.09 77.77L180.58 77.72C180.74 78.55 180.77 77.7 181.09 77.77Z" fill="#F5C443"/>
<path d="M184.76 86.14L184.98 85.28L184.45 84.95L184.76 86.14Z" fill="#F5C443"/>
<path d="M181.44 91.67L181.33 91.31L181.64 92.69L181.44 91.67Z" fill="#F5C443"/>
<path d="M172.93 167.09L173.86 166.9C173.75 166.3 172.74 166.09 172.93 167.09Z" fill="#F5C443"/>
<path d="M174.78 200.59C174.34 200.99 174.1 201.93 174.61 202.47C174.61 201.73 174.93 200.96 174.78 200.59Z" fill="#F5C443"/>
<path d="M132.84 271.54C133.05 271.44 133.26 271.35 133.47 271.24L132.28 271.51L132.85 271.54H132.84Z" fill="#F5C443"/>
</g>
<defs>
<clipPath id="clip0_2003_387">
<rect width="192.21" height="278.46" fill="white"/>
</clipPath>
</defs>
</svg>
