<svg width="591" height="572" viewBox="0 0 591 572" fill="none" xmlns="http://www.w3.org/2000/svg">
<g clip-path="url(#clip0_2003_453)">
<path d="M341.052 508.113C341.599 507.971 341.293 508.074 339.767 508.378L338.688 508.613L341.052 508.113Z" fill="#F3BB28"/>
<path d="M330.584 509.124C330.121 509.141 329.635 509.109 329.188 509.054C328.748 509.02 328.345 508.985 328.028 508.958C327.406 508.911 327.173 508.914 327.773 509.012C328.703 509.089 329.271 509.141 329.867 509.195C330.456 509.196 331.051 509.184 332.051 509.184C333.634 509.254 334.798 509.115 334.537 509.149C335.085 509.073 336.972 508.973 337.796 508.792C336.793 508.971 335.632 508.998 334.402 509.134C333.791 509.218 333.141 509.202 332.483 509.188C331.827 509.185 331.151 509.176 330.467 509.171C329.88 509.147 330.449 509.143 330.578 509.137L330.584 509.124Z" fill="#F3BB28"/>
<path d="M226.884 375.837L227.467 376.842C227.326 376.561 227.118 376.212 226.884 375.837Z" fill="#F3BB28"/>
<path d="M157.274 291.989C157.886 292.529 158.18 292.697 158.245 292.666C157.655 292.198 157.176 291.818 157.274 291.989Z" fill="#F3BB28"/>
<path d="M143.68 279.56C143.981 279.815 144.241 280.026 144.507 280.258C144.216 279.944 143.906 279.659 143.68 279.56Z" fill="#F3BB28"/>
<path d="M226.883 375.837L225.401 373.242C225.158 373.181 226.126 374.594 226.883 375.837Z" fill="#F3BB28"/>
<path d="M309.577 502.98C310.085 503.24 310.507 503.458 310.896 503.664C310.483 503.443 310.074 503.232 309.661 503.011C309.632 503.008 309.612 503.003 309.571 502.993L309.577 502.98Z" fill="#F3BB28"/>
<path d="M251.412 418.385L251.816 419.199C251.975 419.418 252.129 419.617 252.285 419.793L251.403 418.388L251.412 418.385Z" fill="#F3BB28"/>
<path d="M267.942 452.401C267.562 451.635 267.191 451.524 266.942 451.287C267.26 451.659 267.595 452.182 267.953 452.843C268.005 452.828 268.002 452.695 267.942 452.401Z" fill="#F3BB28"/>
<path d="M303.124 498.316L303.94 498.884C303.728 498.736 303.372 498.487 303.124 498.316Z" fill="#F3BB28"/>
<path d="M238.745 394.436C238.764 394.341 238.738 394.193 238.695 394.05C238.658 394.084 238.681 394.221 238.745 394.436Z" fill="#F3BB28"/>
<path d="M457.3 27.2096C457.3 27.2096 457.294 27.1891 457.311 27.1839C457.155 27.0408 457.105 26.9999 457.3 27.2096Z" fill="#F3BB28"/>
<path d="M422.424 11.4914L422.938 11.4592C422.938 11.4592 423.022 11.4564 423.047 11.4487L422.421 11.4812L422.424 11.4914Z" fill="#F3BB28"/>
<path d="M115.503 262.428C115.558 262.456 115.581 262.471 115.634 262.489C116.449 262.711 115.992 262.559 115.503 262.428Z" fill="#F3BB28"/>
<path d="M218.67 375.857C215.475 375.805 223.308 373.682 218.58 373.913C218.83 374.027 217.896 374.62 217.365 375.125C216.831 375.586 216.734 376.072 218.67 375.857Z" fill="#F3BB28"/>
<path d="M308.786 502.528C308.37 502.296 307.949 502.078 307.53 501.836C308.098 502.167 308.484 502.362 308.786 502.528Z" fill="#F3BB28"/>
<path d="M218.581 373.912L218.093 373.937C218.297 373.931 218.406 373.921 218.581 373.912Z" fill="#F3BB28"/>
<path d="M50.9725 281.434C51.152 281.346 51.3657 281.093 51.5965 280.834C51.5156 280.814 51.3539 280.929 50.9725 281.434Z" fill="#F3BB28"/>
<path d="M97.2857 259.744L95.9727 259.515C96.4956 259.636 96.9167 259.699 97.2857 259.744Z" fill="#F3BB28"/>
<path d="M54.3114 313.905C54.5714 314.707 54.5803 315.016 55.0918 316.032C55.0868 315.922 55.0701 315.805 55.0388 315.669C54.7963 315.33 54.5538 314.835 54.3084 313.895L54.3114 313.905Z" fill="#F3BB28"/>
<path d="M71.6553 341.805C71.5828 341.626 71.4668 341.427 71.371 341.233C71.1508 340.999 70.9011 340.729 70.6777 340.484L71.6553 341.805Z" fill="#F3BB28"/>
<path d="M486.473 117.632C486.558 116.949 486.653 116.52 486.75 116.19C486.515 116.65 486.326 111.984 486.473 117.632Z" fill="#F3BB28"/>
<path d="M309.584 502.911C309.419 502.861 309.19 502.751 308.789 502.538C309.091 502.703 309.379 502.851 309.661 503.011C309.742 503.031 309.768 503.023 309.587 502.921L309.584 502.911Z" fill="#F3BB28"/>
<path d="M59.9201 312.752C60.1794 313.521 60.516 314.266 60.8666 314.996L61.8787 317.209C61.6134 316.576 61.2946 315.859 60.9464 315.106C60.5982 314.353 60.2119 313.566 59.917 312.742L59.9201 312.752Z" fill="#F3BB28"/>
<path d="M381.048 288.072L381.803 287.377C381.485 287.595 381.21 287.833 381.048 288.072Z" fill="#F3BB28"/>
<path d="M69.3311 329.482C69.6555 330.342 70.103 331.177 70.6021 331.996C70.7683 332.113 70.9352 332.263 71.0798 332.309L69.3396 329.479L69.3311 329.482Z" fill="#F3BB28"/>
<path d="M482.669 82.9613C483.564 87.7383 483.442 85.1572 483.849 86.1375C484.147 87.5629 484.328 88.4442 484.391 88.9935C484.444 89.5454 484.426 89.7627 484.382 89.8651C484.302 90.0673 484.119 89.7994 484.155 90.791C484.44 92.5768 484.764 94.1503 485.054 95.6115C485.336 97.0752 485.667 98.4238 485.728 99.7757C485.677 99.9803 485.693 100.499 485.566 99.8912C485.873 101.782 486.098 104.61 486.344 107.511C486.516 110.411 486.548 113.376 486.847 115.614C486.813 115.936 486.779 116.102 486.746 116.179C486.957 115.481 487.173 115.393 487.343 115.554C487.37 116.638 487.499 117.657 487.518 118.498C487.529 119.341 487.513 120.003 487.348 120.387C487.392 119.071 487.277 118.938 487.202 118.315L487.269 120.589C486.761 122.569 487.234 117.492 486.857 117.449C486.932 119.655 486.932 122.05 486.979 124.319C486.993 125.451 487.006 126.55 486.997 127.578C486.968 128.6 486.869 129.544 486.773 130.375C486.508 130.677 486.68 128.732 486.706 127.231C486.722 125.733 486.723 124.708 486.461 126.915L486.783 121.738C485.987 125.62 486.928 118.586 486.097 122.134C485.816 128.936 485.927 129.771 485.253 136.48C485.373 138.059 485.682 136.072 485.782 137.647C484.929 147.272 483.684 144.784 482.961 151.796C482.954 152.734 483.062 153.437 483.026 154.495C483.007 155.024 482.953 155.653 482.813 156.431C482.641 157.195 482.381 158.132 482.009 159.291L481.855 157.443C481.048 160.538 481.029 161.502 480.957 162.504C480.92 163.005 480.876 163.508 480.715 164.281C480.625 164.664 480.53 165.127 480.36 165.68C480.178 166.225 479.949 166.862 479.66 167.64C479.713 167.011 480.067 165.824 480.278 164.847C480.489 163.87 480.653 163.174 480.501 163.632C479.782 165.653 479.572 166.385 479.533 167.065C479.483 167.737 479.529 168.325 479.034 169.911L478.323 170.314C478.092 171.13 477.852 171.949 477.607 172.78C477.373 173.619 477.139 174.458 476.836 175.285C476.282 176.955 475.717 178.651 475.141 180.373C474.859 181.238 474.569 182.105 474.281 182.983C473.947 183.83 473.613 184.677 473.27 185.526C472.584 187.225 471.881 188.929 471.19 190.641C471.195 190.161 471.536 188.9 470.696 190.367C469.818 192.513 468.703 194.587 467.641 196.745C467.081 197.804 466.582 198.912 465.952 199.926L464.083 202.973C461.662 207.11 458.761 210.735 456.194 214.137L454.64 217.177C454.178 217.784 453.592 218.106 454.006 217.368C451.818 219.854 454.178 217.785 453.372 219.241C452.25 220.793 451.598 220.989 452.203 219.894C451.424 221.187 450.38 222.659 449.221 224.244C448.065 225.84 446.802 227.546 445.503 229.229C442.813 232.5 440.001 235.708 437.691 237.696C437.923 237.347 438.161 237.019 438.381 236.664C434.926 239.942 435.549 241.671 432.104 244.423L432.616 243.701C425.202 250.912 417.343 259.381 410.788 263.637C410.536 264.571 408.567 266.166 406.703 267.741C404.833 269.295 403.022 270.765 403.202 271.613C400.752 273.197 399.815 273.657 398.656 274.34C398.076 274.681 397.454 275.069 396.555 275.685C395.637 276.273 394.46 277.084 392.784 278.257C391.027 279.565 390.756 281.117 388.722 282.966L388.226 282.313C387.43 283.333 386.607 284.327 385.781 285.31L383.698 285.659L381.785 287.382C382.613 286.809 383.695 286.395 383.7 286.694C380.738 289.435 375.699 292.076 375.375 291.717L368.152 297.823C368.147 297.401 369.354 296.38 370.248 295.465C366.631 299.138 369.068 295.241 365.74 298.571C366.341 298.39 365.724 299.2 365.722 299.412C363.583 300.256 359.31 303.179 356.258 305.557L356.573 304.616C350.719 308.282 344.531 312.885 337.896 316.876C340.396 315.677 340.341 316.953 338.457 318.244L337.246 317.884C336.262 319.183 339.432 316.948 337.196 319.18C334.68 320.606 335.044 319.238 336.318 318.097C335.372 318.805 334.435 319.543 333.459 320.216C333.151 320.063 333.79 319.515 333.819 319.083C332.84 320.335 328.155 321.266 326.819 323.228L326.52 323.072C323.192 325.032 320.768 326.452 318.502 327.78C316.24 329.118 314.132 330.376 311.393 331.902C311.645 332.74 309.375 333.679 307.998 335.163C305.886 336.099 303.63 336.99 301.28 337.976C298.937 338.982 296.445 339.932 293.969 341.178C290.62 343.256 293.224 342.338 291.836 343.569C291.273 342.97 286.298 345.425 288.676 343.662C285.68 345.11 283.742 345.971 281.635 347.018C280.59 347.555 279.486 348.11 278.179 348.77C277.533 349.11 276.83 349.477 276.056 349.888C275.276 350.279 274.419 350.693 273.476 351.166C274.439 351.132 275.446 350.874 275.049 351.328C273.677 352.019 271.711 352.321 271.774 351.879L272.118 351.653C270.036 352.814 267.68 353.779 265.221 354.619C262.759 355.449 260.147 356.057 257.633 356.713C255.098 357.331 252.665 358.041 250.395 358.669C248.13 359.317 246.099 360.084 244.447 361.06L244.823 360.847C242.452 361.917 240.091 363.05 237.666 364.003C234.189 364.849 239.549 362.835 236.863 363.075C233.028 364.842 229.837 365.768 226.792 366.428C223.725 367.051 220.838 367.585 217.593 368.829C216.157 368.593 214.275 368.647 212.153 368.929C210.034 369.221 207.67 369.721 205.254 370.269C204.052 370.564 202.817 370.78 201.591 370.993C200.374 371.203 199.161 371.401 197.986 371.565C195.641 371.881 193.446 372.107 191.594 371.951L192.104 372.466C190.342 373.197 189.808 372.355 188.426 372.359C188.689 372.77 190.522 372.675 189.411 373.087C181.615 374.242 173.408 374.561 165.153 374.071C163.092 373.933 161.019 373.788 158.958 373.651L157.41 373.538L155.859 373.325L152.769 372.907C150.714 372.634 148.662 372.371 146.615 372.096C144.581 371.706 142.558 371.323 140.533 370.93C137.587 370.401 136.708 370.989 135.64 371.388C134.575 371.731 133.309 371.845 129.637 370.332L131.835 369.804C130.336 369.609 128.837 369.381 127.325 369.111L125.057 368.691L122.835 368.079C119.856 367.315 116.918 366.161 114.001 365.011C108.165 362.612 102.574 359.538 97.1096 356.637C97.8266 356.844 97.9451 356.586 98.9702 357.258C97.998 356.202 95.9517 354.902 94.1317 353.857C92.3533 352.732 90.748 351.934 90.6062 352.177C89.0414 350.955 90.4657 351.462 89.6217 350.491C88.676 349.461 87.2734 348.59 85.9982 347.771C84.698 346.993 83.6373 346.109 83.272 345.361C83.1492 345.108 83.9511 345.691 84.3392 345.987C83.603 345.529 82.1036 344.119 80.884 343.049C79.7066 341.933 78.8254 341.118 79.1884 342.044C78.3996 341.101 77.5863 340.232 76.7737 339.396C75.9501 338.585 75.2257 337.7 74.4627 336.905C73.7138 336.094 72.9883 335.299 72.3086 334.501C71.6743 333.667 71.0828 332.82 70.5716 331.96C70.0413 331.596 69.4685 330.966 68.8967 330.247C68.3079 329.533 67.8217 328.632 67.3087 327.829C66.3054 326.203 65.3727 324.813 64.711 324.789C65.2677 324.588 64.3828 322.549 63.0994 320.273C62.4163 319.152 61.8391 317.856 61.1879 316.748C60.5594 315.623 59.9452 314.638 59.4838 313.975C60.1812 314.801 58.7984 311.262 59.6908 312.208C59.0317 310.546 58.317 308.979 57.7847 307.925C57.2812 306.873 56.8935 306.299 56.7113 306.688C56.3592 303.374 55.4065 300.363 54.8718 297.561C54.3089 294.789 54.2364 292.249 55.296 290.861C55.4026 288.511 55.8603 286.335 56.654 284.28C57.4476 282.226 58.5692 280.329 59.8692 278.59C60.525 277.724 61.2188 276.891 61.9421 276.094C62.6801 275.315 63.4739 274.597 64.2297 273.846C65.8063 272.436 67.4542 271.138 69.1977 270.034C69.3602 270.698 67.4218 271.838 65.73 273.239C64.8424 273.862 64.0817 274.659 63.5469 275.244C63.0151 275.838 62.7626 276.304 63.0312 276.513C65.6833 273.643 68.033 271.632 70.5392 269.831C73.0847 268.129 75.8517 266.728 79.6085 265.821C80.6002 265.667 80.3627 265.872 79.8019 266.152C79.2379 266.422 78.3991 266.898 78.1126 267.095C81.6901 265.684 85.4117 265.032 89.0664 264.779C92.7302 264.557 96.3173 264.669 99.8632 264.739C99.8449 264.833 99.0755 264.887 98.3661 264.922C99.7611 264.959 101.586 265.524 101.454 264.928L100.093 264.881C98.9867 264.312 100.371 264.096 102.105 263.986C103.833 263.856 105.901 264.047 106.052 263.834C104.783 264.372 106.554 264.786 108.109 265.388C109.681 265.951 111.029 266.514 109.04 266.99C109.962 267.103 111.13 267.253 110.98 266.819C112.31 267.354 112.693 267.696 111.278 267.653C113.751 268.257 114.579 268.431 115.351 268.511C115.732 268.564 116.104 268.619 116.653 268.766C117.199 268.935 117.929 269.217 119.034 269.687C118.955 269.922 118.038 269.641 117.517 269.742C118.683 269.982 119.874 270.18 121.2 270.672C121.869 270.905 122.579 271.182 123.353 271.517C124.119 271.888 124.936 272.333 125.831 272.855C125.567 272.878 125.931 273.281 124.842 272.707C131.1 275.915 135.872 277.665 142.174 282.853C140.993 282.596 141.502 283.078 142.303 283.75C143.09 284.438 144.171 285.327 144.138 285.838C145.329 286.627 146.478 287.496 147.653 288.323L146.495 286.867C149.465 289.248 152.359 290.973 154.706 293.397L152.367 291.806C154.219 293.332 156.038 294.901 157.851 296.483L154.972 293.473C158.107 295.749 155.234 292.291 158.925 295.982C158.11 295.325 161.774 298.645 162.971 300.446C164.504 301.566 166.069 302.755 168.026 304.94C168.414 305.67 167.083 305.224 167.339 305.704C169.119 306.461 173.886 312.078 175.999 313.258C175.337 312.8 175.061 313.094 175.196 313.355C175.672 313.601 176.157 313.845 176.627 314.105C177.768 315.566 177.903 315.826 177.501 315.858C181.188 319.94 176.91 313.83 181.094 318.91C180.719 318.566 180.839 318.808 180.06 318.085C184.382 323.034 188.768 327.228 192.515 332.038C193.196 333.928 188.964 328.161 189.894 330.164C195.7 336.594 202.023 343.436 207.076 350.315L206.173 348.994C207.536 349.297 209.676 354.357 212.518 357.556C211.852 356.743 211.338 356.775 211.583 356.935C213.229 359.359 215.034 361.723 217.05 364.414C218.045 365.763 219.102 367.194 220.236 368.724C220.803 369.489 221.387 370.283 222.002 371.112C222.593 371.959 223.208 372.821 223.846 373.731L223.078 372.949C223.953 374.457 225.186 376.381 226.443 378.32C227.694 380.271 228.918 382.287 229.886 383.889C230.638 384.71 231.752 386.548 231.298 385.258C233.859 390.536 236.841 395.164 239.607 399.757C240.308 400.906 240.994 402.036 241.68 403.166C242.344 404.314 242.987 405.458 243.622 406.604C244.877 408.911 246.092 411.207 247.079 413.617C246.505 412.52 245.598 411.089 246.046 411.956L250.233 419.687C250.152 418.92 249.852 418.576 249.191 416.814C249.855 417.717 251.099 419.86 252.066 421.831C250.144 418.365 251.694 422.088 252.329 423.701C252.277 423.405 252.617 423.882 252.631 423.71C254.232 428.097 253.459 424.13 255.915 429.963L255.649 429.731C256.736 431.822 257.834 433.697 258.902 436.005C259.102 437.103 257.689 433.807 257.41 433.78C258.982 436.983 260.952 439.866 262.13 442.909C261.394 441.582 260.43 439.622 259.703 438.293C260.949 441.627 261.214 441.948 262.33 444.32L262.222 444.085C263.088 445.907 263.941 447.745 264.833 449.56L264.201 448.146C266.816 451.77 268.48 456.182 271.794 461.167C268.609 456.299 271.122 460.456 270.678 460.222C271.38 461.593 272.481 463.667 272.086 463.129C273.709 465.448 274.381 467.307 276.794 470.48C276.813 470.697 278.467 472.995 277.965 472.6C280.082 475.595 277.573 471.794 277.827 471.985C281.143 476.512 285.273 483.09 291.052 488.558C292.299 489.72 293.286 490.638 294.144 491.438C295.041 492.182 295.789 492.803 296.537 493.425C297.271 494.062 298.026 494.614 298.896 495.266C299.765 495.918 300.723 496.71 301.99 497.565C302.811 498.209 302.45 498.006 301.88 497.632C301.597 497.438 301.259 497.217 300.991 497.041C300.723 496.866 300.539 496.721 300.539 496.721C301.871 497.757 303.063 498.613 304.241 499.45C305.452 500.211 306.633 500.969 307.974 501.758C307.417 501.491 307.97 501.837 308.773 502.331C309.868 502.926 310.237 503.093 310.695 503.312C311.154 503.53 311.702 503.8 313.156 504.499C312.646 504.296 311.97 504.098 310.899 503.585C312.205 504.228 313.529 504.776 314.841 505.373C316.187 505.87 317.537 506.378 318.926 506.862C319.299 506.983 318.861 506.926 318.227 506.682C317.59 506.462 316.742 506.16 316.25 505.985C317.025 506.264 317.918 506.619 318.844 506.931C319.775 507.197 320.726 507.468 321.616 507.723C322.496 508.005 323.331 508.11 323.989 508.246C324.65 508.359 325.146 508.455 325.4 508.49L323.367 508.043C324.525 508.285 323.954 508.223 323.103 508.067C320.383 507.448 319.206 506.922 319.061 506.877L321.059 507.456C319.018 506.856 313.109 504.713 309.326 502.521L310.961 503.232C309.665 502.53 308.325 501.931 307.037 501.16C306.25 500.595 305.741 500.146 307.571 501.289C306.266 500.4 305.678 500.031 305.131 499.706C304.858 499.543 304.602 499.375 304.267 499.164C303.943 498.927 303.555 498.632 303.015 498.204C302.778 498.008 302.895 498.084 303.119 498.239C302.277 497.646 301.423 497.079 300.592 496.46C301.093 496.788 300.239 496.031 301.765 497.188C300.639 496.368 299.705 495.501 298.803 494.804C298.359 494.447 297.939 494.106 297.536 493.792C297.144 493.454 296.778 493.14 296.433 492.832C295.044 491.635 293.986 490.728 293.297 489.866L293.645 490.184C290.812 487.45 290.682 487.299 290.676 487.402C290.666 487.494 290.83 487.79 288.724 485.672C287.898 484.572 287.196 483.358 286.438 482.204L285.788 481.754C285.261 481.122 284.286 479.777 284.528 479.961C282.539 477.607 284.779 480.453 283.583 479.12C281.285 475.801 277.091 470.1 276.967 469.035C276.043 467.921 278.916 472.403 276.503 468.829C276.184 467.522 273.788 464.622 272.13 461.256C272.885 462.12 274.524 465.236 272.864 461.893C271.413 460.179 269.413 455.523 267.936 452.759C267.555 452.829 264.689 446.751 262.28 442.04C262.523 442.29 258.153 432.955 256.17 428.416L256.292 428.513C255.515 427.856 253.384 423.228 251.661 419.959C251.96 419.958 252.339 420.501 253.321 422.244L251.788 419.107C251.298 418.441 250.74 417.518 249.675 415.532L250.362 416.139C249.301 414.074 248.175 412.04 246.96 409.866C245.719 407.699 244.432 405.38 243.134 402.684C242.678 402.599 244.597 407.357 241.381 401.986C241.422 401.685 241.583 401.29 242.441 402.681C242.162 402.219 241.367 401.099 240.911 400.112L242.402 402.114C241.193 399.681 241.486 401.03 240.449 399.136C240.694 399.018 239.827 397.63 240.152 397.778C240.443 398.247 240.985 399.488 241.484 400.151C240.329 397.992 239.015 395.335 238.712 394.357C238.674 394.635 238.419 394.567 237.479 393.057C235.119 389.099 236.954 391.499 235.705 389.09C234.976 388.251 233.656 385.573 233.261 385.782C232.551 384.636 232.591 384.301 232.408 383.788C231.708 382.829 230.233 380.476 229.066 378.678C227.898 376.879 226.986 375.683 227.529 376.957L227.838 377.488C227.773 377.396 227.693 377.286 227.613 377.176C225.302 374.062 223.205 370.605 220.983 367.23C219.892 365.53 218.809 363.829 217.71 362.165C216.589 360.52 215.459 358.91 214.308 357.385L214.436 357.28C213.055 355.456 211.517 353.424 210.058 351.557C208.596 349.68 207.245 347.925 206.099 346.788C205.273 345.722 204.375 344.043 204.878 344.348C202.63 341.694 202.304 341.48 199.329 337.374C201.743 339.866 198.769 336.228 201.746 339.999C199.007 336.367 198.582 335.326 195.152 331.946C196.539 332.855 193.365 328.897 191.884 327.36L193.701 330.044C192.096 328.254 190.776 326.601 189.402 324.954L190.582 325.334C185.021 317.728 178.689 313.963 174.672 307.886C172.702 306.53 177.918 311.744 176.077 310.628C173.216 307.522 170.753 303.563 169.807 302.655C165.944 298.27 165.425 299.685 161.227 295.334C161.646 296.076 161.785 297.127 158.389 294.294C155.366 291.427 155.185 289.922 157.254 291.516C158.003 292.171 158.318 292.566 158.238 292.613C159.298 293.43 160.642 294.574 159.584 293.199L159.043 293.05C157.669 291.403 153.349 287.612 154.584 288.142C152.075 286.268 153.343 287.624 155.031 289.289C151.205 285.427 148.712 283.793 144.508 280.201C145.122 280.874 145.609 281.653 144.922 281.113C138.685 275.983 141.877 279.445 137.443 276.423C135.08 274.349 138.779 276.077 134.113 273.437C131.423 271.428 133.804 272.349 135.013 272.854C130.65 270.658 127.213 267.782 124.722 266.371L127.095 267.361C125.678 266.752 124.553 266.154 123.387 265.603L124.546 266.814C123.215 266.056 122.062 265.489 122.153 265.261C120.647 264.979 122.965 266.688 120.045 265.962C118.306 264.815 114.41 264.015 113.919 263.005C119.688 265.49 113.435 261.925 118.406 263.748C117.44 263.427 116.267 263.011 114.88 262.347C114.687 262.172 115.114 262.255 115.502 262.361C112.737 260.943 112.006 261.029 111.288 261.1C110.563 261.174 109.794 261.416 106.843 260.622C107.648 260.313 105.532 259.435 104.547 259.33C106.969 259.86 105.631 260.352 103.424 260.258C101.526 259.76 100.483 259.684 99.6753 259.671C98.8593 259.694 98.2836 259.8 97.2836 259.678L99.5624 260.072C99.1754 260.278 98.5151 260.321 97.6175 260.29C97.1715 260.268 96.6593 260.244 96.1012 260.223C95.5462 260.212 94.9342 260.229 94.2817 260.236C94.0357 259.853 96.6585 260.055 95.7118 259.861C94.2707 260.261 92.6077 259.893 90.7935 259.737C88.9689 259.484 86.9833 259.379 85.0007 259.876C83.074 259.843 84.6469 258.98 82.9487 259.023C81.8341 259.358 80.9724 259.54 80.2282 259.708C79.4779 259.856 78.8408 259.914 78.1921 259.964C77.5372 259.994 76.899 260.141 76.1237 260.33C75.3606 260.56 74.4333 260.772 73.3471 261.389C74.8874 261.504 75.0293 261.261 72.1109 263.153C73.3104 262.603 74.497 261.978 75.742 261.548L77.6055 260.842C78.2277 260.611 78.8714 260.45 79.5028 260.249C77.9143 260.905 76.4137 261.791 74.9173 262.598C76.0491 262.258 77.1979 261.756 78.2652 261.357C79.3394 261.011 80.3107 260.697 81.0188 260.595C78.812 261.682 79.0262 261.462 80.2506 261.74C79.413 261.691 78.5977 261.747 77.8205 261.992C77.0489 262.224 76.2994 262.561 75.5327 262.903C74.7654 263.212 74.0388 263.687 73.2347 264.029C72.4454 264.389 71.5973 264.678 70.7117 264.967L70.1544 263.363C68.7893 263.829 67.5236 264.377 66.3948 265.163C65.8242 265.535 65.2567 265.917 64.6953 266.32C64.1518 266.751 63.6291 267.22 63.0893 267.695C62.5611 268.177 61.9918 268.615 61.4649 269.164C60.9319 269.692 60.3762 270.238 59.8095 270.809C58.6436 271.907 57.4466 273.18 56.0918 274.613C56.7014 274.028 57.3318 273.482 57.9598 272.959C57.8055 273.596 57.0118 274.47 56.113 275.553C55.2197 276.624 54.2298 277.903 53.6645 279.131C53.3716 278.562 52.3622 279.868 51.5925 280.79C51.783 280.833 51.0923 282.267 50.6138 283.97C50.1469 285.681 49.9284 287.596 50.3762 288.152C49.9284 289.368 49.6057 290.657 49.3179 291.969C49.0847 295.637 49.7327 297.759 50.3829 299.703C51.065 301.658 51.7935 303.489 52.6533 306.751C52.1096 305.845 51.969 306.154 51.7534 306.152C51.5463 306.148 51.236 305.862 50.4997 303.633C51.0155 305.907 51.5666 307.924 51.9102 307.854C51.9503 309.324 54.7256 313.513 55.0372 315.636C55.5674 316.434 56.226 316.448 57.2564 318.722C57.2879 319.014 57.0286 318.835 57.0286 318.835C57.2594 318.732 59.0084 322.183 58.5564 319.935C58.9013 321.703 59.8253 323.53 60.8124 325.506C61.7715 327.512 63.1592 329.389 64.43 331.313C67.0707 335.086 69.8966 338.48 71.3582 341.192C72.9137 342.975 74.8158 344.697 76.5956 346.479C77.4756 347.384 78.4223 348.168 79.3029 348.95C80.1865 349.743 81.0291 350.492 81.8103 351.192C81.5278 351.155 81.6537 351.418 81.1017 350.826C82.0837 351.946 82.85 352.473 83.452 352.826C84.0509 353.169 84.5105 353.299 84.9817 353.435C85.9469 353.691 86.8926 354.13 89.3601 356.24C91.6015 358.996 86.3768 354.653 87.8811 356.172C87.8161 357.261 89.4303 358.368 91.43 359.638C92.4366 360.249 93.5749 360.831 94.6403 361.513C95.7168 362.169 96.6954 362.966 97.5355 363.739C97.2223 363.599 96.9036 363.472 96.6014 363.307C97.8916 364.456 99.7101 365.279 101.749 366.18C102.769 366.62 103.88 366.987 105.005 367.462C106.137 367.901 107.284 368.48 108.476 369.024C108.476 369.024 108.196 369.086 108.369 369.29C111.904 369.819 118.152 372.095 122.906 373.07C121.34 373.397 120.708 372.818 121.493 373.874C123.619 374.382 121.066 372.488 125.279 373.437C126.596 374.177 129.598 375.267 129.927 376.204L125.92 375.316C127.85 376.885 131.108 376.495 133.192 377.172L132.886 377.587C133.654 377.745 134.335 377.864 134.943 377.959C135.549 378.044 136.089 378.038 136.581 378.057C137.567 378.072 138.372 378.041 139.184 378.008C140.813 377.953 142.489 377.928 145.788 378.483L145.112 378.007C146.915 377.721 147.665 377.852 148.421 378.159C149.168 378.435 149.928 378.753 151.716 378.448L152.828 379.785C154.014 379.717 156.1 379.658 158.397 379.49C160.689 379.246 163.211 379.022 165.32 378.944C164.153 379.385 162.336 379.686 160.424 379.95C159.469 380.07 158.486 380.221 157.553 380.29C156.617 380.349 155.724 380.395 154.952 380.471C157.327 380.815 162.974 380.72 164.159 380.151C163.218 380.256 162.048 380.531 161.095 380.316C162.509 379.857 164.15 379.53 166.026 379.333C166.958 379.231 167.958 379.164 169.003 379.128C170.051 379.069 171.153 378.971 172.314 378.945C172.019 380.17 175.07 380.21 178.645 380.159C179.539 380.146 180.47 380.134 181.381 380.116C182.288 380.054 183.185 380.019 184.029 379.998C185.714 379.971 187.185 380.074 188.098 380.467C190.107 380.03 192.147 379.817 194.191 379.525C196.232 379.223 198.295 378.992 200.409 378.779C201.471 378.671 202.535 378.574 203.623 378.458C204.707 378.366 205.803 378.247 206.906 378.06C209.113 377.719 211.371 377.329 213.71 376.837C209.964 375.636 216.433 376.252 215.409 374.466C217.552 373.943 218.367 373.732 218.596 373.808L225.397 373.354C227.085 373.525 223.454 374.262 223.764 374.636C228.53 373.636 225.955 374.957 229.221 374.687C228.808 374.433 229.155 374.095 229.953 373.765C230.737 373.418 231.963 373.049 233.335 372.792C232 372.86 230.682 372.956 229.343 372.98C235.584 370.166 235.428 372.942 241.731 370.087L239.822 371.263C240.635 370.919 241.841 370.578 243.189 370.083C244.536 369.589 246.055 369.043 247.579 368.484C250.595 367.32 253.578 366.077 254.946 364.752C255.598 364.745 256.534 364.964 255.136 365.63C259.102 364.27 263.368 362.318 267.378 360.42C271.376 358.448 275.165 356.651 278.349 355.86L277.925 356.534C279.328 355.822 280.101 354.631 282.061 354.275C282.042 354.493 281.652 354.966 282.328 354.696C283.023 354.209 285.819 352.253 287.817 351.652L286.394 352.86C288.315 352.159 289.98 351.446 291.448 350.637C292.915 349.828 294.224 348.989 295.476 348.144C297.984 346.442 300.317 344.782 303.308 343.069C303.83 344.305 309.73 341.727 312.677 340.428L312.659 340.645C321.154 336.251 326.441 331.852 333.81 326.85C339.199 325.34 349.958 317.59 357.682 313.272C356.445 313.823 357.39 312.302 358.644 311.312C360.491 310.366 362.952 307.264 363.245 308.456L362.629 308.865C364.465 308.936 367.844 306.215 370.598 304.305L370.306 302.711C372.345 301.875 374.49 300.55 376.651 299.031C378.811 297.512 380.969 295.793 382.982 294.062C387.029 290.639 390.671 287.548 393.004 286.757C394.464 285.115 396.505 283.442 397.95 281.815L398.272 282.51C400.62 280.745 402.317 279.298 404.147 277.767C405.968 276.206 407.931 274.557 410.61 272.024L409.798 273.46C412.895 270.701 412.491 268.238 415.292 265.646L416.757 265.729C419.414 263.281 422.145 260.888 424.846 258.46C427.55 256.042 430.042 253.354 432.299 250.447C432.303 250.646 432.333 251.027 431.531 251.903C434.015 249.563 441.051 242.678 439.37 242.593C439.663 242.884 440.994 241.558 442.466 239.645C443.941 237.742 445.634 235.35 446.807 233.716L446.808 234.651C448.498 231.536 448.368 231.23 451.183 227.442C451.932 226.637 452.127 227.035 451.095 228.081C452.369 226.751 452.721 226.088 453.14 225.338C453.566 224.608 454.033 223.766 455.486 222.07L454.741 223.697C457.068 220.647 456.742 220.745 457.698 218.73C459.044 216.71 461.96 212.791 462.674 212.677C462.708 212.355 462.933 211.674 463.331 210.853C463.717 210.023 464.306 209.089 464.919 208.113C465.221 207.967 464.886 208.78 464.719 209.187C466.497 206.458 467.591 204.223 468.576 202.245C469.089 201.277 469.469 200.272 469.934 199.33C470.387 198.38 470.886 197.461 471.497 196.509C471.682 196.531 471.887 196.313 472.094 196.006C470.907 198.369 469.874 200.529 469.077 201.983C468.245 203.414 467.753 204.231 467.838 204.049C468.227 204.377 470.401 200.727 469.265 204.098C470.008 202.527 470.782 200.222 471.672 197.927C472.555 195.611 473.609 193.333 474.474 191.424C474.595 191.266 474.704 191.099 474.825 191.007L474.702 191.434C475.121 190.561 475.424 189.735 475.671 188.937C476.254 187.736 476.636 186.986 477.147 185.796C477.735 185.575 479.024 181.188 479.795 179.151C479.305 179.076 480.334 176.438 479.086 178.752C479.235 178.44 478.996 179.169 478.528 180.535C478.428 180.855 478.311 181.213 478.264 181.428C478.269 181.382 478.27 181.325 478.281 181.267C477.795 182.605 477.252 184.406 476.404 186.31C476.889 184.626 477.27 182.818 478.319 180.709C478.422 179.498 478.554 178.199 478.655 177.478C479.049 176.858 479.508 176.085 479.922 175.225C480.317 174.36 480.718 173.426 481.084 172.558C481.823 170.821 482.455 169.316 482.748 169.016C482.951 168.198 483.19 167.346 483.394 166.471C483.584 165.579 483.776 164.663 483.976 163.745C484.366 161.901 484.763 160.021 485.145 158.213C485.798 154.574 486.154 151.159 486.189 148.943C486.462 147.022 486.754 146.812 486.971 146.134C486.933 147.282 486.679 148.583 486.671 149.21C486.742 148.731 486.812 148.187 486.902 147.614C486.959 147.029 487.025 146.407 487.096 145.773C487.235 144.495 487.381 143.148 487.509 141.895C487.773 139.387 487.947 137.229 487.695 136.703C488.276 131.827 487.952 139.578 488.358 132.783L488.436 133.729C488.651 132.082 488.819 130.494 488.947 128.963C489.084 127.429 489.032 125.919 489.052 124.464C489.049 122.995 489.021 121.566 488.985 120.14C488.968 119.432 488.96 118.721 488.915 118.011C488.861 117.303 488.795 116.588 488.741 115.88C488.63 114.454 488.527 113.025 488.412 111.556C488.289 110.089 488.28 108.599 488.091 107.041C487.94 105.482 487.803 103.875 487.686 102.183C487.541 100.489 487.541 98.7176 487.324 96.8447C487.421 97.8847 487.492 98.3982 487.427 98.6182C487.187 96.4847 486.878 94.3386 486.583 92.1771C486.427 91.099 486.279 90.0182 486.12 88.9298C485.944 87.8466 485.696 86.7738 485.473 85.6933C485.02 83.5348 484.564 81.3662 484.108 79.1975C483.571 77.0418 482.949 74.9119 482.37 72.7691C481.279 68.4629 479.855 64.2573 478.343 60.1338C476.814 56.0154 475.132 52.0099 473.295 48.1735C472.229 45.9989 471.571 44.8378 470.984 43.9117C470.396 42.9855 469.934 42.2559 469.114 41.0543L468.721 40.0586C467.768 38.6964 466.811 37.3471 465.794 36.049C463.703 33.2357 461.888 30.8076 459.762 28.3727C457.614 25.9557 455.146 23.5345 451.728 21.0317L452.553 21.7859C451.96 21.3071 451.187 20.6933 450.327 20.1053C449.496 19.4866 448.587 18.891 447.769 18.3796C446.142 17.3209 444.826 16.6473 445.06 16.7105C444.799 16.5554 444.187 16.2938 443.165 15.7549L443.103 15.6733C442.025 15.1063 440.91 14.6954 439.82 14.2103C438.703 13.8224 437.607 13.3501 436.477 13.044C435.175 12.6336 434.568 12.4487 434.279 12.3908C433.993 12.3098 434.019 12.302 433.975 12.2817C433.932 12.2614 433.807 12.2209 433.212 12.0768C432.62 11.9098 431.552 11.7186 429.624 11.4633C428.907 11.4117 428.037 11.317 427.157 11.2811C426.28 11.2887 425.377 11.2376 424.613 11.2781C423.082 11.3821 422.034 11.4413 422.568 11.4142C423.714 11.3368 425.492 11.2475 425.582 11.2984C424.707 11.2497 423.844 11.3646 422.982 11.39C422.741 11.3958 422.129 11.4461 422.368 11.4301C422.485 11.417 422.818 11.4058 423.522 11.3834C423.873 11.3671 424.318 11.3556 424.873 11.3336C425.431 11.355 426.104 11.3863 426.901 11.425C428.392 11.5332 429.887 11.6849 431.376 11.9721C431.855 12.073 432.337 12.1509 432.811 12.2978C432.187 12.1181 431.559 12.0508 430.938 11.9146C430.312 11.7911 429.689 11.6778 429.055 11.6234C431.186 11.9292 432.537 12.2244 434.042 12.5959C434.4 12.6997 435.016 12.882 435.885 13.1888C437.327 13.6014 438.752 14.1417 440.166 14.7077C440.663 14.9926 438.265 13.9208 441.068 15.2496C443.039 16.1156 439.217 14.258 442.466 15.7645C444.446 16.9065 443.871 16.5784 446.191 17.9189C446.503 18.148 446.003 17.8862 445.084 17.3494C445.596 17.6522 446.201 17.9827 446.824 18.3746C447.432 18.7818 448.07 19.1915 448.667 19.5911C449.853 20.4261 450.914 21.1874 451.436 21.5539C451.896 21.9616 452.533 22.494 453.216 23.0569C453.88 23.648 454.597 24.2901 455.241 24.8761C456.498 26.102 457.51 27.101 457.351 27.104C457.63 27.3767 458.409 28.1337 459.304 29.0564C460.171 30.0099 461.181 31.0984 461.897 32.0191C460.47 30.4767 461.868 32.1393 463.398 34.2078C464.941 36.261 466.546 38.797 466.116 38.4251C467.072 39.6748 468.645 42.0755 470.158 44.8955C471.693 47.6976 473.195 50.8882 474.41 53.4637C474.269 53.183 473.954 52.6318 473.766 52.1646C475.037 55.1131 475.268 56.0351 475.958 57.9884C476.4 58.2453 478.193 62.9304 479.18 65.4631C480.08 69.3251 478.088 63.2962 478.194 64.579C478.407 64.2921 480.45 71.0519 480.252 69.708C480.804 72.6943 480.804 72.2598 480.907 73.8442C481.461 74.2567 481.664 76.5462 482.556 78.9181C483.183 83.241 482.352 80.1047 483.394 84.7816C483.671 87.0377 482.714 82.8922 482.714 82.8922L482.669 82.9613ZM471.348 190.761C471.702 189.919 472.002 189.205 472.191 188.747C472.018 189.167 471.774 189.753 471.356 190.758L471.348 190.761ZM467.448 198.619C467.938 197.669 468.536 196.486 469.181 195.245C469.469 195.081 469.471 195.492 469.061 196.273C469.18 195.769 468.157 197.558 467.439 198.621L467.448 198.619ZM478.165 183.429C477.747 184.836 477.493 185.236 477.317 185.366C477.578 184.742 477.801 183.962 478.136 182.959C478.132 182.916 478.15 182.821 478.143 182.767C478.178 182.946 478.199 183.14 478.165 183.429Z" fill="#F3BB28"/>
<path d="M478.477 180.64C478.539 180.443 478.557 180.315 478.649 180.064C478.522 180.325 478.389 180.566 478.258 180.817C478.242 181.011 478.234 181.203 478.22 181.374C478.305 181.126 478.395 180.865 478.477 180.64Z" fill="#F3BB28"/>
<path d="M227.568 377.023L227.467 376.842C227.542 376.998 227.61 377.133 227.65 377.233C227.593 377.105 227.61 377.1 227.565 377.013L227.568 377.023Z" fill="#F3BB28"/>
<path d="M388.126 282.165L388.239 282.321L388.716 281.732L388.126 282.165Z" fill="#F3BB28"/>
<path d="M252.345 423.752C252.367 423.857 252.425 424.051 252.573 424.419C252.581 424.383 252.475 424.092 252.345 423.752Z" fill="#F3BB28"/>
<path d="M262.337 444.373L263.703 447.327C263.12 446.043 262.691 445.114 262.337 444.373Z" fill="#F3BB28"/>
<path d="M270.428 460.041C270.572 460.21 270.639 460.246 270.686 460.276C270.683 460.266 270.68 460.256 270.677 460.246L270.428 460.041Z" fill="#F3BB28"/>
<path d="M98.3932 264.947C98.1946 264.94 98.0046 264.931 97.8293 264.939C96.5097 264.968 97.4046 264.989 98.3932 264.947Z" fill="#F3BB28"/>
<path d="M162.987 300.464C162.316 299.975 161.645 299.486 160.967 298.944C161.964 299.958 162.756 300.723 162.987 300.464Z" fill="#F3BB28"/>
<path d="M59.7322 312.252C59.7322 312.252 59.7322 312.252 59.7236 312.254C59.7961 312.433 59.8508 312.583 59.9233 312.762L59.7353 312.262L59.7322 312.252Z" fill="#F3BB28"/>
<path d="M158.281 296.421C159.248 297.489 160.131 298.248 160.975 298.941C160.163 298.105 159.189 297.139 158.281 296.421Z" fill="#F3BB28"/>
<path d="M322.691 508.157L323.419 508.306C323.419 508.306 323.445 508.298 323.506 508.314L322.691 508.157Z" fill="#F3BB28"/>
<path d="M323.514 508.311L324.328 508.467C323.953 508.402 323.632 508.331 323.514 508.311Z" fill="#F3BB28"/>
<path d="M326.025 508.792L324.319 508.47C324.908 508.593 325.633 508.732 326.025 508.792Z" fill="#F3BB28"/>
<path d="M303.566 499.253L303.339 499.154C303.453 499.22 303.531 499.263 303.566 499.253Z" fill="#F3BB28"/>
<path d="M298.212 495.26C298.834 495.775 299.609 496.422 300.444 497.117C301.3 497.784 302.238 498.449 303.147 499.078L303.33 499.156C302.894 498.887 301.905 498.148 300.869 497.379C299.85 496.572 298.824 495.678 298.2 495.253L298.212 495.26Z" fill="#F3BB28"/>
<path d="M279.761 473.252C280.816 474.895 281.962 476.466 283.068 478.061C282.531 477.175 281.83 476.027 283.395 478.152C279.323 472.014 284.104 479.543 279.761 473.252Z" fill="#F3BB28"/>
<path d="M270.509 457.544C272.052 460.31 270.616 457.434 270.744 457.551C269.722 455.831 269.466 455.418 270.509 457.544Z" fill="#F3BB28"/>
<path d="M204.228 343.241L204.747 343.163C203.221 341.294 204.611 343.271 204.228 343.241Z" fill="#F3BB28"/>
<path d="M186.745 325.977L188.083 327.936L189.102 328.431C188.335 327.592 187.54 326.784 186.745 325.977Z" fill="#F3BB28"/>
<path d="M179.244 312.359L180 313.068C179.056 312.137 178.126 311.192 177.166 310.3C177.872 310.968 178.567 311.661 179.253 312.357L179.244 312.359Z" fill="#F3BB28"/>
<path d="M67.5054 337.863L67.6403 336.664C66.5323 335.437 65.6335 335.808 67.5054 337.863Z" fill="#F3BB28"/>
<path d="M145.04 379.009C145.942 379.707 148.306 380.199 149.759 379.839C147.878 379.615 146.004 379.076 145.04 379.009Z" fill="#F3BB28"/>
<path d="M374.183 301.3L372.985 302.54L375.397 300.456L374.183 301.3Z" fill="#F3BB28"/>
</g>
<defs>
<clipPath id="clip0_2003_453">
<rect width="480.237" height="452.152" fill="white" transform="translate(0.632812 138.383) rotate(-16.7476)"/>
</clipPath>
</defs>
</svg>
